ply
format ascii 1.0
element vertex 15
property float x
property float y
property float z
property uchar red
property uchar green
property uchar blue
element face 12
property list uchar int vertex_indices
end_header
0.00000 0.00000 0.00000 0.00000 255.00000 0.00000
0.20000 0.16000 0.20000 0.00000 255.00000 0.00000
0.20000 -0.16000 0.20000 0.00000 255.00000 0.00000
-0.20000 -0.16000 0.20000 0.00000 255.00000 0.00000
-0.20000 0.16000 0.20000 0.00000 255.00000 0.00000
0.99129 -0.09801 -0.08796 0.00000 255.00000 0.00000
1.16573 0.07041 0.12839 0.00000 255.00000 0.00000
1.16869 -0.24943 0.13832 0.00000 255.00000 0.00000
0.77131 -0.25451 0.09292 0.00000 255.00000 0.00000
0.76835 0.06532 0.08299 0.00000 255.00000 0.00000
1.59529 -0.08760 -0.12234 0.00000 255.00000 0.00000
1.74800 0.07551 0.11361 0.00000 255.00000 0.00000
1.75415 -0.24443 0.11380 0.00000 255.00000 0.00000
1.36236 -0.25202 0.03358 0.00000 255.00000 0.00000
1.35620 0.06792 0.03338 0.00000 255.00000 0.00000
3 0 1 2
3 0 2 3
3 0 3 4
3 0 4 1
3 5 6 7
3 5 7 8
3 5 8 9
3 5 9 6
3 10 11 12
3 10 12 13
3 10 13 14
3 10 14 11
