ply
format ascii 1.0
element vertex 30
property float x
property float y
property float z
property uchar red
property uchar green
property uchar blue
element face 24
property list uchar int vertex_indices
end_header
-0.00000 -0.00000 -0.00000 0.00000 100.00000 155.00000
0.20000 0.16000 0.20000 0.00000 100.00000 155.00000
0.20000 -0.16000 0.20000 0.00000 100.00000 155.00000
-0.20000 -0.16000 0.20000 0.00000 100.00000 155.00000
-0.20000 0.16000 0.20000 0.00000 100.00000 155.00000
0.81141 -0.09406 -0.57686 0.00000 100.00000 155.00000
0.99617 0.07171 -0.36714 0.00000 100.00000 155.00000
0.99648 -0.24818 -0.35870 0.00000 100.00000 155.00000
0.59754 -0.24933 -0.38779 0.00000 100.00000 155.00000
0.59723 0.07056 -0.39623 0.00000 100.00000 155.00000
2.00378 -0.16708 -0.35284 0.00000 100.00000 155.00000
2.15691 -0.00255 -0.11815 0.00000 100.00000 155.00000
2.16213 -0.32249 -0.11541 0.00000 100.00000 155.00000
1.77033 -0.32956 -0.19567 0.00000 100.00000 155.00000
1.76511 -0.00962 -0.19842 0.00000 100.00000 155.00000
3.61389 -0.22668 -0.09471 0.00000 100.00000 155.00000
3.72296 -0.05484 0.15862 0.00000 100.00000 155.00000
3.73021 -0.37455 0.17025 0.00000 100.00000 155.00000
3.35818 -0.38832 0.02396 0.00000 100.00000 155.00000
3.35092 -0.06861 0.01233 0.00000 100.00000 155.00000
4.92140 -0.13001 0.52653 0.00000 100.00000 155.00000
4.99664 0.04031 0.79286 0.00000 100.00000 155.00000
5.01044 -0.27929 0.80110 0.00000 100.00000 155.00000
4.65792 -0.29935 0.61314 0.00000 100.00000 155.00000
4.64413 0.02025 0.60490 0.00000 100.00000 155.00000
5.75596 0.04775 1.41154 0.00000 100.00000 155.00000
5.80038 0.21728 1.68519 0.00000 100.00000 155.00000
5.81651 -0.10220 1.69341 0.00000 100.00000 155.00000
5.48646 -0.12465 1.46854 0.00000 100.00000 155.00000
5.47034 0.19484 1.46032 0.00000 100.00000 155.00000
3 0 1 2
3 0 2 3
3 0 3 4
3 0 4 1
3 5 6 7
3 5 7 8
3 5 8 9
3 5 9 6
3 10 11 12
3 10 12 13
3 10 13 14
3 10 14 11
3 15 16 17
3 15 17 18
3 15 18 19
3 15 19 16
3 20 21 22
3 20 22 23
3 20 23 24
3 20 24 21
3 25 26 27
3 25 27 28
3 25 28 29
3 25 29 26
