ply
format ascii 1.0
element vertex 30
property float x
property float y
property float z
property uchar red
property uchar green
property uchar blue
element face 24
property list uchar int vertex_indices
end_header
0.00000 0.00000 0.00000 0.00000 255.00000 0.00000
0.20000 0.16000 0.20000 0.00000 255.00000 0.00000
0.20000 -0.16000 0.20000 0.00000 255.00000 0.00000
-0.20000 -0.16000 0.20000 0.00000 255.00000 0.00000
-0.20000 0.16000 0.20000 0.00000 255.00000 0.00000
0.81141 -0.09406 -0.57686 0.00000 255.00000 0.00000
0.99617 0.07171 -0.36714 0.00000 255.00000 0.00000
0.99648 -0.24818 -0.35870 0.00000 255.00000 0.00000
0.59754 -0.24933 -0.38779 0.00000 255.00000 0.00000
0.59723 0.07056 -0.39623 0.00000 255.00000 0.00000
3.21634 -0.70761 -1.27459 0.00000 255.00000 0.00000
3.35153 -0.53269 -1.03642 0.00000 255.00000 0.00000
3.35399 -0.85216 -1.01816 0.00000 255.00000 0.00000
2.96980 -0.86146 -1.12915 0.00000 255.00000 0.00000
2.96735 -0.54199 -1.14741 0.00000 255.00000 0.00000
5.01525 -0.96977 -0.43583 0.00000 255.00000 0.00000
5.08983 -0.78931 -0.17607 0.00000 255.00000 0.00000
5.09969 -1.10842 -0.15432 0.00000 255.00000 0.00000
4.74888 -1.13226 -0.34502 0.00000 255.00000 0.00000
4.73902 -0.81315 -0.36676 0.00000 255.00000 0.00000
5.97699 -1.61095 0.27234 0.00000 255.00000 0.00000
6.04555 -1.40844 0.51707 0.00000 255.00000 0.00000
6.04199 -1.72401 0.56999 0.00000 255.00000 0.00000
5.70038 -1.75467 0.36416 0.00000 255.00000 0.00000
5.70395 -1.43910 0.31124 0.00000 255.00000 0.00000
7.64604 -2.17125 0.98106 0.00000 255.00000 0.00000
7.67173 -1.94847 1.21624 0.00000 255.00000 0.00000
7.65713 -2.25856 1.29388 0.00000 255.00000 0.00000
7.35679 -2.30934 1.03461 0.00000 255.00000 0.00000
7.37139 -1.99924 0.95697 0.00000 255.00000 0.00000
3 0 1 2
3 0 2 3
3 0 3 4
3 0 4 1
3 5 6 7
3 5 7 8
3 5 8 9
3 5 9 6
3 10 11 12
3 10 12 13
3 10 13 14
3 10 14 11
3 15 16 17
3 15 17 18
3 15 18 19
3 15 19 16
3 20 21 22
3 20 22 23
3 20 23 24
3 20 24 21
3 25 26 27
3 25 27 28
3 25 28 29
3 25 29 26
