ply
format ascii 1.0
element vertex 15
property float x
property float y
property float z
property uchar red
property uchar green
property uchar blue
element face 12
property list uchar int vertex_indices
end_header
0.00000 0.00000 0.00000 0.00000 255.00000 0.00000
0.20000 0.16000 0.20000 0.00000 255.00000 0.00000
0.20000 -0.16000 0.20000 0.00000 255.00000 0.00000
-0.20000 -0.16000 0.20000 0.00000 255.00000 0.00000
-0.20000 0.16000 0.20000 0.00000 255.00000 0.00000
0.97357 -0.10440 -0.20311 0.00000 255.00000 0.00000
1.14802 0.06402 0.01323 0.00000 255.00000 0.00000
1.15098 -0.25581 0.02316 0.00000 255.00000 0.00000
0.75359 -0.26090 -0.02224 0.00000 255.00000 0.00000
0.75063 0.05893 -0.03217 0.00000 255.00000 0.00000
1.57971 -0.08382 -0.11006 0.00000 255.00000 0.00000
1.73283 0.07915 0.12572 0.00000 255.00000 0.00000
1.73895 -0.24079 0.12574 0.00000 255.00000 0.00000
1.34702 -0.24829 0.04617 0.00000 255.00000 0.00000
1.34090 0.07165 0.04614 0.00000 255.00000 0.00000
3 0 1 2
3 0 2 3
3 0 3 4
3 0 4 1
3 5 6 7
3 5 7 8
3 5 8 9
3 5 9 6
3 10 11 12
3 10 12 13
3 10 13 14
3 10 14 11
