ply
format ascii 1.0
element vertex 10
property float x
property float y
property float z
property uchar red
property uchar green
property uchar blue
element face 8
property list uchar int vertex_indices
end_header
0.00000 0.00000 0.00000 0.00000 255.00000 0.00000
0.20000 0.16000 0.20000 0.00000 255.00000 0.00000
0.20000 -0.16000 0.20000 0.00000 255.00000 0.00000
-0.20000 -0.16000 0.20000 0.00000 255.00000 0.00000
-0.20000 0.16000 0.20000 0.00000 255.00000 0.00000
4.80272 0.23313 1.37096 0.00000 255.00000 0.00000
4.92283 0.40060 1.62221 0.00000 255.00000 0.00000
4.93348 0.08080 1.62649 0.00000 255.00000 0.00000
4.55471 0.06648 1.49870 0.00000 255.00000 0.00000
4.54406 0.38627 1.49442 0.00000 255.00000 0.00000
3 0 1 2
3 0 2 3
3 0 3 4
3 0 4 1
3 5 6 7
3 5 7 8
3 5 8 9
3 5 9 6
