ply
format ascii 1.0
element vertex 15
property float x
property float y
property float z
property uchar red
property uchar green
property uchar blue
element face 12
property list uchar int vertex_indices
end_header
-0.00000 -0.00000 -0.00000 0.00000 100.00000 155.00000
0.20000 0.16000 0.20000 0.00000 100.00000 155.00000
0.20000 -0.16000 0.20000 0.00000 100.00000 155.00000
-0.20000 -0.16000 0.20000 0.00000 100.00000 155.00000
-0.20000 0.16000 0.20000 0.00000 100.00000 155.00000
0.94443 -0.06451 -0.23923 0.00000 100.00000 155.00000
1.11938 0.10645 -0.02531 0.00000 100.00000 155.00000
1.12361 -0.21327 -0.01260 0.00000 100.00000 155.00000
0.72602 -0.22025 -0.05581 0.00000 100.00000 155.00000
0.72179 0.09947 -0.06852 0.00000 100.00000 155.00000
1.47723 -0.06991 -0.15892 0.00000 100.00000 155.00000
1.63342 0.09440 0.07390 0.00000 100.00000 155.00000
1.63979 -0.22554 0.07551 0.00000 100.00000 155.00000
1.24682 -0.23373 0.00131 0.00000 100.00000 155.00000
1.24045 0.08620 -0.00030 0.00000 100.00000 155.00000
3 0 1 2
3 0 2 3
3 0 3 4
3 0 4 1
3 5 6 7
3 5 7 8
3 5 8 9
3 5 9 6
3 10 11 12
3 10 12 13
3 10 13 14
3 10 14 11
