ply
format ascii 1.0
element vertex 10
property float x
property float y
property float z
property uchar red
property uchar green
property uchar blue
element face 8
property list uchar int vertex_indices
end_header
0.00000 0.00000 0.00000 0.00000 255.00000 255.00000
0.20000 0.16000 0.20000 0.00000 255.00000 255.00000
0.20000 -0.16000 0.20000 0.00000 255.00000 255.00000
-0.20000 -0.16000 0.20000 0.00000 255.00000 255.00000
-0.20000 0.16000 0.20000 0.00000 255.00000 255.00000
-4.41448 -0.02013 0.49671 0.00000 255.00000 255.00000
-4.15588 0.13141 0.62226 0.00000 255.00000 255.00000
-4.16717 -0.18839 0.62372 0.00000 255.00000 255.00000
-4.54629 -0.17442 0.75052 0.00000 255.00000 255.00000
-4.53499 0.14538 0.74906 0.00000 255.00000 255.00000
3 0 1 2
3 0 2 3
3 0 3 4
3 0 4 1
3 5 6 7
3 5 7 8
3 5 8 9
3 5 9 6
