ply
format ascii 1.0
element vertex 30
property float x
property float y
property float z
property uchar red
property uchar green
property uchar blue
element face 24
property list uchar int vertex_indices
end_header
0.00000 0.00000 0.00000 0.00000 255.00000 0.00000
0.20000 0.16000 0.20000 0.00000 255.00000 0.00000
0.20000 -0.16000 0.20000 0.00000 255.00000 0.00000
-0.20000 -0.16000 0.20000 0.00000 255.00000 0.00000
-0.20000 0.16000 0.20000 0.00000 255.00000 0.00000
0.81141 -0.09406 -0.57686 0.00000 255.00000 0.00000
0.99617 0.07171 -0.36714 0.00000 255.00000 0.00000
0.99648 -0.24818 -0.35870 0.00000 255.00000 0.00000
0.59754 -0.24933 -0.38779 0.00000 255.00000 0.00000
0.59723 0.07056 -0.39623 0.00000 255.00000 0.00000
1.27635 -0.19452 -0.70556 0.00000 255.00000 0.00000
1.44847 -0.03213 -0.48284 0.00000 255.00000 0.00000
1.45005 -0.35212 -0.48064 0.00000 255.00000 0.00000
1.05331 -0.35443 -0.53155 0.00000 255.00000 0.00000
1.05173 -0.03444 -0.53375 0.00000 255.00000 0.00000
2.10736 -0.52126 -1.03253 0.00000 255.00000 0.00000
2.26068 -0.35028 -0.80262 0.00000 255.00000 0.00000
2.25899 -0.66987 -0.78651 0.00000 255.00000 0.00000
1.86829 -0.67212 -0.87226 0.00000 255.00000 0.00000
1.86998 -0.35253 -0.88837 0.00000 255.00000 0.00000
3.17974 -0.71628 -1.26943 0.00000 255.00000 0.00000
3.31611 -0.54182 -1.03160 0.00000 255.00000 0.00000
3.31766 -0.86130 -1.01341 0.00000 255.00000 0.00000
2.93315 -0.86942 -1.12335 0.00000 255.00000 0.00000
2.93160 -0.54994 -1.14153 0.00000 255.00000 0.00000
4.03617 -1.16130 -1.11238 0.00000 255.00000 0.00000
4.15844 -0.97855 -0.87311 0.00000 255.00000 0.00000
4.15452 -1.29700 -0.84187 0.00000 255.00000 0.00000
3.77825 -1.30565 -0.97732 0.00000 255.00000 0.00000
3.78217 -0.98721 -1.00856 0.00000 255.00000 0.00000
3 0 1 2
3 0 2 3
3 0 3 4
3 0 4 1
3 5 6 7
3 5 7 8
3 5 8 9
3 5 9 6
3 10 11 12
3 10 12 13
3 10 13 14
3 10 14 11
3 15 16 17
3 15 17 18
3 15 18 19
3 15 19 16
3 20 21 22
3 20 22 23
3 20 23 24
3 20 24 21
3 25 26 27
3 25 27 28
3 25 28 29
3 25 29 26
