ply
format ascii 1.0
element vertex 15
property float x
property float y
property float z
property uchar red
property uchar green
property uchar blue
element face 12
property list uchar int vertex_indices
end_header
-0.00000 -0.00000 -0.00000 0.00000 100.00000 155.00000
0.20000 0.16000 0.20000 0.00000 100.00000 155.00000
0.20000 -0.16000 0.20000 0.00000 100.00000 155.00000
-0.20000 -0.16000 0.20000 0.00000 100.00000 155.00000
-0.20000 0.16000 0.20000 0.00000 100.00000 155.00000
0.95457 -0.07123 -0.24506 0.00000 100.00000 155.00000
1.12936 0.09990 -0.03113 0.00000 100.00000 155.00000
1.13353 -0.21981 -0.01813 0.00000 100.00000 155.00000
0.73597 -0.22677 -0.06170 0.00000 100.00000 155.00000
0.73180 0.09294 -0.07470 0.00000 100.00000 155.00000
1.47777 -0.06959 -0.15905 0.00000 100.00000 155.00000
1.63398 0.09471 0.07377 0.00000 100.00000 155.00000
1.64035 -0.22522 0.07536 0.00000 100.00000 155.00000
1.24738 -0.23342 0.00119 0.00000 100.00000 155.00000
1.24100 0.08651 -0.00040 0.00000 100.00000 155.00000
3 0 1 2
3 0 2 3
3 0 3 4
3 0 4 1
3 5 6 7
3 5 7 8
3 5 8 9
3 5 9 6
3 10 11 12
3 10 12 13
3 10 13 14
3 10 14 11
