ply
format ascii 1.0
element vertex 15
property float x
property float y
property float z
property uchar red
property uchar green
property uchar blue
element face 12
property list uchar int vertex_indices
end_header
0.00000 0.00000 0.00000 0.00000 100.00000 155.00000
0.20000 0.16000 0.20000 0.00000 100.00000 155.00000
0.20000 -0.16000 0.20000 0.00000 100.00000 155.00000
-0.20000 -0.16000 0.20000 0.00000 100.00000 155.00000
-0.20000 0.16000 0.20000 0.00000 100.00000 155.00000
-1.52438 0.11399 0.42176 0.00000 100.00000 155.00000
-1.34994 0.28241 0.63811 0.00000 100.00000 155.00000
-1.34698 -0.03743 0.64804 0.00000 100.00000 155.00000
-1.74436 -0.04251 0.60263 0.00000 100.00000 155.00000
-1.74732 0.27732 0.59270 0.00000 100.00000 155.00000
-1430012.05736 100541.96553 443211.70082 0.00000 100.00000 155.00000
-1430011.82136 100542.12082 443211.86142 0.00000 100.00000 155.00000
-1430011.82757 100541.80088 443211.86109 0.00000 100.00000 155.00000
-1430012.22087 100541.80843 443211.93360 0.00000 100.00000 155.00000
-1430012.21466 100542.12837 443211.93392 0.00000 100.00000 155.00000
3 0 1 2
3 0 2 3
3 0 3 4
3 0 4 1
3 5 6 7
3 5 7 8
3 5 8 9
3 5 9 6
3 10 11 12
3 10 12 13
3 10 13 14
3 10 14 11
