ply
format ascii 1.0
element vertex 15
property float x
property float y
property float z
property uchar red
property uchar green
property uchar blue
element face 12
property list uchar int vertex_indices
end_header
-0.00000 -0.00000 -0.00000 0.00000 100.00000 155.00000
0.20000 0.16000 0.20000 0.00000 100.00000 155.00000
0.20000 -0.16000 0.20000 0.00000 100.00000 155.00000
-0.20000 -0.16000 0.20000 0.00000 100.00000 155.00000
-0.20000 0.16000 0.20000 0.00000 100.00000 155.00000
0.99072 -0.05419 -0.12462 0.00000 100.00000 155.00000
1.11186 0.12049 0.12118 0.00000 100.00000 155.00000
1.11902 -0.19907 0.13644 0.00000 100.00000 155.00000
0.74052 -0.21369 0.00789 0.00000 100.00000 155.00000
0.73336 0.10586 -0.00737 0.00000 100.00000 155.00000
1.93877 0.00935 0.68191 0.00000 100.00000 155.00000
1.93756 0.17889 0.95914 0.00000 100.00000 155.00000
1.96751 -0.13954 0.96932 0.00000 100.00000 155.00000
1.67249 -0.17586 0.70166 0.00000 100.00000 155.00000
1.64253 0.14258 0.69148 0.00000 100.00000 155.00000
3 0 1 2
3 0 2 3
3 0 3 4
3 0 4 1
3 5 6 7
3 5 7 8
3 5 8 9
3 5 9 6
3 10 11 12
3 10 12 13
3 10 13 14
3 10 14 11
