ply
format ascii 1.0
element vertex 15
property float x
property float y
property float z
property uchar red
property uchar green
property uchar blue
element face 12
property list uchar int vertex_indices
end_header
-0.00000 -0.00000 -0.00000 0.00000 100.00000 155.00000
0.20000 0.16000 0.20000 0.00000 100.00000 155.00000
0.20000 -0.16000 0.20000 0.00000 100.00000 155.00000
-0.20000 -0.16000 0.20000 0.00000 100.00000 155.00000
-0.20000 0.16000 0.20000 0.00000 100.00000 155.00000
-1.51279 0.20257 0.65259 0.00000 100.00000 155.00000
-1.39166 0.37725 0.89839 0.00000 100.00000 155.00000
-1.38450 0.05770 0.91365 0.00000 100.00000 155.00000
-1.76300 0.04307 0.78510 0.00000 100.00000 155.00000
-1.77016 0.36263 0.76984 0.00000 100.00000 155.00000
1.53968 0.03601 0.35123 0.00000 100.00000 155.00000
1.60667 0.20487 0.62068 0.00000 100.00000 155.00000
1.62361 -0.11463 0.62667 0.00000 100.00000 155.00000
1.27598 -0.13675 0.43005 0.00000 100.00000 155.00000
1.25903 0.18275 0.42406 0.00000 100.00000 155.00000
3 0 1 2
3 0 2 3
3 0 3 4
3 0 4 1
3 5 6 7
3 5 7 8
3 5 8 9
3 5 9 6
3 10 11 12
3 10 12 13
3 10 13 14
3 10 14 11
