ply
format ascii 1.0
element vertex 15
property float x
property float y
property float z
property uchar red
property uchar green
property uchar blue
element face 12
property list uchar int vertex_indices
end_header
0.00000 0.00000 0.00000 0.00000 255.00000 0.00000
0.20000 0.16000 0.20000 0.00000 255.00000 0.00000
0.20000 -0.16000 0.20000 0.00000 255.00000 0.00000
-0.20000 -0.16000 0.20000 0.00000 255.00000 0.00000
-0.20000 0.16000 0.20000 0.00000 255.00000 0.00000
0.97889 -0.02262 0.20312 0.00000 255.00000 0.00000
1.10002 0.15206 0.44892 0.00000 255.00000 0.00000
1.10719 -0.16749 0.46418 0.00000 255.00000 0.00000
0.72869 -0.18212 0.33563 0.00000 255.00000 0.00000
0.72153 0.13744 0.32037 0.00000 255.00000 0.00000
1.88409 0.03265 0.58273 0.00000 255.00000 0.00000
1.89151 0.19916 0.86168 0.00000 255.00000 0.00000
1.92369 -0.11917 0.86730 0.00000 255.00000 0.00000
1.61975 -0.15444 0.60967 0.00000 255.00000 0.00000
1.58757 0.16388 0.60405 0.00000 255.00000 0.00000
3 0 1 2
3 0 2 3
3 0 3 4
3 0 4 1
3 5 6 7
3 5 7 8
3 5 8 9
3 5 9 6
3 10 11 12
3 10 12 13
3 10 13 14
3 10 14 11
