ply
format ascii 1.0
element vertex 15
property float x
property float y
property float z
property uchar red
property uchar green
property uchar blue
element face 12
property list uchar int vertex_indices
end_header
0.00000 0.00000 0.00000 0.00000 255.00000 0.00000
0.20000 0.16000 0.20000 0.00000 255.00000 0.00000
0.20000 -0.16000 0.20000 0.00000 255.00000 0.00000
-0.20000 -0.16000 0.20000 0.00000 255.00000 0.00000
-0.20000 0.16000 0.20000 0.00000 255.00000 0.00000
4.95646 -0.49005 -0.43978 0.00000 255.00000 0.00000
5.13090 -0.32163 -0.22343 0.00000 255.00000 0.00000
5.13386 -0.64146 -0.21350 0.00000 255.00000 0.00000
4.73648 -0.64655 -0.25890 0.00000 255.00000 0.00000
4.73352 -0.32672 -0.26883 0.00000 255.00000 0.00000
7.87262 -0.34339 -0.54854 0.00000 255.00000 0.00000
8.02589 -0.18066 -0.31268 0.00000 255.00000 0.00000
8.03233 -0.50060 -0.31321 0.00000 255.00000 0.00000
7.64030 -0.50836 -0.39229 0.00000 255.00000 0.00000
7.63386 -0.18843 -0.39176 0.00000 255.00000 0.00000
3 0 1 2
3 0 2 3
3 0 3 4
3 0 4 1
3 5 6 7
3 5 7 8
3 5 8 9
3 5 9 6
3 10 11 12
3 10 12 13
3 10 13 14
3 10 14 11
