ply
format ascii 1.0
element vertex 15
property float x
property float y
property float z
property uchar red
property uchar green
property uchar blue
element face 12
property list uchar int vertex_indices
end_header
0.00000 0.00000 0.00000 0.00000 255.00000 0.00000
0.20000 0.16000 0.20000 0.00000 255.00000 0.00000
0.20000 -0.16000 0.20000 0.00000 255.00000 0.00000
-0.20000 -0.16000 0.20000 0.00000 255.00000 0.00000
-0.20000 0.16000 0.20000 0.00000 255.00000 0.00000
4.93962 -0.70831 0.31373 0.00000 255.00000 0.00000
5.11391 -0.53818 0.52885 0.00000 255.00000 0.00000
5.11732 -0.85793 0.54097 0.00000 255.00000 0.00000
4.71993 -0.86388 0.49575 0.00000 255.00000 0.00000
4.71652 -0.54412 0.48364 0.00000 255.00000 0.00000
-7.83358 0.11834 1.05240 0.00000 255.00000 0.00000
-7.59536 0.27659 1.20671 0.00000 255.00000 0.00000
-7.60080 -0.04333 1.21138 0.00000 255.00000 0.00000
-7.99288 -0.03551 1.29021 0.00000 255.00000 0.00000
-7.98744 0.28441 1.28554 0.00000 255.00000 0.00000
3 0 1 2
3 0 2 3
3 0 3 4
3 0 4 1
3 5 6 7
3 5 7 8
3 5 8 9
3 5 9 6
3 10 11 12
3 10 12 13
3 10 13 14
3 10 14 11
