ply
format ascii 1.0
element vertex 50
property float x
property float y
property float z
property uchar red
property uchar green
property uchar blue
element face 40
property list uchar int vertex_indices
end_header
4.00000 1.00000 0.00000 0.00000 255.00000 0.00000
5.00000 2.00000 0.80000 0.00000 255.00000 0.00000
5.00000 2.00000 -0.80000 0.00000 255.00000 0.00000
3.00000 2.00000 -0.80000 0.00000 255.00000 0.00000
3.00000 2.00000 0.80000 0.00000 255.00000 0.00000
3.23607 1.00000 2.35114 0.00000 255.00000 0.00000
3.57486 2.00000 3.58614 0.00000 255.00000 0.00000
4.51531 2.00000 2.29171 0.00000 255.00000 0.00000
2.89728 2.00000 1.11614 0.00000 255.00000 0.00000
1.95682 2.00000 2.41057 0.00000 255.00000 0.00000
1.23607 1.00000 3.80423 0.00000 255.00000 0.00000
0.78424 2.00000 5.00250 0.00000 255.00000 0.00000
2.30593 2.00000 4.50807 0.00000 255.00000 0.00000
1.68790 2.00000 2.60596 0.00000 255.00000 0.00000
0.16621 2.00000 3.10038 0.00000 255.00000 0.00000
-1.23607 1.00000 3.80423 0.00000 255.00000 0.00000
-2.30593 2.00000 4.50807 0.00000 255.00000 0.00000
-0.78424 2.00000 5.00250 0.00000 255.00000 0.00000
-0.16621 2.00000 3.10038 0.00000 255.00000 0.00000
-1.68790 2.00000 2.60596 0.00000 255.00000 0.00000
-3.23607 1.00000 2.35114 0.00000 255.00000 0.00000
-4.51531 2.00000 2.29171 0.00000 255.00000 0.00000
-3.57486 2.00000 3.58614 0.00000 255.00000 0.00000
-1.95682 2.00000 2.41057 0.00000 255.00000 0.00000
-2.89728 2.00000 1.11614 0.00000 255.00000 0.00000
-4.00000 1.00000 0.00000 0.00000 255.00000 0.00000
-5.00000 2.00000 -0.80000 0.00000 255.00000 0.00000
-5.00000 2.00000 0.80000 0.00000 255.00000 0.00000
-3.00000 2.00000 0.80000 0.00000 255.00000 0.00000
-3.00000 2.00000 -0.80000 0.00000 255.00000 0.00000
-3.23607 1.00000 -2.35114 0.00000 255.00000 0.00000
-3.57486 2.00000 -3.58614 0.00000 255.00000 0.00000
-4.51531 2.00000 -2.29171 0.00000 255.00000 0.00000
-2.89728 2.00000 -1.11614 0.00000 255.00000 0.00000
-1.95682 2.00000 -2.41057 0.00000 255.00000 0.00000
-1.23607 1.00000 -3.80423 0.00000 255.00000 0.00000
-0.78424 2.00000 -5.00250 0.00000 255.00000 0.00000
-2.30593 2.00000 -4.50807 0.00000 255.00000 0.00000
-1.68790 2.00000 -2.60596 0.00000 255.00000 0.00000
-0.16621 2.00000 -3.10038 0.00000 255.00000 0.00000
1.23607 1.00000 -3.80423 0.00000 255.00000 0.00000
2.30593 2.00000 -4.50807 0.00000 255.00000 0.00000
0.78424 2.00000 -5.00250 0.00000 255.00000 0.00000
0.16621 2.00000 -3.10038 0.00000 255.00000 0.00000
1.68790 2.00000 -2.60596 0.00000 255.00000 0.00000
3.23607 1.00000 -2.35114 0.00000 255.00000 0.00000
4.51531 2.00000 -2.29171 0.00000 255.00000 0.00000
3.57486 2.00000 -3.58614 0.00000 255.00000 0.00000
1.95682 2.00000 -2.41057 0.00000 255.00000 0.00000
2.89728 2.00000 -1.11614 0.00000 255.00000 0.00000
3 0 1 2
3 0 2 3
3 0 3 4
3 0 4 1
3 5 6 7
3 5 7 8
3 5 8 9
3 5 9 6
3 10 11 12
3 10 12 13
3 10 13 14
3 10 14 11
3 15 16 17
3 15 17 18
3 15 18 19
3 15 19 16
3 20 21 22
3 20 22 23
3 20 23 24
3 20 24 21
3 25 26 27
3 25 27 28
3 25 28 29
3 25 29 26
3 30 31 32
3 30 32 33
3 30 33 34
3 30 34 31
3 35 36 37
3 35 37 38
3 35 38 39
3 35 39 36
3 40 41 42
3 40 42 43
3 40 43 44
3 40 44 41
3 45 46 47
3 45 47 48
3 45 48 49
3 45 49 46
