ply
format ascii 1.0
element vertex 30
property float x
property float y
property float z
property uchar red
property uchar green
property uchar blue
element face 24
property list uchar int vertex_indices
end_header
-0.00000 -0.00000 -0.00000 0.00000 100.00000 155.00000
0.20000 0.16000 0.20000 0.00000 100.00000 155.00000
0.20000 -0.16000 0.20000 0.00000 100.00000 155.00000
-0.20000 -0.16000 0.20000 0.00000 100.00000 155.00000
-0.20000 0.16000 0.20000 0.00000 100.00000 155.00000
0.81141 -0.09406 -0.57686 0.00000 100.00000 155.00000
0.99617 0.07171 -0.36714 0.00000 100.00000 155.00000
0.99648 -0.24818 -0.35870 0.00000 100.00000 155.00000
0.59754 -0.24933 -0.38779 0.00000 100.00000 155.00000
0.59723 0.07056 -0.39623 0.00000 100.00000 155.00000
5.25956 -0.34576 0.70918 0.00000 100.00000 155.00000
5.33258 -0.17208 0.97395 0.00000 100.00000 155.00000
5.34213 -0.49165 0.98756 0.00000 100.00000 155.00000
4.99253 -0.51034 0.79409 0.00000 100.00000 155.00000
4.98298 -0.19077 0.78047 0.00000 100.00000 155.00000
6.74798 0.28844 3.51736 0.00000 100.00000 155.00000
6.71748 0.44568 3.80011 0.00000 100.00000 155.00000
6.75040 0.12737 3.79958 0.00000 100.00000 155.00000
6.48344 0.10026 3.50294 0.00000 100.00000 155.00000
6.45053 0.41856 3.50346 0.00000 100.00000 155.00000
6.43798 0.24940 3.84711 0.00000 100.00000 155.00000
6.41980 0.42150 4.12216 0.00000 100.00000 155.00000
6.44809 0.10310 4.13710 0.00000 100.00000 155.00000
6.17041 0.06505 3.85171 0.00000 100.00000 155.00000
6.14213 0.38344 3.83676 0.00000 100.00000 155.00000
6.59939 0.26544 3.72833 0.00000 100.00000 155.00000
6.55791 0.45404 3.98969 0.00000 100.00000 155.00000
6.59361 0.13827 4.02732 0.00000 100.00000 155.00000
6.33716 0.07352 3.72725 0.00000 100.00000 155.00000
6.30146 0.38928 3.68962 0.00000 100.00000 155.00000
3 0 1 2
3 0 2 3
3 0 3 4
3 0 4 1
3 5 6 7
3 5 7 8
3 5 8 9
3 5 9 6
3 10 11 12
3 10 12 13
3 10 13 14
3 10 14 11
3 15 16 17
3 15 17 18
3 15 18 19
3 15 19 16
3 20 21 22
3 20 22 23
3 20 23 24
3 20 24 21
3 25 26 27
3 25 27 28
3 25 28 29
3 25 29 26
