ply
format ascii 1.0
element vertex 41
property float x
property float y
property float z
property int red
property int blue
property int green
end_header
-0.8707376 0.11191866 2.0997632 100 100 155
-0.6607858 0.04667326 2.233218 100 100 155
-0.63861686 0.40969193 2.1637921 100 100 155
-0.6339427 0.43000504 2.1652255 100 100 155
-0.8291731 -0.4877098 2.91208 100 100 155
-0.553776 0.1828451 2.6908672 100 100 155
-0.57933736 -0.4973394 3.155415 100 100 155
-0.49546027 0.08879486 2.7697425 100 100 155
-0.41192013 0.2873845 2.757045 100 100 155
-0.38510397 0.2896806 2.7690637 100 100 155
-0.39500597 -0.46999332 3.246122 100 100 155
-0.2837081 -0.36592853 3.1996286 100 100 155
-0.15888521 -0.83503014 3.4766238 100 100 155
-0.09813491 -0.08443678 2.9160404 100 100 155
-0.023592923 0.40542233 2.8682814 100 100 155
0.00014183528 0.40231067 2.8803608 100 100 155
0.10008251 0.031941235 2.991746 100 100 155
0.13917848 -0.004797169 3.0137508 100 100 155
0.333189 0.367713 3.1285906 100 100 155
0.34924304 0.28305036 3.1474636 100 100 155
0.36047065 0.3563187 3.131411 100 100 155
0.3621685 0.3824626 3.1364586 100 100 155
0.47313413 -0.22281633 3.4364944 100 100 155
0.47739235 -0.22839324 3.4418304 100 100 155
0.5071859 0.40433863 3.199111 100 100 155
0.5219018 0.04345836 3.2810671 100 100 155
0.5397774 0.36752412 3.2165372 100 100 155
0.5571021 0.38791525 3.2268693 100 100 155
0.8892171 -0.07820318 3.0257826 100 100 155
0.9513806 0.068459906 3.0570269 100 100 155
0.945649 0.29238707 3.016488 100 100 155
0.94589674 0.4731936 2.9762142 100 100 155
1.0204004 0.3087619 3.0347617 100 100 155
1.0957459 0.17747276 3.1012714 100 100 155
1.1005298 0.39288214 3.0648575 100 100 155
1.124388 0.17890526 3.1126192 100 100 155
1.1113857 0.46092513 3.0591235 100 100 155
1.1024202 0.5658103 3.033223 100 100 155
1.1124487 0.52508426 3.0469747 100 100 155
1.1384622 0.33831936 3.091096 100 100 155
1.1159688 0.61534125 3.0182352 100 100 155
