ply
format ascii 1.0
element vertex 80
property float x
property float y
property float z
property int red
property int blue
property int green
end_header
-0.8680384 0.3998427 2.033222 100 100 155
-0.8707376 0.11191866 2.0997632 100 100 155
-0.874664 -0.00061993086 2.1205287 100 100 155
-0.75027895 0.48282307 2.0823917 100 100 155
-0.7519542 0.4405644 2.0940626 100 100 155
-0.709748 -0.049488798 2.2257435 100 100 155
-0.7096898 -0.061466113 2.2328212 100 100 155
-0.698235 0.105885744 2.1982868 100 100 155
-0.67967415 0.4264409 2.1375933 100 100 155
-0.6732974 0.09054219 2.215978 100 100 155
-0.63861686 0.40969193 2.1637921 100 100 155
-0.63699484 0.27367985 2.1939528 100 100 155
-0.63699484 0.27367985 2.1939528 100 100 155
-0.67423725 -0.18495326 2.7081122 100 100 155
-0.6588889 -0.20034663 2.717664 100 100 155
-0.6116943 -0.26857382 2.8973753 100 100 155
-0.5469266 -0.09682471 2.7657678 100 100 155
-0.57933736 -0.4973394 3.155415 100 100 155
-0.49546027 0.08879486 2.7697425 100 100 155
-0.49546027 0.08879486 2.7697425 100 100 155
-0.41522664 0.32626665 2.7406719 100 100 155
-0.41784176 0.19305132 2.7722814 100 100 155
-0.41192013 0.2873845 2.757045 100 100 155
-0.41046098 0.22083266 2.7672086 100 100 155
-0.39847767 0.27621242 2.7627463 100 100 155
-0.38510397 0.2896806 2.7690637 100 100 155
-0.3802631 0.2140373 2.7833228 100 100 155
-0.36835098 0.25996816 2.7796953 100 100 155
-0.39500597 -0.46999332 3.246122 100 100 155
-0.2837081 -0.36592853 3.1996286 100 100 155
-0.28545034 -0.52225477 3.2309992 100 100 155
-0.16459195 -0.83758295 3.4698195 100 100 155
-0.16404492 -0.7719923 3.4601111 100 100 155
-0.16127759 -0.83877563 3.4761992 100 100 155
-0.15888521 -0.83503014 3.4766238 100 100 155
-0.10675586 -0.050163087 2.8778107 100 100 155
-0.104163535 0.0011138807 2.887904 100 100 155
-0.104163535 0.0011138807 2.887904 100 100 155
-0.03731421 0.40503627 2.8611138 100 100 155
-0.0284959 0.40049246 2.8661945 100 100 155
0.002211412 -0.23546723 2.9953644 100 100 155
0.04693164 -0.51778185 3.4007268 100 100 155
0.049083084 -0.47085232 3.386767 100 100 155
0.13917848 -0.004797169 3.0137508 100 100 155
0.3450206 -0.41867122 3.5799317 100 100 155
0.31037733 0.022397472 3.1848 100 100 155
0.333189 0.367713 3.1285906 100 100 155
0.3599518 0.16741768 3.1759787 100 100 155
0.36047065 0.3563187 3.131411 100 100 155
0.3621685 0.3824626 3.1364586 100 100 155
0.4402039 -0.4687894 3.6650722 100 100 155
0.47313413 -0.22281633 3.4364944 100 100 155
0.5071859 0.40433863 3.199111 100 100 155
0.5397774 0.36752412 3.2165372 100 100 155
0.553304 0.08695063 3.2858396 100 100 155
0.65502 -0.021817297 3.3558393 100 100 155
0.68466526 0.33004716 3.2900352 100 100 155
0.80045813 -0.47721073 3.7226298 100 100 155
0.871774 0.01771679 3.029512 100 100 155
0.8904923 0.55786514 2.9344702 100 100 155
0.9513806 0.068459906 3.0570269 100 100 155
0.95587534 0.04296263 3.0614796 100 100 155
0.9471672 0.2699445 3.0149336 100 100 155
0.94804364 0.3192129 3.0106494 100 100 155
0.9446806 0.38981828 2.9926968 100 100 155
0.94589674 0.4731936 2.9762142 100 100 155
0.94791836 0.6083957 2.9454494 100 100 155
0.94791836 0.6083957 2.9454494 100 100 155
0.98114794 0.23354076 3.0368893 100 100 155
0.9757132 0.4759549 2.9950821 100 100 155
1.0957459 0.17747276 3.1012714 100 100 155
1.0865155 0.25111192 3.0745435 100 100 155
1.124388 0.17890526 3.1126192 100 100 155
1.1113857 0.46092513 3.0591235 100 100 155
1.1024202 0.5658103 3.033223 100 100 155
1.1384622 0.33831936 3.091096 100 100 155
1.1589574 0.118602715 3.1398323 100 100 155
1.1159688 0.61534125 3.0182352 100 100 155
1.1690124 0.05589703 3.1560645 100 100 155
1.2322497 -0.05411326 3.1826992 100 100 155
