ply
format ascii 1.0
element vertex 629
property float x
property float y
property float z
property int red
property int blue
property int green
end_header
-2.6589649 -0.59301573 6.17802 100 100 155
-2.656186 -0.5840106 6.1767735 100 100 155
-2.5305226 0.43953303 5.9750085 100 100 155
-2.5358279 0.1685389 6.0338225 100 100 155
-2.5877976 -0.30342704 6.152972 100 100 155
-2.5525987 0.0051729823 6.0771728 100 100 155
-2.5555809 -0.14147115 6.1079803 100 100 155
-2.5565696 -0.24719997 6.124427 100 100 155
-2.5405567 -0.12046305 6.0973005 100 100 155
-2.5630312 -0.42381495 6.158819 100 100 155
-2.438649 0.87929213 5.887153 100 100 155
-2.551409 -0.34614566 6.151516 100 100 155
-2.4877782 0.3499704 6.0194616 100 100 155
-2.5115454 -0.13143139 6.107488 100 100 155
-2.399306 0.7845478 5.893843 100 100 155
-2.3689203 1.1624935 5.8334227 100 100 155
-2.4963396 -0.1612576 6.1379895 100 100 155
-2.4963396 -0.1612576 6.1379895 100 100 155
-2.3925636 0.7119749 5.941766 100 100 155
-2.4512506 0.08771213 6.085851 100 100 155
-2.4525301 0.12407872 6.094812 100 100 155
-2.3707001 0.8740328 5.909466 100 100 155
-2.4673998 -0.18420188 6.139534 100 100 155
-2.3876338 0.62557536 5.9640512 100 100 155
-2.3504555 0.8865208 5.914879 100 100 155
-2.382275 0.35390002 6.0096116 100 100 155
-2.3597558 0.6811606 5.961745 100 100 155
-2.3681436 0.45295915 6.017177 100 100 155
-2.327048 0.80865 5.937321 100 100 155
-2.2803814 1.1575582 5.868685 100 100 155
-2.326707 0.4701666 6.028011 100 100 155
-2.391454 -0.33776295 6.1929984 100 100 155
-2.3666933 -0.13088594 6.1526685 100 100 155
-2.3666933 -0.13088594 6.1526685 100 100 155
-2.3067489 0.44771802 6.0187693 100 100 155
-2.3722446 -0.2331061 6.182866 100 100 155
-2.2457945 1.1169375 5.8674736 100 100 155
-2.3208857 0.21613994 6.0863514 100 100 155
-2.385274 -0.58382595 6.264767 100 100 155
-2.2292147 1.0822154 5.914022 100 100 155
-2.36727 -0.57118756 6.2627034 100 100 155
-2.3606522 -0.59597033 6.2795916 100 100 155
-2.3478491 -0.6008339 6.284694 100 100 155
-2.4696476 -1.2313224 6.6989207 100 100 155
-2.3144407 -0.8520737 6.3342776 100 100 155
-2.3144407 -0.8520737 6.3342776 100 100 155
-2.2907424 -0.82022285 6.305211 100 100 155
-2.28975 -0.85912734 6.3201365 100 100 155
-2.2574701 -0.15569082 6.2493725 100 100 155
-2.191702 0.15552388 6.182237 100 100 155
-2.203103 -0.3112357 6.2333007 100 100 155
-2.387091 -1.4031581 6.8539577 100 100 155
-2.1921785 -0.91327137 6.365449 100 100 155
-2.1855726 -0.9183212 6.3523345 100 100 155
-2.3837035 -1.5707175 6.94588 100 100 155
-2.3561077 -1.6499324 6.983502 100 100 155
-2.1016989 -0.08883498 6.2469325 100 100 155
-2.3032978 -1.3646064 6.8430624 100 100 155
-2.1088152 -0.5606808 6.3356028 100 100 155
-2.026332 0.43817323 6.097174 100 100 155
-2.087206 -0.5330673 6.283509 100 100 155
-2.1174037 -0.8432576 6.385699 100 100 155
-2.100989 -0.7058958 6.390302 100 100 155
-1.9954128 0.59025735 6.0879254 100 100 155
-1.975591 0.78277487 6.074387 100 100 155
-1.9857186 0.53776467 6.121695 100 100 155
-2.0078044 -0.11288605 6.2556596 100 100 155
-2.0058923 -0.14767843 6.269476 100 100 155
-1.9401865 0.69413245 6.0802913 100 100 155
-2.0101352 -0.25362742 6.2954636 100 100 155
-1.975271 0.20447955 6.197415 100 100 155
-2.0120857 -0.34570664 6.321174 100 100 155
-1.9516181 0.1818059 6.21027 100 100 155
-1.945343 0.06903148 6.2299786 100 100 155
-2.087134 -1.0716317 6.7025633 100 100 155
-1.9136273 0.4758713 6.166849 100 100 155
-1.914581 0.23006462 6.1947007 100 100 155
-1.8830252 0.6500692 6.1249456 100 100 155
-1.903812 0.11854308 6.242107 100 100 155
-1.903812 0.11854308 6.242107 100 100 155
-1.9176359 -0.51932317 6.3015957 100 100 155
-1.8564594 0.7178889 6.1145873 100 100 155
-1.8553644 0.25878677 6.2111063 100 100 155
-1.8125597 0.871955 6.075271 100 100 155
-1.7970009 1.0905116 6.026023 100 100 155
-1.8794893 -0.117971376 6.294869 100 100 155
-1.8546978 -0.15175743 6.312996 100 100 155
-1.837094 0.1574796 6.264147 100 100 155
-1.8379056 0.1486005 6.2666817 100 100 155
-1.8071775 0.412997 6.1793637 100 100 155
-1.8449422 -0.19026802 6.331847 100 100 155
-1.7724795 0.71579033 6.1515555 100 100 155
-1.8036637 0.069685735 6.281968 100 100 155
-1.8230958 -0.25280145 6.3534517 100 100 155
-1.7528179 0.23433317 6.203287 100 100 155
-1.8412765 -0.6699057 6.51487 100 100 155
-1.778902 -0.5184175 6.357463 100 100 155
-1.8487093 -0.018022122 7.305668 100 100 155
-1.8669702 -0.60212046 7.452484 100 100 155
-1.8664649 -0.6356794 7.4606533 100 100 155
-1.8233896 -0.641506 7.473977 100 100 155
-1.8142617 -0.6752796 7.467177 100 100 155
-1.6751516 0.78498083 7.1758184 100 100 155
-1.9584674 -1.459716 8.412378 100 100 155
-1.7373109 -0.6404513 7.525195 100 100 155
-1.7144911 -0.38568476 7.451374 100 100 155
-1.7175698 -0.5703777 7.473095 100 100 155
-1.9423683 -1.5730103 8.44447 100 100 155
-1.670326 -0.26692188 7.3584585 100 100 155
-1.6581289 0.10454562 7.3539133 100 100 155
-1.6581289 0.10454562 7.3539133 100 100 155
-1.6512755 -0.054305557 7.400964 100 100 155
-1.8719842 -1.4425727 8.415047 100 100 155
-1.7430658 -0.77281857 7.852307 100 100 155
-1.7430658 -0.77281857 7.852307 100 100 155
-1.6216615 0.2904757 7.3400583 100 100 155
-1.8588762 -1.4345627 8.421877 100 100 155
-1.6185021 -0.061991658 7.379113 100 100 155
-1.8378701 -1.3599385 8.380848 100 100 155
-1.5849179 0.62418777 7.2576113 100 100 155
-1.8516519 -1.427915 8.4559965 100 100 155
-1.6138449 -0.09990454 7.392389 100 100 155
-1.6969594 -0.7501716 7.8528547 100 100 155
-1.4702846 1.1625355 7.145562 100 100 155
-1.5012022 0.6114942 7.2873187 100 100 155
-1.5124804 0.2905491 7.361618 100 100 155
-1.4793905 0.9799031 7.211127 100 100 155
-1.5265152 -0.11939852 7.4499583 100 100 155
-1.4227922 0.03664382 7.4462156 100 100 155
-1.6075498 -1.3677996 8.475011 100 100 155
-1.3228261 0.17639966 7.521065 100 100 155
-1.4959496 -1.3383485 8.487901 100 100 155
-1.3141838 -0.6020093 7.6253767 100 100 155
-1.2792977 -0.22974229 7.5176344 100 100 155
-1.2533464 -0.25075984 7.5166583 100 100 155
-1.2600526 -0.5303128 7.648495 100 100 155
-1.2518897 -0.5086205 7.647729 100 100 155
-1.1791371 0.13162687 7.511629 100 100 155
-1.1704289 0.18323131 7.506421 100 100 155
-1.3415442 -1.389295 8.604007 100 100 155
-1.1428612 0.3468273 7.4643464 100 100 155
-1.1569563 0.023458906 7.550874 100 100 155
-1.108796 1.2137222 7.2731714 100 100 155
-1.1419245 0.20645292 7.522959 100 100 155
-1.109458 0.68300056 7.367112 100 100 155
-1.109458 0.68300056 7.367112 100 100 155
-1.2674676 -1.3657141 8.584205 100 100 155
-1.2674676 -1.3657141 8.584205 100 100 155
-1.1181594 -0.18509312 7.6204033 100 100 155
-1.0782866 0.6169748 7.4302793 100 100 155
-1.1572957 -0.738514 8.051441 100 100 155
-0.9857008 1.4954631 6.907204 100 100 155
-1.0420961 0.6527631 7.4469523 100 100 155
-1.196714 -1.3727769 8.6286335 100 100 155
-1.037806 0.31303462 7.521332 100 100 155
-1.0109818 0.78995687 7.3905816 100 100 155
-1.0337976 0.2170341 7.546286 100 100 155
-1.0420024 0.028703174 7.6035295 100 100 155
-1.1630498 -1.3151876 8.577531 100 100 155
-1.0106199 0.48920083 7.477024 100 100 155
-1.0235418 -0.026142996 7.6015997 100 100 155
-1.1555665 -1.3395009 8.611619 100 100 155
-0.9664542 1.3661089 7.277163 100 100 155
-1.0118476 -0.05148491 7.612376 100 100 155
-1.1425245 -1.2852204 8.580235 100 100 155
-1.0039424 0.05924138 7.5731606 100 100 155
-1.0027041 -0.2107364 7.60004 100 100 155
-0.9862994 0.25702584 7.542246 100 100 155
-1.067928 -1.3557172 8.669286 100 100 155
-0.8965194 -0.04672929 7.6343074 100 100 155
-0.89801705 0.14245042 7.6725965 100 100 155
-0.8873011 -0.62709713 7.774289 100 100 155
-0.8531152 0.1480862 7.672985 100 100 155
-0.96610147 -1.3624289 8.69405 100 100 155
-0.95529944 -1.2948682 8.62493 100 100 155
-0.9460669 -1.3634781 8.70324 100 100 155
-0.82946295 -1.6450686 8.547234 100 100 155
-0.81807595 -1.6457052 8.551793 100 100 155
-0.800431 -1.0749791 8.464067 100 100 155
-0.7940095 -1.041779 8.459284 100 100 155
-0.783288 -1.0634655 8.468854 100 100 155
-0.7021764 -0.07791998 7.7234426 100 100 155
-0.78088987 -1.4804155 8.567296 100 100 155
-0.77519673 -1.6163191 8.566714 100 100 155
-0.6819494 0.587285 7.5702267 100 100 155
-0.7638627 -1.1017109 8.481316 100 100 155
-0.76622164 -1.0765425 8.506719 100 100 155
-0.7528632 -1.0636246 8.48625 100 100 155
-0.75258607 -1.0514498 8.483632 100 100 155
-0.66859466 0.37001288 7.619382 100 100 155
-0.7365397 -1.0670496 8.4663925 100 100 155
-0.739806 -1.1383247 8.503938 100 100 155
-0.73306555 -1.0897156 8.495938 100 100 155
-0.65003747 -0.053235207 7.7020993 100 100 155
-0.6235139 -0.14469436 7.664206 100 100 155
-0.59936786 0.6083038 7.4874473 100 100 155
-0.59431523 -0.18562384 7.6316714 100 100 155
-0.6404844 -1.3360813 8.786791 100 100 155
-0.6303438 -1.1820068 8.648793 100 100 155
-0.5388669 -0.17525256 7.5892816 100 100 155
-0.51716715 0.49702573 7.443815 100 100 155
-0.48765466 1.4249051 7.189926 100 100 155
-0.44835615 0.8236147 7.377623 100 100 155
-0.46437502 -0.06962271 7.655149 100 100 155
-0.5114102 -1.9453605 8.960416 100 100 155
-0.4853836 -1.3561456 8.615768 100 100 155
-0.4031099 -0.077157594 7.5923414 100 100 155
-0.39448914 0.42063558 7.4945774 100 100 155
-0.3895405 -0.24580048 7.578275 100 100 155
-0.38249955 0.26041752 7.504884 100 100 155
-0.43997744 -1.3094933 8.598504 100 100 155
-0.3598416 -0.36400977 7.7226067 100 100 155
-0.40248066 -2.0271804 9.009771 100 100 155
-0.3702976 -1.4058774 8.697221 100 100 155
-0.30842435 0.5998629 7.4172606 100 100 155
-0.30967748 -0.06193564 7.608263 100 100 155
-0.31902307 -0.6757748 7.953469 100 100 155
-0.2848652 -0.10599406 7.646127 100 100 155
-0.27304852 0.39953357 7.5550756 100 100 155
-0.24850956 1.3387907 7.0591316 100 100 155
-0.25752762 1.2670653 7.3143744 100 100 155
-0.31281647 -1.92177 9.022724 100 100 155
-0.25705424 -0.41837174 7.7483783 100 100 155
-0.22987264 -0.40662053 7.7332673 100 100 155
-0.22678892 -0.092196815 7.6434393 100 100 155
-0.21057612 0.0509922 7.631103 100 100 155
-0.21166892 -1.5630469 8.827911 100 100 155
-0.17950928 0.024594182 7.647599 100 100 155
-0.18737526 -1.3189449 8.689927 100 100 155
-0.16162702 -0.27265364 7.652387 100 100 155
-0.16204168 -0.5893112 7.785517 100 100 155
-0.15616547 -0.24037689 7.6485553 100 100 155
-0.15616547 -0.24037689 7.6485553 100 100 155
-0.17480117 -1.2967315 8.662191 100 100 155
-0.14106245 0.78746754 7.4855366 100 100 155
-0.13658278 1.2917188 7.433849 100 100 155
-0.14595631 -0.5101224 7.7827854 100 100 155
-0.113413475 0.34500962 7.66954 100 100 155
-0.10554979 0.9344856 7.544358 100 100 155
-0.10688167 -0.76731354 7.852404 100 100 155
-0.09827789 -0.7581786 7.8276825 100 100 155
-0.09339086 -0.1708695 7.685115 100 100 155
-0.08828609 -0.8774238 7.8730145 100 100 155
-0.08262637 -0.82447064 7.865752 100 100 155
-0.07919166 -0.6205704 7.796882 100 100 155
-0.07469295 -0.9087765 7.859436 100 100 155
-0.071867526 -0.88093114 7.855593 100 100 155
-0.0659135 1.2089703 7.520333 100 100 155
-0.05554497 0.19666813 7.6868706 100 100 155
-0.048689928 -1.5545918 9.104525 100 100 155
-0.037411455 1.2616376 7.5043187 100 100 155
-0.035730086 0.7817278 7.529071 100 100 155
-0.019292252 1.0148364 7.4747834 100 100 155
-0.019292252 1.0148364 7.4747834 100 100 155
-0.020133127 0.9376771 7.580217 100 100 155
-0.014791134 0.94426155 7.579459 100 100 155
-0.0140593685 1.319893 7.4838285 100 100 155
-0.01362548 0.17458008 7.754768 100 100 155
-0.008577504 1.4046129 7.4928365 100 100 155
-0.0041686543 -0.7746717 7.8402963 100 100 155
-0.0033795785 -0.13441761 7.7327666 100 100 155
-0.0033795785 -0.13441761 7.7327666 100 100 155
0.0272621 1.1693398 7.5636144 100 100 155
0.039386548 -0.5778267 7.8485885 100 100 155
0.06346524 1.2460501 7.5228815 100 100 155
0.09208579 -1.2460357 8.784434 100 100 155
0.082072556 0.07834587 7.731754 100 100 155
0.10198149 -1.5792423 8.853087 100 100 155
0.10447828 -1.1614078 8.804834 100 100 155
0.111011885 -1.468283 8.8418455 100 100 155
0.111011885 -1.468283 8.8418455 100 100 155
0.12941788 -1.5598321 8.858943 100 100 155
0.12281551 -0.12321397 7.790582 100 100 155
0.14766844 -1.5276626 8.861241 100 100 155
0.15313436 -0.34971666 7.8538423 100 100 155
0.1544554 1.0206411 7.5657377 100 100 155
0.16087517 1.4145095 7.473032 100 100 155
0.17536534 0.74426025 7.587101 100 100 155
0.19267623 0.98169774 7.543398 100 100 155
0.25673437 -0.19587204 7.7975564 100 100 155
0.27309692 -0.21349302 7.801493 100 100 155
0.2939838 -0.32384703 7.9342937 100 100 155
0.3246814 -0.7334613 8.529559 100 100 155
0.28379264 1.4800819 6.8980894 100 100 155
0.3425435 -0.29254535 7.917764 100 100 155
0.34472913 0.011821547 7.8374057 100 100 155
0.35755232 -0.3376894 7.949954 100 100 155
0.41089168 -1.2221543 9.075258 100 100 155
0.41559356 -1.1738074 9.040444 100 100 155
0.42189738 -1.2580262 9.110387 100 100 155
0.3817097 -0.07279836 7.8802624 100 100 155
0.40354824 -0.20083654 7.831226 100 100 155
0.5469078 0.9227355 7.9421296 100 100 155
0.6408466 -1.1716467 9.098833 100 100 155
0.6503639 -1.178002 9.100334 100 100 155
0.6503639 -1.178002 9.100334 100 100 155
0.6176163 0.49687067 8.123582 100 100 155
0.618518 0.536837 7.953413 100 100 155
0.6615643 -0.49964696 8.262935 100 100 155
0.70101845 -0.12236753 8.155371 100 100 155
0.7366729 -0.27546525 8.273936 100 100 155
0.75330025 -0.21624632 8.265914 100 100 155
0.7930472 -0.60220295 8.638176 100 100 155
0.8483536 -1.2075846 9.207897 100 100 155
0.84861594 -1.1878358 9.176542 100 100 155
0.8609898 -1.2831107 9.275592 100 100 155
0.7743048 0.12969774 8.1841545 100 100 155
0.75958157 0.76764715 8.025874 100 100 155
0.78587604 0.89503235 8.037899 100 100 155
0.7883431 0.9849066 8.006207 100 100 155
0.8060348 0.118666664 8.194776 100 100 155
0.8167192 0.244274 8.159897 100 100 155
0.8155791 0.696495 8.088427 100 100 155
0.8198858 0.8807134 8.047714 100 100 155
0.8465979 0.67391175 8.119423 100 100 155
0.8512744 0.8144382 8.084209 100 100 155
0.9004354 -0.278065 8.366086 100 100 155
0.8801734 1.051005 8.041454 100 100 155
0.9039183 0.024219645 8.238158 100 100 155
0.88192147 1.154692 8.031381 100 100 155
0.8880811 1.390316 7.985193 100 100 155
0.9157779 0.26959208 8.21635 100 100 155
0.9283394 0.4457748 8.176249 100 100 155
0.93766457 0.073382705 8.259722 100 100 155
0.9246674 0.81807345 8.118207 100 100 155
0.9700485 -0.25898695 8.320528 100 100 155
0.9470316 0.8363529 8.117009 100 100 155
1.1007304 -1.4016645 9.41278 100 100 155
1.1082231 -1.4620727 9.448933 100 100 155
1.097687 -1.2194065 9.304389 100 100 155
0.95616114 1.0556035 8.076064 100 100 155
1.1111934 -1.5021915 9.39208 100 100 155
0.99569505 -0.48886037 8.392441 100 100 155
0.9200106 1.6976503 7.589143 100 100 155
1.0272301 -0.44009247 8.4132 100 100 155
0.9305662 1.715197 7.590785 100 100 155
1.1425629 -1.2076913 9.305362 100 100 155
1.0257876 -0.11097842 8.2603445 100 100 155
1.1633959 -1.2605404 9.369465 100 100 155
1.1633959 -1.2605404 9.369465 100 100 155
0.96400857 1.5894697 7.64979 100 100 155
1.0431253 -0.10659597 8.263612 100 100 155
1.0552429 0.12294324 8.269131 100 100 155
1.0449965 0.96663994 8.119342 100 100 155
1.0692179 -0.10946038 8.289262 100 100 155
1.0692179 -0.10946038 8.289262 100 100 155
1.0922753 -0.5277624 8.402692 100 100 155
1.0684422 0.89553005 8.127737 100 100 155
1.166099 -0.6562854 8.82931 100 100 155
1.0144545 1.6338528 7.652183 100 100 155
1.0144545 1.6338528 7.652183 100 100 155
1.0144545 1.6338528 7.652183 100 100 155
1.1680378 -0.67528975 8.774532 100 100 155
1.1241902 -0.49368608 8.424429 100 100 155
1.1773095 -0.6464519 8.798262 100 100 155
1.2020619 -0.6890428 8.802101 100 100 155
1.1474335 -0.16074517 8.297873 100 100 155
1.220217 -0.6888264 8.801749 100 100 155
1.2752188 -0.6458054 8.826249 100 100 155
1.2254487 -0.02634778 8.361873 100 100 155
1.2254487 -0.02634778 8.361873 100 100 155
1.2437146 -0.20407131 8.428061 100 100 155
1.2925258 0.0075368215 8.386727 100 100 155
1.2852846 0.46307263 8.30245 100 100 155
1.4402498 -1.0187414 9.176898 100 100 155
1.2921546 0.9001143 8.217227 100 100 155
1.2952496 0.6635832 8.238089 100 100 155
1.3081651 0.7600146 8.2294 100 100 155
1.5151135 -0.94641083 9.511295 100 100 155
1.3334248 0.20628715 8.371276 100 100 155
1.3218973 0.7362134 8.280036 100 100 155
1.3342683 0.29930374 8.340937 100 100 155
1.3068799 1.2450935 8.167401 100 100 155
1.3384643 0.41152152 8.330547 100 100 155
1.3416964 0.53488714 8.297457 100 100 155
1.3905114 -0.4295894 8.545684 100 100 155
1.3468239 0.7227416 8.258422 100 100 155
1.3755456 0.014211125 8.435157 100 100 155
1.3507528 1.0801898 8.229228 100 100 155
1.3507528 1.0801898 8.229228 100 100 155
1.3557221 1.2828354 8.190786 100 100 155
1.3744401 0.80686605 8.253914 100 100 155
1.3940529 0.36155695 8.338458 100 100 155
1.4094627 0.09752164 8.430055 100 100 155
1.5776868 -1.3622422 9.319331 100 100 155
1.4030083 0.9077788 8.271768 100 100 155
1.4181596 0.6107395 8.34533 100 100 155
1.4311752 0.46663338 8.353454 100 100 155
1.4221647 0.85924906 8.30088 100 100 155
1.5942497 -1.3316449 9.28493 100 100 155
1.4428375 1.2347184 8.221615 100 100 155
1.6377873 -1.2505215 9.279586 100 100 155
1.6377873 -1.2505215 9.279586 100 100 155
1.5074943 -0.45193696 8.541276 100 100 155
1.4812853 0.27739713 8.393999 100 100 155
1.5138365 -0.46532184 8.5447645 100 100 155
1.657976 -1.1577154 9.266331 100 100 155
1.4010354 1.5214049 7.8152146 100 100 155
1.4740771 1.4633688 8.206545 100 100 155
1.5233185 0.14672115 8.450432 100 100 155
1.5508108 -0.5016937 8.570083 100 100 155
1.8523841 -1.258085 9.987616 100 100 155
1.5773426 0.26685974 8.490911 100 100 155
1.8738233 -1.2079324 9.971578 100 100 155
1.880889 -1.2277538 10.009972 100 100 155
1.5682602 1.0737467 8.332656 100 100 155
1.6614201 0.18871182 8.517594 100 100 155
1.896979 -1.0316195 9.687391 100 100 155
1.7058698 -0.27558225 8.624357 100 100 155
1.9165326 -1.0129238 9.6858635 100 100 155
1.6902443 0.022457093 8.500066 100 100 155
1.6976607 -0.09788222 8.508128 100 100 155
1.681919 1.513882 8.229238 100 100 155
1.9223005 -1.3716363 9.387534 100 100 155
1.9334759 -1.2948885 9.442051 100 100 155
1.7204385 0.9296624 8.361406 100 100 155
1.7204385 0.9296624 8.361406 100 100 155
1.7692933 -0.13282494 8.528568 100 100 155
1.806107 0.107419014 8.536379 100 100 155
1.806107 0.107419014 8.536379 100 100 155
1.7816302 0.78639007 8.420746 100 100 155
1.7836552 0.8690612 8.417075 100 100 155
1.9987828 -1.2173419 9.398904 100 100 155
1.7703962 1.3419002 8.313633 100 100 155
1.8064618 0.6172915 8.456087 100 100 155
2.024802 -1.3742453 9.428221 100 100 155
1.79533 1.1380135 8.350035 100 100 155
1.8083612 0.96996075 8.383726 100 100 155
1.7996737 1.4696838 8.303143 100 100 155
2.0243084 -1.100309 9.32219 100 100 155
1.838218 0.15865351 8.454488 100 100 155
1.8339393 0.05479916 8.4343 100 100 155
1.8346354 0.70290124 8.398548 100 100 155
1.8488216 0.47572252 8.41034 100 100 155
1.8275896 1.4978466 8.300246 100 100 155
1.8275896 1.4978466 8.300246 100 100 155
2.0026114 -0.87368447 9.079442 100 100 155
1.8204534 1.6931647 8.24255 100 100 155
1.8223124 1.7809058 8.212209 100 100 155
1.8420085 1.4806604 8.301053 100 100 155
2.1055102 -1.3189075 9.470224 100 100 155
1.8557638 0.8590423 8.337444 100 100 155
1.8441448 1.5952324 8.247033 100 100 155
1.8585324 0.9123767 8.31194 100 100 155
2.1173487 -1.3173592 9.435779 100 100 155
2.07192 -1.075507 9.219814 100 100 155
2.077414 -1.0642307 9.133218 100 100 155
1.8844228 0.70121884 8.250126 100 100 155
1.8804542 0.8210441 8.195556 100 100 155
1.9459064 0.09021125 8.163721 100 100 155
1.9604477 -0.5369055 8.187002 100 100 155
1.9576342 -0.51733845 8.140299 100 100 155
1.9659057 0.16487543 8.106041 100 100 155
1.9552951 0.7933401 8.0509 100 100 155
1.976323 0.018036535 8.092243 100 100 155
1.9565853 -0.17879464 8.01043 100 100 155
1.9832346 0.28581384 8.051901 100 100 155
1.9729642 -0.21132167 7.987448 100 100 155
1.9835471 -0.2107525 7.963748 100 100 155
2.0038276 0.6537911 8.013984 100 100 155
1.9733139 1.5110778 7.879927 100 100 155
1.9820409 1.4637074 7.904074 100 100 155
2.0011067 0.5422698 7.9469275 100 100 155
2.0250394 -0.30722198 8.030665 100 100 155
2.0027978 0.87849987 7.9327393 100 100 155
2.2310243 -1.1904216 8.759727 100 100 155
2.0543053 -0.080532685 7.795789 100 100 155
2.1406593 -0.60171396 8.111572 100 100 155
2.0630481 0.8492331 7.820233 100 100 155
2.0771909 -0.080267265 7.7710166 100 100 155
2.0860214 -0.11656106 7.794436 100 100 155
2.0882897 -0.089688815 7.7929215 100 100 155
2.0904374 -0.052088886 7.7909727 100 100 155
2.0920784 -0.2726538 7.6297717 100 100 155
2.1158154 -0.20710565 7.707036 100 100 155
2.101413 0.659925 7.656265 100 100 155
2.3386211 -1.4029927 8.503872 100 100 155
2.0972254 -0.28573057 7.6293554 100 100 155
2.1116657 0.61617875 7.6547365 100 100 155
2.109574 -0.26978973 7.6265335 100 100 155
2.114646 0.5870051 7.6375556 100 100 155
2.1134703 0.68420416 7.6332884 100 100 155
2.0858765 1.6541283 7.5337367 100 100 155
2.1260133 0.47642395 7.659001 100 100 155
2.1389995 -0.08988846 7.657345 100 100 155
2.1125681 1.3363558 7.546151 100 100 155
2.2605658 -0.7113583 8.021733 100 100 155
2.4094932 -1.2683074 8.455276 100 100 155
2.1606982 0.54993546 7.550325 100 100 155
2.161054 0.43548924 7.5329566 100 100 155
2.1740866 0.512298 7.569757 100 100 155
2.1861627 0.58916223 7.5670347 100 100 155
2.444203 -1.1798099 8.414163 100 100 155
2.2142975 0.36045164 7.609308 100 100 155
2.1930292 0.45857945 7.5271006 100 100 155
2.2234218 0.26432982 7.6314816 100 100 155
2.191953 1.0665377 7.5066586 100 100 155
2.172864 1.3132201 7.441598 100 100 155
2.2452495 0.3246172 7.625431 100 100 155
2.2452495 0.3246172 7.625431 100 100 155
2.259324 0.23609924 7.6462564 100 100 155
2.271717 0.29269716 7.6442637 100 100 155
2.2710245 0.3123214 7.6414733 100 100 155
2.245493 0.84822184 7.547884 100 100 155
2.308785 -0.1319046 7.7489944 100 100 155
2.2855723 0.17878395 7.6635485 100 100 155
2.2797234 0.43838775 7.635548 100 100 155
2.3082206 -0.2719798 7.7112136 100 100 155
2.248327 1.1700208 7.4972544 100 100 155
2.3109162 0.047494166 7.7037234 100 100 155
2.510985 -1.0508537 8.367128 100 100 155
2.2452457 1.3123887 7.4527564 100 100 155
2.3990285 -0.5544693 7.9590254 100 100 155
2.3190396 0.57605284 7.644052 100 100 155
2.310235 0.8253248 7.5985627 100 100 155
2.3539953 0.06910336 7.714556 100 100 155
2.2865565 1.2874339 7.4874125 100 100 155
2.4031963 -0.3604118 7.8218694 100 100 155
2.2917616 1.406908 7.4624047 100 100 155
2.425021 -0.4655266 7.8835597 100 100 155
2.320946 1.0033062 7.548076 100 100 155
2.336256 0.8504101 7.5887775 100 100 155
2.420329 -0.501016 7.841949 100 100 155
2.3969135 -0.05537447 7.7498956 100 100 155
2.397374 -0.26261523 7.733638 100 100 155
2.397374 -0.26261523 7.733638 100 100 155
2.4089167 -0.17549372 7.7710247 100 100 155
2.3944583 0.17446844 7.7258325 100 100 155
2.4310284 -0.61382514 7.841208 100 100 155
2.3852954 0.40576786 7.679769 100 100 155
2.3762128 0.8244329 7.625312 100 100 155
2.3812277 0.61607385 7.633267 100 100 155
2.4331834 -0.20103337 7.7890744 100 100 155
2.3848522 0.8993159 7.603296 100 100 155
2.3876867 0.86266744 7.603976 100 100 155
2.4390783 0.099540904 7.757082 100 100 155
2.4911199 -0.58690023 7.8693237 100 100 155
2.4959915 -0.5203012 7.884051 100 100 155
2.3928492 1.1175474 7.5544553 100 100 155
2.502732 -0.63407373 7.888603 100 100 155
2.4381616 0.43819043 7.688216 100 100 155
2.4024932 1.2962302 7.5689435 100 100 155
2.403288 1.3497301 7.546961 100 100 155
2.4064305 1.4131874 7.5243692 100 100 155
2.4638665 1.0740604 7.605786 100 100 155
2.457076 1.3280766 7.5365467 100 100 155
2.4885569 1.5174206 7.6099215 100 100 155
2.574655 0.93500996 7.7102256 100 100 155
2.694003 -0.24724036 7.845713 100 100 155
2.694003 -0.24724036 7.845713 100 100 155
2.7138345 0.020652847 7.856748 100 100 155
2.7353835 -0.24314496 7.856321 100 100 155
2.7357829 0.17831032 7.8508806 100 100 155
2.7597754 0.26432136 7.8425937 100 100 155
2.7770896 0.07632297 7.8603373 100 100 155
2.8127377 -0.2560894 7.9592776 100 100 155
2.7808874 0.20427202 7.8558197 100 100 155
2.7832246 0.23120499 7.8548813 100 100 155
2.7663367 0.513698 7.7705836 100 100 155
2.788845 0.84624135 7.782058 100 100 155
2.817783 0.21087492 7.8461103 100 100 155
2.7987149 0.80583876 7.779652 100 100 155
2.8216095 0.3331638 7.841746 100 100 155
2.8364136 0.124266855 7.882049 100 100 155
2.7733562 1.1315848 7.6948485 100 100 155
2.8034644 0.82706106 7.778044 100 100 155
2.7294514 1.4968919 7.560251 100 100 155
2.7803698 1.2969091 7.693048 100 100 155
2.8440363 0.3021023 7.8369627 100 100 155
2.7999969 1.1936473 7.7105155 100 100 155
2.817044 0.9237592 7.7490344 100 100 155
2.9089782 -0.106967464 7.9769626 100 100 155
2.829603 0.96753204 7.747523 100 100 155
2.8255587 1.2100438 7.721994 100 100 155
2.9062068 -0.06858469 7.9321847 100 100 155
2.8614419 0.7468874 7.8046227 100 100 155
2.8407247 1.0186293 7.741216 100 100 155
2.809131 1.4169903 7.6421523 100 100 155
2.9476895 -0.15048927 7.9848948 100 100 155
2.937524 -0.20161572 7.9424005 100 100 155
2.912849 0.45949703 7.877255 100 100 155
2.9310296 0.20286757 7.918434 100 100 155
2.9260705 0.13183461 7.897456 100 100 155
2.9759414 -0.20147589 7.9500327 100 100 155
2.9309542 0.8646636 7.825732 100 100 155
3.0080667 -0.29544914 8.005829 100 100 155
2.9408424 0.70044065 7.8229156 100 100 155
2.9484563 0.5219658 7.8425264 100 100 155
3.0150769 -0.04071813 7.9818416 100 100 155
3.0274656 -0.06801301 7.999892 100 100 155
3.0274656 -0.06801301 7.999892 100 100 155
2.946852 1.0727179 7.776077 100 100 155
3.0437534 -0.23458353 7.9912653 100 100 155
3.0437534 -0.23458353 7.9912653 100 100 155
3.063446 -0.20015946 7.9857736 100 100 155
3.070435 -0.2273243 7.98237 100 100 155
3.0797858 -0.24350919 7.9780383 100 100 155
2.5497582 1.3103637 5.909974 100 100 155
3.4385822 0.23247804 7.883139 100 100 155
3.476655 -0.020555578 7.7137413 100 100 155
2.7926192 0.4492936 7.8064184 100 100 155
2.817783 0.21087492 7.8461103 100 100 155
2.8134649 0.6979374 7.79797 100 100 155
2.7957299 1.0324782 7.7350087 100 100 155
2.7999969 1.1936473 7.7105155 100 100 155
2.822248 0.9970991 7.7493253 100 100 155
2.9089782 -0.106967464 7.9769626 100 100 155
2.9062068 -0.06858469 7.9321847 100 100 155
2.8614419 0.7468874 7.8046227 100 100 155
2.809131 1.4169903 7.6421523 100 100 155
2.8563018 1.0851912 7.7412486 100 100 155
2.9476895 -0.15048927 7.9848948 100 100 155
2.9320557 0.028103434 7.943011 100 100 155
2.937524 -0.20161572 7.9424005 100 100 155
2.931043 0.1838703 7.9183946 100 100 155
2.9512033 0.079798706 7.935915 100 100 155
2.9467313 -0.22808148 7.915641 100 100 155
2.9408424 0.70044065 7.8229156 100 100 155
2.9268181 1.315882 7.7589626 100 100 155
3.0150769 -0.04071813 7.9818416 100 100 155
3.0437534 -0.23458353 7.9912653 100 100 155
3.0437534 -0.23458353 7.9912653 100 100 155
3.0656033 -0.27106246 7.9838843 100 100 155
3.070435 -0.2273243 7.98237 100 100 155
3.080472 -0.2577704 8.00111 100 100 155
3.0674195 -0.2186636 7.960365 100 100 155
3.0797858 -0.24350919 7.9780383 100 100 155
3.4385822 0.23247804 7.883139 100 100 155
3.4385822 0.23247804 7.883139 100 100 155
