ply
format ascii 1.0
element vertex 1023
property float x
property float y
property float z
property int red
property int blue
property int green
end_header
-4.2550387 1.7391781 9.827175 255 0 0
-4.226338 1.9074235 9.8195715 255 0 0
-4.2899404 0.29786876 10.110655 255 0 0
-4.3227763 -0.34424827 10.237369 255 0 0
-4.126045 2.2851684 9.756537 255 0 0
-4.3304396 -0.67015094 10.346235 255 0 0
-4.157091 1.4870656 9.92199 255 0 0
-4.156318 1.4227455 9.929468 255 0 0
-4.143959 1.5712601 9.9046955 255 0 0
-4.146886 1.1704737 9.976627 255 0 0
-4.146886 1.1704737 9.976627 255 0 0
-4.09927 1.9100593 9.872565 255 0 0
-4.10471 1.5450646 9.926669 255 0 0
-4.153686 0.95795923 10.053755 255 0 0
-4.1342373 1.0227073 10.022825 255 0 0
-4.210588 -0.032444615 10.222419 255 0 0
-4.147256 0.8150319 10.064951 255 0 0
-4.169803 0.34683478 10.131355 255 0 0
-4.1382394 0.83985907 10.059681 255 0 0
-4.043209 2.0465567 9.840754 255 0 0
-4.186297 -0.15653026 10.257545 255 0 0
-4.173411 -0.014092532 10.234789 255 0 0
-4.120822 0.5884885 10.112644 255 0 0
-4.1319256 0.53538686 10.140173 255 0 0
-4.140534 0.26903924 10.188164 255 0 0
-4.1222067 0.35853162 10.168761 255 0 0
-4.1416173 0.0963925 10.217212 255 0 0
-4.0719676 1.1405504 10.0381 255 0 0
-4.039712 1.632453 9.958327 255 0 0
-4.053453 1.1557864 10.034693 255 0 0
-4.026763 1.5532237 9.970492 255 0 0
-4.1370153 -0.062814824 10.258039 255 0 0
-3.9843824 2.065429 9.862833 255 0 0
-4.040251 1.1278964 10.04518 255 0 0
-4.0120745 1.6232493 9.975362 255 0 0
-4.0155015 1.161625 10.052053 255 0 0
-4.096624 -0.024469234 10.271831 255 0 0
-4.012228 1.1452929 10.0613 255 0 0
-4.110635 -0.26301923 10.333256 255 0 0
-3.9777372 1.3338872 10.032392 255 0 0
-4.0432825 0.36497617 10.207927 255 0 0
-4.0623417 0.01922865 10.29263 255 0 0
-4.027887 -0.6514514 10.211308 255 0 0
-3.943324 1.6311244 9.993109 255 0 0
-4.01179 0.57090116 10.198385 255 0 0
-3.942721 1.4666568 10.029383 255 0 0
-3.942721 1.4666568 10.029383 255 0 0
-4.045481 -0.64693075 10.319043 255 0 0
-3.951665 1.1438557 10.083657 255 0 0
-3.9987786 0.358784 10.237902 255 0 0
-3.948582 0.94796216 10.131902 255 0 0
-4.00253 0.16071528 10.284364 255 0 0
-3.9294806 0.9611431 10.127621 255 0 0
-3.907785 1.3899677 10.065549 255 0 0
-3.907785 1.3899677 10.065549 255 0 0
-3.9546921 0.55471724 10.214053 255 0 0
-3.8674142 1.9423431 9.967855 255 0 0
-3.8586912 2.0025933 9.961759 255 0 0
-3.9083977 0.9924965 10.126589 255 0 0
-3.9113114 1.0516158 10.133535 255 0 0
-3.9132035 0.75725377 10.186884 255 0 0
-3.8352149 1.9693851 9.990731 255 0 0
-3.8352149 1.9693851 9.990731 255 0 0
-3.9237628 0.30937895 10.272415 255 0 0
-3.9424987 6.9718517e-06 10.349823 255 0 0
-3.7895818 2.356557 9.924874 255 0 0
-3.9311209 0.019723158 10.348109 255 0 0
-3.9480972 -0.7122401 10.561881 255 0 0
-3.7312107 2.1994936 9.983798 255 0 0
-3.779302 1.8039386 10.122523 255 0 0
-3.8565922 -0.13405299 10.358133 255 0 0
-3.7813714 1.6505657 10.149743 255 0 0
-3.921787 -0.7060597 10.569386 255 0 0
-4.118077 -1.452012 11.090181 255 0 0
-3.802868 0.6175999 10.259193 255 0 0
-3.7861593 1.3435639 10.20577 255 0 0
-3.779512 1.3442798 10.197609 255 0 0
-3.7820737 1.3288177 10.214121 255 0 0
-3.9301784 1.3326721 10.634715 255 0 0
-3.7794197 1.1313133 10.2577095 255 0 0
-3.8399768 -0.343089 10.487312 255 0 0
-3.6993139 1.9137268 10.130183 255 0 0
-3.6441078 2.1825166 10.029425 255 0 0
-3.8593335 -1.1124798 10.653886 255 0 0
-3.8558307 -1.1296198 10.664249 255 0 0
-6.117198 2.5554202 17.091467 255 0 0
-3.6642704 1.2776697 10.279197 255 0 0
-3.6422179 1.1664604 10.308895 255 0 0
-4.008902 -1.7340003 11.3730345 255 0 0
-4.0210614 -1.7968829 11.407077 255 0 0
-3.5848897 1.8965405 10.18292 255 0 0
-3.6097877 0.6797553 10.292491 255 0 0
-3.5899456 1.5740999 10.233881 255 0 0
-3.673475 -0.63300997 10.546442 255 0 0
-3.6599686 -0.2699517 10.52005 255 0 0
-3.5685358 1.2886903 10.258395 255 0 0
-3.5034642 2.3882067 10.09796 255 0 0
-3.5100493 1.9754627 10.126877 255 0 0
-3.4903977 1.9971126 10.120672 255 0 0
-3.5138862 0.683907 10.3437805 255 0 0
-3.4594178 1.7745677 10.219783 255 0 0
-3.9518795 -2.135504 11.733122 255 0 0
-3.8945665 -2.0543737 11.696426 255 0 0
-3.4388769 1.1675518 10.338186 255 0 0
-3.4064028 1.603094 10.265043 255 0 0
-3.924576 -2.2283947 11.819939 255 0 0
-3.921541 -2.3351276 11.846525 255 0 0
-3.4749541 0.16899122 10.530204 255 0 0
-3.9167125 -2.290055 11.844793 255 0 0
-3.9126532 -2.2231297 11.8338995 255 0 0
-3.4269722 0.8543626 10.391738 255 0 0
-3.535494 -0.6786044 10.722256 255 0 0
-3.3979447 1.3134594 10.319668 255 0 0
-3.4842193 -0.09021813 10.591551 255 0 0
-3.901009 -2.2962816 11.847051 255 0 0
-3.901009 -2.2962816 11.847051 255 0 0
-3.9026773 -2.313016 11.851307 255 0 0
-3.4075873 1.0323205 10.385134 255 0 0
-3.408005 0.7903835 10.411028 255 0 0
-3.45431 -0.049246185 10.578058 255 0 0
-3.4207342 0.54134 10.474023 255 0 0
-3.3613138 1.6870575 10.277079 255 0 0
-3.9080966 -2.4971156 11.951928 255 0 0
-3.3924272 1.0013418 10.394042 255 0 0
-3.4155886 0.4726441 10.491555 255 0 0
-3.456959 -0.2193049 10.619529 255 0 0
-3.834288 -2.0991423 11.758262 255 0 0
-3.8990507 -2.5209565 11.949219 255 0 0
-3.3943567 0.8730747 10.423113 255 0 0
-3.3642235 1.3391389 10.335627 255 0 0
-3.337988 1.9614445 10.243182 255 0 0
-3.8835204 -2.4193547 11.942483 255 0 0
-3.4267554 0.03754669 10.57175 255 0 0
-3.3634367 1.1889641 10.3682785 255 0 0
-3.4333339 -0.0045360215 10.60329 255 0 0
-3.42586 0.10609013 10.580219 255 0 0
-3.4316134 -0.13574573 10.609112 255 0 0
-3.392763 0.5469891 10.498933 255 0 0
-3.8867514 -2.696785 12.009902 255 0 0
-3.8854156 -2.6778288 12.006329 255 0 0
-3.893883 -2.7263944 12.0307665 255 0 0
-3.893883 -2.7263944 12.0307665 255 0 0
-3.3920543 0.3999831 10.519793 255 0 0
-3.3259068 1.6451284 10.300006 255 0 0
-3.377459 0.576628 10.484539 255 0 0
-3.4562695 -0.6679275 10.751487 255 0 0
-3.4657989 -0.7125163 10.780804 255 0 0
-3.3273067 1.2400085 10.366476 255 0 0
-3.4187431 -0.22075476 10.659845 255 0 0
-3.403823 -0.15338697 10.636275 255 0 0
-3.367083 0.51598275 10.5427065 255 0 0
-3.386082 -0.033820633 10.626694 255 0 0
-3.39969 -0.44542867 10.726178 255 0 0
-3.2663777 1.6291234 10.324811 255 0 0
-3.2663777 1.6291234 10.324811 255 0 0
-3.4275503 0.023023503 10.91009 255 0 0
-3.267749 1.1049508 10.417565 255 0 0
-3.2664185 1.1898286 10.411893 255 0 0
-3.2814777 0.89453924 10.4868145 255 0 0
-3.2290177 1.670608 10.341652 255 0 0
-3.2822847 0.40925482 10.562305 255 0 0
-3.2935195 0.05014306 10.646876 255 0 0
-3.2935195 0.05014306 10.646876 255 0 0
-3.1721034 1.9896814 10.288587 255 0 0
-3.2864394 -0.1232914 10.6831045 255 0 0
-3.1837118 1.7080991 10.355597 255 0 0
-3.2417514 0.42641827 10.584405 255 0 0
-3.212044 0.9854875 10.494545 255 0 0
-3.1646461 1.8879079 10.336554 255 0 0
-3.1646461 1.8879079 10.336554 255 0 0
-3.22166 0.63572496 10.553195 255 0 0
-3.2341254 0.4269867 10.595209 255 0 0
-3.1803498 1.3533906 10.421284 255 0 0
-3.163485 1.6177164 10.37345 255 0 0
-3.195651 0.5845637 10.563419 255 0 0
-3.1669326 1.0127268 10.488782 255 0 0
-3.1372924 1.63236 10.3929615 255 0 0
-3.2256904 -0.4012539 10.712528 255 0 0
-3.144192 1.4616376 10.430449 255 0 0
-3.161939 0.88494146 10.509534 255 0 0
-3.1731756 0.58644974 10.56138 255 0 0
-3.17805 0.529082 10.57802 255 0 0
-3.192047 0.29998222 10.637835 255 0 0
-3.142432 1.2848766 10.4637 255 0 0
-3.1342149 1.2276522 10.448838 255 0 0
-3.2278657 -0.33128485 10.781681 255 0 0
-3.1434383 0.99048406 10.507218 255 0 0
-3.1834505 0.060478766 10.683126 255 0 0
-3.178457 0.22798017 10.666329 255 0 0
-3.1718116 0.25030184 10.656075 255 0 0
-3.158702 0.28413153 10.636564 255 0 0
-3.1229396 0.8745293 10.548797 255 0 0
-3.1960213 -0.37986594 10.79924 255 0 0
-3.1802216 -0.22187777 10.746463 255 0 0
-3.1407492 0.27303678 10.662646 255 0 0
-3.171039 -0.34236 10.777664 255 0 0
-3.1579611 -0.13187729 10.74643 255 0 0
-3.1640291 -0.42296144 10.81675 255 0 0
-3.1436276 -0.6565273 10.783603 255 0 0
-3.1204538 -0.00081615883 10.744672 255 0 0
-3.0570097 0.6030905 10.524255 255 0 0
-3.9639978 -2.306332 13.630734 255 0 0
-3.1087737 -0.62731814 10.79173 255 0 0
-3.2121563 2.3555171 12.033776 255 0 0
-3.2121563 2.3555171 12.033776 255 0 0
-3.2234137 1.1465989 12.253887 255 0 0
-3.2251856 0.92691267 12.295805 255 0 0
-3.1610074 2.3351202 12.060598 255 0 0
-3.166787 1.6358368 12.192229 255 0 0
-3.173759 1.460647 12.238662 255 0 0
-3.2339435 0.085723504 12.4973345 255 0 0
-3.170544 1.1661249 12.295015 255 0 0
-3.1766064 0.91185653 12.337448 255 0 0
-3.1995714 0.438004 12.429757 255 0 0
-3.2007198 0.17449714 12.485092 255 0 0
-3.1820529 -0.095463336 12.547212 255 0 0
-3.1099632 0.01771106 12.51771 255 0 0
-3.082053 -0.7997153 12.774811 255 0 0
-3.082053 -0.7997153 12.774811 255 0 0
-2.9938078 -0.7766197 12.83021 255 0 0
-2.9991364 -0.83266777 12.852717 255 0 0
-2.991982 -0.8318916 12.8410015 255 0 0
-2.98668 -0.8851613 12.85585 255 0 0
-52.30017 34.27061 225.28859 255 0 0
-3.65874 2.2653632 15.779778 255 0 0
-2.9723425 -0.880784 12.870473 255 0 0
-2.930677 -0.9149685 12.862429 255 0 0
-2.9266534 -0.8994686 12.883779 255 0 0
-45.407856 30.909851 201.58582 255 0 0
-45.407856 30.909851 201.58582 255 0 0
-45.43902 30.776903 202.33664 255 0 0
-2.646345 1.4041625 12.495482 255 0 0
-2.6942785 -0.2929394 12.731479 255 0 0
-2.6260169 0.8860593 12.609884 255 0 0
-2.6217813 0.91640115 12.610331 255 0 0
-2.5922444 1.2681302 12.5472 255 0 0
-2.6255403 0.2957399 12.737643 255 0 0
-2.6307924 0.01546825 12.806476 255 0 0
-2.6311376 -0.022405438 12.829722 255 0 0
-2.5739343 1.2930528 12.562848 255 0 0
-41.4687 28.908468 204.78851 255 0 0
-2.5738287 -0.016680669 12.830091 255 0 0
-2.5485716 -0.04687156 12.858486 255 0 0
-2.5161304 0.31556848 12.805407 255 0 0
-2.4551528 1.842708 12.500068 255 0 0
-2.4244957 -0.3975983 13.023738 255 0 0
-2.347865 0.029895341 12.874123 255 0 0
-2.3508005 -0.45917594 13.062256 255 0 0
-2.3552554 -0.81361705 13.110645 255 0 0
-2.3480659 -0.79562587 13.095833 255 0 0
-2.4815161 -2.1271596 14.734984 255 0 0
-2.1311204 2.463858 12.634683 255 0 0
-2.1862915 0.43147615 13.0184965 255 0 0
-2.1862915 0.43147615 13.0184965 255 0 0
-2.1626024 0.5174397 13.010593 255 0 0
-2.18809 -0.93132406 13.217902 255 0 0
-2.1506884 0.5300985 13.019376 255 0 0
-2.1615126 -0.92858046 13.222329 255 0 0
-2.109291 0.22555111 12.986962 255 0 0
-1.995955 2.5258608 12.576844 255 0 0
-2.0032582 0.07465402 13.024498 255 0 0
-2.0006526 0.034521736 13.065936 255 0 0
-1.9266983 1.3839439 12.802368 255 0 0
-1.9107819 1.0183324 12.937598 255 0 0
-1.9107819 1.0183324 12.937598 255 0 0
-1.9008864 1.4662768 12.864961 255 0 0
-1.946928 -0.39532682 13.251131 255 0 0
-1.8555975 2.1031947 12.724802 255 0 0
-1.8694805 1.2352679 12.896364 255 0 0
-1.8563604 1.4966799 12.863278 255 0 0
-1.8717909 0.92857474 12.977632 255 0 0
-1.8741419 0.61673 13.027798 255 0 0
-1.8530941 1.4386674 12.871946 255 0 0
-1.8798212 0.25036037 13.100775 255 0 0
-1.8561156 0.8964083 12.993373 255 0 0
-1.8561156 0.8964083 12.993373 255 0 0
-1.8583804 0.5889312 13.043283 255 0 0
-1.8427584 1.3188175 12.925547 255 0 0
-1.8261553 1.0162612 12.969931 255 0 0
-1.4834895 1.0542504 10.797407 255 0 0
-1.7788316 1.2640536 12.9470005 255 0 0
-1.7815847 1.0286204 13.002847 255 0 0
-1.7845502 0.34382293 13.128808 255 0 0
-1.7919143 -0.0141965225 13.217917 255 0 0
-1.7880055 -0.028635342 13.222681 255 0 0
-1.7854573 0.0029121193 13.203539 255 0 0
-1.8834662 -1.0352017 13.961338 255 0 0
-2.0079684 -2.118262 14.951306 255 0 0
-2.0038419 -2.138172 14.958463 255 0 0
-1.7444651 0.5783192 13.097879 255 0 0
-1.7209018 1.3909512 12.911817 255 0 0
-1.7101946 1.6490141 12.894154 255 0 0
-1.7113985 1.3229382 12.942061 255 0 0
-1.7113985 1.3229382 12.942061 255 0 0
-1.7039117 1.4495807 12.951159 255 0 0
-1.6933161 1.505002 12.937256 255 0 0
-1.7251507 0.023187209 13.22916 255 0 0
-1.7053181 0.59363586 13.108595 255 0 0
-1.6845927 1.5714302 12.937379 255 0 0
-1.7102277 0.5183924 13.147031 255 0 0
-1.6937075 0.70527506 13.0878 255 0 0
-1.6888994 0.252752 13.194068 255 0 0
-1.786824 -1.0372607 13.99491 255 0 0
-1.6496505 1.6576121 12.906085 255 0 0
-1.7763475 -1.0746851 14.026082 255 0 0
-1.6148071 2.8915267 12.743173 255 0 0
-1.6389252 -0.29698816 13.231608 255 0 0
-1.6118076 -0.28905785 13.233078 255 0 0
-1.6316795 -0.7990476 13.470998 255 0 0
-1.6019931 -0.32995316 13.379237 255 0 0
-1.7774012 -2.1112301 15.048736 255 0 0
-1.5311235 1.15194 13.041261 255 0 0
-1.7270416 -2.1083086 15.061613 255 0 0
-1.5378002 -0.7957739 13.501706 255 0 0
-1.6695482 -2.141605 15.104333 255 0 0
-1.6548351 -2.0487459 15.01904 255 0 0
-1.4571435 0.25057438 13.274896 255 0 0
-1.2090389 0.44956756 11.118417 255 0 0
-1.4648614 -0.77742183 13.514911 255 0 0
-1.6256791 -2.1433933 15.132038 255 0 0
-1.4223531 -0.058662854 13.3355665 255 0 0
-1.6067272 -2.1197674 15.100946 255 0 0
-1.1693773 0.3794462 11.141233 255 0 0
-1.1693773 0.3794462 11.141233 255 0 0
-1.1386781 0.62557745 11.102306 255 0 0
-1.1387448 0.4677989 11.141597 255 0 0
-1.3872435 -0.8400987 13.574517 255 0 0
-1.3549365 0.5471367 13.391552 255 0 0
-1.5061879 -2.1489916 15.188353 255 0 0
-1.5061879 -2.1489916 15.188353 255 0 0
-1.4787263 -2.174995 15.22866 255 0 0
-1.4665213 -2.1448474 15.211269 255 0 0
-1.4470093 -2.1679611 15.226277 255 0 0
-1.2381965 -0.6809212 13.631808 255 0 0
-1.2200655 -0.64870846 13.639139 255 0 0
-1.3454508 -2.1525807 15.264335 255 0 0
-1.0393211 -1.8538966 14.948054 255 0 0
-1.0361482 -2.2652159 15.046428 255 0 0
-1.0270431 -1.7404239 14.920437 255 0 0
-0.903441 -0.054984212 13.196877 255 0 0
-1.0181928 -1.7287343 14.941518 255 0 0
-0.90025264 -0.07885841 13.216829 255 0 0
-1.0213298 -1.9141146 14.985544 255 0 0
-1.0203209 -2.439787 15.116946 255 0 0
-1.0203209 -2.439787 15.116946 255 0 0
-1.0095514 -2.109016 15.0384 255 0 0
-0.99525505 -1.6574391 14.9068985 255 0 0
-0.9986147 -2.3937976 15.104122 255 0 0
-0.9940524 -2.4464138 15.1132765 255 0 0
-0.77280074 -0.23924778 13.215514 255 0 0
-0.8727798 -2.0597544 15.367765 255 0 0
-0.6741989 0.7407947 13.146064 255 0 0
-0.6797792 0.20311013 13.261404 255 0 0
-0.67093205 0.6517707 13.172193 255 0 0
-0.6776011 0.05490519 13.309556 255 0 0
-0.6715541 -0.2068623 13.281777 255 0 0
-0.66582865 -0.24489537 13.258985 255 0 0
-0.656392 1.3589449 13.048641 255 0 0
-0.656392 1.3589449 13.048641 255 0 0
-0.64927006 -0.34107715 13.293961 255 0 0
-0.62570894 -0.23724082 13.279381 255 0 0
-0.5397532 2.5392745 12.38558 255 0 0
-0.47148925 1.3524594 13.028232 255 0 0
-0.47033364 -0.0012462467 13.407225 255 0 0
-0.47033364 -0.0012462467 13.407225 255 0 0
-0.45901942 -0.23970538 13.349605 255 0 0
-1.310109 -0.38141185 40.038563 255 0 0
-0.44214898 -0.4853151 13.537371 255 0 0
-0.4328019 -0.43632266 13.536173 255 0 0
-0.4333714 -0.46118575 13.554073 255 0 0
-0.47492468 -2.1298342 15.1696 255 0 0
-0.45942792 -2.1245563 15.175546 255 0 0
-0.40137956 -0.5271513 13.577315 255 0 0
-0.45044065 -2.1821985 15.224538 255 0 0
-0.38282463 1.4712747 13.060682 255 0 0
-0.44518906 -2.1656673 15.2245245 255 0 0
-0.37387297 -0.58091176 13.596628 255 0 0
-0.41177517 -2.0820017 15.153595 255 0 0
-0.41067895 -2.2457528 15.305213 255 0 0
-0.36012545 -0.6201197 13.607678 255 0 0
-0.34307697 1.3590481 13.091033 255 0 0
-0.35041073 0.27090696 13.405393 255 0 0
-0.3506784 -0.55873585 13.6051235 255 0 0
-0.3456073 -0.53108454 13.588785 255 0 0
-0.34542906 -0.45988792 13.580395 255 0 0
-0.3928345 -3.0795293 15.846517 255 0 0
-0.3367109 -0.5216671 13.6070795 255 0 0
-0.33153 -0.45250353 13.586218 255 0 0
-0.3484483 -2.2521622 15.350865 255 0 0
-0.3427318 -2.2304196 15.332429 255 0 0
-0.2830854 1.062704 13.250628 255 0 0
-0.33328417 -3.6164558 16.123032 255 0 0
-0.33402583 -3.6982663 16.156301 255 0 0
-0.33513597 -3.901346 16.204 255 0 0
-0.3237229 -2.7680137 15.947589 255 0 0
-0.26501033 1.0990919 13.255616 255 0 0
-0.3171359 -3.618428 16.150072 255 0 0
-0.3172883 -3.6572075 16.156536 255 0 0
-0.3172883 -3.6572075 16.156536 255 0 0
-0.31850195 -3.899135 16.210728 255 0 0
-0.31850195 -3.899135 16.210728 255 0 0
-0.30741352 -2.7857022 15.9562845 255 0 0
-0.25866544 -0.81773764 13.693224 255 0 0
-0.3019165 -3.9233816 16.220165 255 0 0
-0.30026987 -3.641502 16.140633 255 0 0
-0.30177978 -3.8817008 16.21423 255 0 0
-0.30046597 -3.5951514 16.152836 255 0 0
-0.3005715 -3.6220772 16.1576 255 0 0
-0.28404292 -3.6547265 16.167267 255 0 0
-0.24005152 -0.8622167 13.706794 255 0 0
-0.225987 -0.8447166 13.710667 255 0 0
-0.25098875 -3.0348544 16.21311 255 0 0
-0.20792264 -0.20446157 13.449258 255 0 0
-0.20792264 -0.20446157 13.449258 255 0 0
-0.24724796 -2.7692215 15.976641 255 0 0
-0.20558958 2.3830159 13.162496 255 0 0
-0.20732023 -1.0423454 13.7277 255 0 0
-0.23592466 -2.734079 15.955655 255 0 0
-0.18858561 -1.0645671 13.738176 255 0 0
-0.17446019 -1.0747488 13.746162 255 0 0
-0.19596334 -2.2965493 15.418943 255 0 0
-0.16669704 -0.23556823 13.486124 255 0 0
-0.13354905 1.8384383 13.2733965 255 0 0
-0.13354905 1.8384383 13.2733965 255 0 0
-0.12808317 2.6901906 12.615027 255 0 0
-0.13180754 -0.9842969 13.738442 255 0 0
-0.13013671 -0.9181243 14.055673 255 0 0
-0.118229456 1.7349116 13.633234 255 0 0
-0.11774489 -0.89822227 13.749165 255 0 0
-0.10501995 1.2649122 12.138916 255 0 0
-0.106320105 1.780474 13.305414 255 0 0
-0.09709327 1.8309879 13.290085 255 0 0
-0.07091791 -0.7561461 13.844172 255 0 0
-0.070058316 0.49097168 13.583392 255 0 0
-0.069951445 0.5331678 13.534178 255 0 0
-0.046910707 1.8333496 13.326388 255 0 0
-0.04213275 0.7220269 13.570979 255 0 0
-0.033889994 -2.3193655 14.284469 255 0 0
-0.033901714 -2.2933278 14.297694 255 0 0
-0.028977979 2.5299983 13.21251 255 0 0
-0.019885022 2.4957142 13.219802 255 0 0
-0.018390654 -0.9179011 13.793357 255 0 0
0.00061876944 -1.1292251 13.8563175 255 0 0
0.011178225 -2.1308877 15.365717 255 0 0
0.011178225 -2.1308877 15.365717 255 0 0
0.02126022 2.4212472 13.257959 255 0 0
0.023437405 0.5962408 13.626523 255 0 0
0.032357927 -2.125451 15.372522 255 0 0
0.02593419 2.3627844 13.264742 255 0 0
0.038731903 -1.0381657 13.8456 255 0 0
0.043607146 -1.2056831 13.867566 255 0 0
0.048333276 -1.1006688 13.857048 255 0 0
0.044120092 2.4063888 13.269094 255 0 0
0.051605765 0.3471301 13.604719 255 0 0
0.06686308 2.501105 13.255111 255 0 0
0.12464913 -0.9995299 13.859792 255 0 0
0.12208662 0.2851259 13.624902 255 0 0
0.14276746 -1.9854866 15.286072 255 0 0
0.14839992 -0.8425262 13.851019 255 0 0
0.15237334 1.1262785 13.447127 255 0 0
0.17336896 0.3271752 13.610907 255 0 0
0.17355795 1.6051135 13.322167 255 0 0
0.2192511 -0.4687702 13.819925 255 0 0
0.2192511 -0.4687702 13.819925 255 0 0
0.23413832 -0.5806746 13.853284 255 0 0
0.23979573 0.2973005 13.654455 255 0 0
0.23979573 0.2973005 13.654455 255 0 0
0.24405713 -0.60594684 13.874883 255 0 0
0.29680663 -2.1403885 15.927375 255 0 0
0.25894266 -0.2292843 13.659642 255 0 0
0.25894266 -0.2292843 13.659642 255 0 0
0.27717778 -0.5106907 13.861284 255 0 0
0.29639047 -0.5054883 13.867697 255 0 0
0.26393086 2.833501 11.873113 255 0 0
0.31088772 -0.5054873 13.873303 255 0 0
0.27330422 2.8051481 12.104258 255 0 0
0.32032928 -0.45317847 13.870678 255 0 0
0.30747953 1.4659894 13.358507 255 0 0
0.3534199 -0.37802112 13.859151 255 0 0
0.3640181 -0.3037682 13.721046 255 0 0
0.42110106 0.1060254 13.741004 255 0 0
0.5180846 -1.9485716 15.652592 255 0 0
0.5269666 -2.4272304 15.753008 255 0 0
0.5390802 -1.9183193 15.636522 255 0 0
0.46817508 1.0784326 13.61278 255 0 0
0.5599481 -2.4414337 15.764332 255 0 0
0.55823314 -2.2266428 15.717898 255 0 0
0.5639926 -2.288724 15.727297 255 0 0
0.5624045 -2.1029797 15.684765 255 0 0
0.56461287 -1.7093064 15.59952 255 0 0
0.5938665 -2.645723 15.799291 255 0 0
0.58601344 -1.6477891 15.5978565 255 0 0
0.58601344 -1.6477891 15.5978565 255 0 0
0.2986633 2.175019 7.2509656 255 0 0
0.65663695 -1.6527709 15.61769 255 0 0
0.5712412 1.2291286 13.503335 255 0 0
0.584785 0.24451032 13.8110485 255 0 0
0.5942114 -0.3347417 13.802891 255 0 0
0.70018214 -2.165988 16.120943 255 0 0
0.7193964 -2.063708 16.05547 255 0 0
0.587778 2.6242607 12.862315 255 0 0
0.75857365 -2.239705 16.182539 255 0 0
0.6005943 2.6407387 12.852741 255 0 0
0.6580937 0.07424876 13.852522 255 0 0
0.7320031 -1.1784695 15.176001 255 0 0
0.7320031 -1.1784695 15.176001 255 0 0
0.6707464 -0.058546025 13.915115 255 0 0
0.6707464 -0.058546025 13.915115 255 0 0
0.785351 -2.1675913 16.16071 255 0 0
0.7091591 -0.44819215 14.103982 255 0 0
0.75924426 -1.020015 15.096141 255 0 0
0.82931376 -2.1446428 16.149504 255 0 0
0.8406842 -2.1618276 16.154268 255 0 0
0.89246917 -2.1608515 16.185192 255 0 0
0.89246917 -2.1608515 16.185192 255 0 0
0.9092611 -2.1433125 16.18669 255 0 0
0.9161319 -2.1629596 16.209644 255 0 0
0.88165 -1.0196173 15.145361 255 0 0
0.9713399 -2.14251 16.199923 255 0 0
0.80179566 2.9999588 12.078713 255 0 0
1.1086816 -2.2079594 16.332018 255 0 0
1.0045698 -0.59078664 14.586912 255 0 0
1.1899995 -2.0592322 16.214975 255 0 0
1.3440198 -2.180252 16.38994 255 0 0
1.216307 -0.7636613 14.656234 255 0 0
1.2489396 -0.8028731 14.683549 255 0 0
1.2751027 -0.08843939 14.469998 255 0 0
1.3101873 -0.7473783 14.69039 255 0 0
1.311821 0.3457444 14.492772 255 0 0
1.5040525 -2.1509006 16.411257 255 0 0
1.3574183 -0.62760204 14.765427 255 0 0
1.3363962 3.1710668 14.017307 255 0 0
1.3364644 3.0641782 13.968216 255 0 0
1.4747137 -1.0024093 15.404847 255 0 0
1.5907182 -2.057132 16.373571 255 0 0
1.6041083 -2.2341018 16.510853 255 0 0
1.4356703 -0.76415366 14.732805 255 0 0
1.5038258 -1.038299 15.431056 255 0 0
1.6149273 -2.1725218 16.505013 255 0 0
1.6089567 -1.9971846 16.330688 255 0 0
1.6300846 -2.1580603 16.485994 255 0 0
1.4285204 1.5316706 14.316227 255 0 0
1.4760193 -0.2555117 14.684047 255 0 0
1.4470114 1.5379113 14.304047 255 0 0
1.6758353 -2.1365585 16.489132 255 0 0
1.5992917 -2.1433141 15.627456 255 0 0
1.5090507 0.1663061 14.566526 255 0 0
1.716014 -2.1355183 16.493555 255 0 0
1.6022983 -0.99359804 15.407674 255 0 0
1.6022983 -0.99359804 15.407674 255 0 0
1.5173343 0.19175632 14.549906 255 0 0
1.5232162 0.3991043 14.559526 255 0 0
1.5266149 0.54676557 14.544462 255 0 0
1.5266149 0.54676557 14.544462 255 0 0
1.7468309 -2.1342232 16.51612 255 0 0
1.5563443 0.19806843 14.587116 255 0 0
1.5753449 0.04008724 14.669635 255 0 0
1.5753449 0.04008724 14.669635 255 0 0
1.661955 -1.0117781 15.469531 255 0 0
1.554608 1.354819 14.388408 255 0 0
1.5527698 1.668647 14.32569 255 0 0
1.7927967 -2.1329768 16.520727 255 0 0
0.74911785 0.57986796 6.867417 255 0 0
1.5944779 0.5639171 14.570107 255 0 0
1.6058172 0.34306395 14.626658 255 0 0
1.5955676 1.0312299 14.490229 255 0 0
1.6079786 1.1236513 14.467432 255 0 0
1.6011491 2.13389 14.272377 255 0 0
1.6022623 2.3288743 14.23796 255 0 0
1.8744051 -2.1524963 16.588463 255 0 0
1.657225 -0.2125546 14.633342 255 0 0
1.6489123 1.6456434 14.390068 255 0 0
1.649593 1.5881954 14.396047 255 0 0
1.649593 1.5881954 14.396047 255 0 0
1.6788195 0.64824045 14.606121 255 0 0
1.6994929 0.12740484 14.696189 255 0 0
1.6936773 1.204432 14.519123 255 0 0
1.9511149 -2.195676 16.658022 255 0 0
1.9511149 -2.195676 16.658022 255 0 0
1.9491993 -2.1357114 16.593039 255 0 0
1.742291 0.15147467 14.715834 255 0 0
1.7655404 0.19542325 14.698954 255 0 0
1.7655404 0.19542325 14.698954 255 0 0
1.7366076 1.6488689 14.418965 255 0 0
1.7855119 0.14731592 14.738245 255 0 0
1.7987206 -0.23809452 14.844928 255 0 0
1.0836316 2.3602757 8.932399 255 0 0
1.7923894 0.16308683 14.753156 255 0 0
2.0369503 -2.2699842 16.65485 255 0 0
2.032271 -2.1326578 16.618261 255 0 0
1.813988 -0.22212677 14.845096 255 0 0
1.7682238 1.5967449 14.47468 255 0 0
1.7682238 1.5967449 14.47468 255 0 0
1.7831179 1.1314514 14.555816 255 0 0
1.7977073 0.7122242 14.632966 255 0 0
1.8112985 0.37878263 14.701467 255 0 0
1.782072 1.5552762 14.465816 255 0 0
2.0469267 -2.0492775 16.552052 255 0 0
1.8037667 1.1140676 14.560659 255 0 0
1.7901665 1.715681 14.450509 255 0 0
1.7793783 2.742344 14.240238 255 0 0
1.8025628 1.7840481 14.430121 255 0 0
1.8159298 1.4418701 14.497681 255 0 0
1.890673 -0.41969532 14.924589 255 0 0
1.8380934 1.6881353 14.475409 255 0 0
1.8950248 -0.36728913 14.91919 255 0 0
2.1410403 -2.1310072 16.663372 255 0 0
1.923627 -0.3246611 14.9023075 255 0 0
1.874653 1.6902771 14.449905 255 0 0
1.9526937 -0.5812494 14.965882 255 0 0
1.9569259 -0.055825777 14.767634 255 0 0
1.8039706 3.1498137 13.606665 255 0 0
1.9988624 -0.84826016 15.000869 255 0 0
1.9388831 1.3031151 14.55923 255 0 0
1.9446648 -0.14477675 14.561098 255 0 0
2.0021887 -0.732455 14.988292 255 0 0
1.9846432 0.4340309 14.74922 255 0 0
2.0234106 -0.61447895 14.99349 255 0 0
1.187779 2.2964485 8.722935 255 0 0
2.0332782 -0.17326273 14.804866 255 0 0
2.03871 -0.0517762 14.807897 255 0 0
2.0283163 1.2071574 14.625979 255 0 0
2.33402 -2.134491 16.73025 255 0 0
2.0497892 1.3825637 14.671502 255 0 0
2.0554125 1.350134 14.568196 255 0 0
2.1262276 -0.85057837 15.061967 255 0 0
2.1339703 -0.4953539 15.119481 255 0 0
2.1339703 -0.4953539 15.119481 255 0 0
2.1340299 -0.8336763 15.044626 255 0 0
2.1369822 -0.8661552 15.064659 255 0 0
2.1485617 -0.7954546 15.073808 255 0 0
2.1237037 -0.050182626 14.832203 255 0 0
2.0600317 3.1224215 14.312248 255 0 0
2.205553 -0.88564503 15.07275 255 0 0
2.5251813 -2.4492373 16.927387 255 0 0
2.5251813 -2.4492373 16.927387 255 0 0
2.5216153 -2.2748725 16.866796 255 0 0
2.531383 -2.475693 16.930353 255 0 0
2.5623736 -2.7069774 17.01767 255 0 0
2.2389903 -0.15688084 14.885532 255 0 0
2.5513752 -2.3054972 16.909664 255 0 0
2.5513752 -2.3054972 16.909664 255 0 0
2.3024213 -0.7425623 15.096454 255 0 0
2.59153 -2.2712193 16.905586 255 0 0
2.6008208 -2.2971282 16.92815 255 0 0
2.2888334 0.37735868 14.8787 255 0 0
2.227151 3.1322358 14.371804 255 0 0
2.314 -0.15553354 14.906873 255 0 0
2.3198962 0.22311299 14.913323 255 0 0
2.459737 -1.0583949 15.805002 255 0 0
2.4617424 -1.0214117 15.78346 255 0 0
2.328616 0.44695026 14.936933 255 0 0
2.4972441 -1.1606522 15.835262 255 0 0
2.3623729 0.17203835 14.921918 255 0 0
2.5076108 -1.1382004 15.832731 255 0 0
2.5076108 -1.1382004 15.832731 255 0 0
2.5073378 -0.9771571 15.797219 255 0 0
2.4003956 -0.23403487 15.094863 255 0 0
2.517817 -0.9575791 15.795175 255 0 0
2.4270823 -0.54754037 15.162689 255 0 0
2.4310389 -0.7470204 15.153013 255 0 0
2.5657885 -1.1653938 15.8548765 255 0 0
2.5765045 -1.0087016 15.854599 255 0 0
2.5813966 -0.99265647 15.818081 255 0 0
2.363912 2.8770776 14.422945 255 0 0
2.6202364 -1.0074584 15.855193 255 0 0
2.6202364 -1.0074584 15.855193 255 0 0
2.4320283 1.6410264 14.692001 255 0 0
2.4992664 0.07404324 15.034766 255 0 0
2.6559358 -1.0074893 15.872981 255 0 0
2.5035594 0.5386311 14.968914 255 0 0
2.660141 -0.96116906 15.833114 255 0 0
2.520267 0.3423685 15.00664 255 0 0
2.528994 0.15532812 15.027281 255 0 0
2.528994 0.15532812 15.027281 255 0 0
2.5278516 0.3584468 15.021048 255 0 0
2.5016189 1.1956758 14.835663 255 0 0
2.4981503 1.813244 14.72346 255 0 0
2.5705643 0.1720518 15.058814 255 0 0
2.5528092 0.80959225 14.926084 255 0 0
2.561784 1.16149 14.888634 255 0 0
2.5728886 0.97336525 14.89368 255 0 0
2.6077077 0.5309208 15.005281 255 0 0
2.5383284 2.851857 14.540049 255 0 0
2.6005008 1.6899505 14.787071 255 0 0
2.6008863 1.9315153 14.730639 255 0 0
2.6008863 1.9315153 14.730639 255 0 0
2.9128022 -1.5085503 16.392553 255 0 0
2.6498597 1.1620375 14.922915 255 0 0
2.6543436 1.1979653 14.919212 255 0 0
2.6543436 1.1979653 14.919212 255 0 0
2.696768 0.16192077 15.127192 255 0 0
2.6513562 1.480448 14.8731165 255 0 0
2.7399724 -0.3117976 15.30853 255 0 0
2.7000086 0.3782982 15.087766 255 0 0
2.7039833 0.29725778 15.08078 255 0 0
2.7039833 0.29725778 15.08078 255 0 0
2.9556432 -1.5851754 16.473652 255 0 0
2.9515915 -1.5492417 16.451159 255 0 0
2.6549563 1.6403375 14.77869 255 0 0
2.6549563 1.6403375 14.77869 255 0 0
2.7006392 0.5825644 15.033901 255 0 0
2.7040415 0.67326564 15.024163 255 0 0
2.6814563 1.2507 14.898609 255 0 0
2.7026381 0.74568427 15.016374 255 0 0
2.7105331 -0.07580583 15.058191 255 0 0
2.96775 -1.5257057 16.4475 255 0 0
2.973848 -1.548359 16.449865 255 0 0
2.6946957 1.2443925 14.915125 255 0 0
2.7430634 0.08174408 15.152659 255 0 0
2.7430634 0.08174408 15.152659 255 0 0
2.7059052 1.0789367 14.94888 255 0 0
2.7059052 1.0789367 14.94888 255 0 0
2.7277672 0.40952152 15.06906 255 0 0
2.6990323 1.3526905 14.825955 255 0 0
2.7028255 1.5988129 14.846199 255 0 0
2.6926305 2.6109936 14.646028 255 0 0
2.6926305 2.6109936 14.646028 255 0 0
2.6890094 2.8126948 14.624636 255 0 0
3.0129561 -1.2787673 16.234655 255 0 0
2.8363152 -0.2670418 15.288114 255 0 0
2.8344774 -0.21903598 15.25043 255 0 0
2.8508306 -0.6991994 15.335581 255 0 0
2.7700982 1.681128 14.823061 255 0 0
2.7700982 1.681128 14.823061 255 0 0
2.8203425 0.2079663 15.092077 255 0 0
2.8993561 -0.74845135 15.340691 255 0 0
2.7832768 2.90857 14.61576 255 0 0
2.8995922 1.6829053 14.885361 255 0 0
3.0618494 -0.799263 15.440698 255 0 0
3.0681934 -0.7581925 15.419571 255 0 0
3.0160525 1.6954951 14.929077 255 0 0
3.4459083 -2.4494734 16.83911 255 0 0
3.4505215 -1.8950781 16.75402 255 0 0
3.0735996 1.7835991 14.933799 255 0 0
3.4771826 -2.056576 16.770075 255 0 0
3.4823909 -1.8208672 16.741653 255 0 0
3.478553 -1.6674025 16.724045 255 0 0
3.4889028 -1.6350744 16.718998 255 0 0
3.5124643 -1.6802734 16.721542 255 0 0
3.5116527 -1.4969436 16.718952 255 0 0
3.2806323 -0.20880994 15.39822 255 0 0
3.312776 -0.24860625 15.44944 255 0 0
3.3276904 -0.064561345 15.298506 255 0 0
3.2731738 1.886961 15.02348 255 0 0
3.2375088 2.9749684 14.781207 255 0 0
3.394244 0.96591824 15.244625 255 0 0
3.383801 1.4601331 15.126662 255 0 0
3.3624227 2.2164614 14.981312 255 0 0
3.4200916 1.2423439 15.195935 255 0 0
3.4320567 1.1724695 15.20272 255 0 0
3.3858912 2.587569 14.922899 255 0 0
3.4289584 1.7943568 15.11772 255 0 0
3.4433715 1.5545107 15.159456 255 0 0
3.4620607 1.2888558 15.219385 255 0 0
3.4258285 2.1255572 15.033891 255 0 0
3.4766333 2.894734 14.912158 255 0 0
3.8614738 1.0600165 13.551532 255 0 0
3.9775903 -0.027060533 13.840737 255 0 0
4.2115636 -0.5682789 14.652103 255 0 0
4.20112 -1.2970995 14.539646 255 0 0
3.9948788 0.17412443 13.818818 255 0 0
4.009723 -0.43350437 13.850635 255 0 0
3.9895115 0.5870216 13.75207 255 0 0
4.2439303 -1.392828 14.599706 255 0 0
4.0153756 0.41690698 13.791951 255 0 0
4.0315228 0.27177024 13.8307085 255 0 0
4.051838 -0.17287734 13.898647 255 0 0
4.03201 0.47580108 13.784 255 0 0
4.064934 -0.117824644 13.878301 255 0 0
4.075324 0.12636127 13.865896 255 0 0
4.072648 0.09074942 13.85664 255 0 0
3.985136 1.62012 13.557446 255 0 0
3.9801106 1.8359177 13.523125 255 0 0
4.076609 0.2679162 13.838366 255 0 0
4.545983 -2.4346833 15.390416 255 0 0
4.0167713 1.5229347 13.601863 255 0 0
4.09616 0.19760495 13.855955 255 0 0
4.0026817 1.8005642 13.536584 255 0 0
4.0680785 0.78113854 13.761758 255 0 0
4.056947 0.9396422 13.707957 255 0 0
4.004922 1.882709 13.527798 255 0 0
4.0217996 1.7286618 13.554441 255 0 0
3.9981785 2.1930094 13.470863 255 0 0
4.051666 1.4051794 13.609574 255 0 0
4.1100583 1.0527439 13.807028 255 0 0
4.063733 1.398373 13.634362 255 0 0
4.161421 -0.15461315 13.961431 255 0 0
4.1180587 0.7288609 13.786394 255 0 0
4.0083237 2.540773 13.408042 255 0 0
4.113152 0.95384413 13.738151 255 0 0
4.021088 2.5627148 13.403717 255 0 0
4.109382 0.98232526 13.709739 255 0 0
4.0324016 2.4430678 13.427747 255 0 0
4.066279 2.0375063 13.528985 255 0 0
4.117504 1.0417354 13.68953 255 0 0
4.188367 -0.43548098 13.905595 255 0 0
4.2329445 -0.16055557 13.9913225 255 0 0
4.2329445 -0.16055557 13.9913225 255 0 0
4.0950313 2.1300757 13.515711 255 0 0
4.157615 1.2949557 13.696759 255 0 0
4.217746 0.28786635 13.895452 255 0 0
4.1569786 1.4729774 13.678292 255 0 0
4.255891 -0.16001529 13.987639 255 0 0
4.1568413 1.5039581 13.662306 255 0 0
4.177602 1.203216 13.716245 255 0 0
4.2547364 0.028145572 13.968977 255 0 0
4.195207 1.529236 13.680025 255 0 0
4.301894 -0.20940803 14.011862 255 0 0
4.3690224 -0.4333909 14.213218 255 0 0
4.130224 2.6780062 13.426973 255 0 0
4.130224 2.6780062 13.426973 255 0 0
4.301759 -0.054284528 13.996419 255 0 0
4.299607 0.3586162 13.92844 255 0 0
4.2436657 1.6695144 13.683245 255 0 0
4.3033843 0.7048513 13.879163 255 0 0
4.2574816 1.462079 13.729248 255 0 0
4.350249 -0.03429376 14.013057 255 0 0
4.249418 1.6495359 13.6718025 255 0 0
4.262048 1.6338376 13.697311 255 0 0
4.298507 0.9300332 13.817277 255 0 0
4.3479695 0.20592085 13.975722 255 0 0
4.348136 0.22238599 13.960769 255 0 0
4.359352 0.11596332 13.996396 255 0 0
4.339283 0.38065565 13.932792 255 0 0
4.372307 0.12104422 14.007053 255 0 0
4.3509173 0.42846674 13.939388 255 0 0
4.350994 0.4445982 13.924331 255 0 0
4.3031907 1.2459836 13.770622 255 0 0
4.3102064 1.1423266 13.793427 255 0 0
4.3473625 0.58327746 13.897559 255 0 0
4.3066506 1.2807912 13.766395 255 0 0
4.302855 1.4280066 13.738498 255 0 0
4.350814 0.6186105 13.893334 255 0 0
4.348232 0.7032957 13.885115 255 0 0
4.3791013 -0.42348936 13.979766 255 0 0
4.3525763 0.68982077 13.898984 255 0 0
4.3400087 0.84343666 13.858787 255 0 0
4.3400087 0.84343666 13.858787 255 0 0
4.363495 0.5896325 13.933824 255 0 0
4.303206 1.5667583 13.723755 255 0 0
4.394 0.15708801 13.999532 255 0 0
4.3519535 0.8973272 13.851219 255 0 0
4.3547993 0.9332933 13.860225 255 0 0
4.392916 0.20916815 13.980969 255 0 0
4.294054 1.7858384 13.663262 255 0 0
4.4239454 -0.25284022 14.062247 255 0 0
4.3445015 1.180321 13.796606 255 0 0
4.414453 0.08607943 14.003017 255 0 0
4.3063154 1.8245716 13.657118 255 0 0
4.3452864 1.3035991 13.783609 255 0 0
4.4713316 -0.5495778 14.16456 255 0 0
4.320604 1.7563373 13.688203 255 0 0
4.3468227 1.4206828 13.757933 255 0 0
4.448222 -0.008530149 14.033214 255 0 0
4.416389 0.49558505 13.934196 255 0 0
4.318517 2.1650126 13.618085 255 0 0
4.411009 0.7040898 13.88719 255 0 0
4.5252657 -0.7274616 14.240413 255 0 0
4.380977 1.31245 13.776477 255 0 0
4.30436 2.5748816 13.52559 255 0 0
4.474296 0.28740314 14.025172 255 0 0
4.3649454 1.896979 13.67823 255 0 0
4.3649454 1.896979 13.67823 255 0 0
4.3976364 1.4851068 13.768531 255 0 0
4.330773 2.691282 13.533665 255 0 0
4.453251 0.60484487 13.929603 255 0 0
4.3918657 1.6918048 13.734376 255 0 0
4.4366093 1.0105621 13.877254 255 0 0
4.3161807 2.8125381 13.471585 255 0 0
4.3161807 2.8125381 13.471585 255 0 0
4.452315 0.94021153 13.881683 255 0 0
4.403679 1.7445853 13.7267 255 0 0
4.397023 2.1614552 13.643725 255 0 0
4.3855095 2.4308321 13.59038 255 0 0
4.640721 -1.0574815 14.276497 255 0 0
4.5868115 0.13489184 14.058927 255 0 0
4.4741373 2.1754007 13.692597 255 0 0
4.468304 2.3815944 13.65889 255 0 0
4.699845 -1.0747453 14.306747 255 0 0
4.6784496 0.3924863 14.190784 255 0 0
4.7471538 -1.1609154 14.374231 255 0 0
4.771383 -1.1841998 14.342644 255 0 0
4.7321606 0.40772465 14.19079 255 0 0
4.80854 -1.2249783 14.379944 255 0 0
4.6442823 1.7144812 13.867088 255 0 0
4.764532 0.3889102 14.185315 255 0 0
4.662473 1.5707976 13.865106 255 0 0
4.632549 2.533313 13.725713 255 0 0
4.7625628 0.9145052 13.993174 255 0 0
4.758072 1.8578267 13.905514 255 0 0
4.758072 1.8578267 13.905514 255 0 0
4.6691084 2.927084 13.619653 255 0 0
4.3540716 -1.218642 12.689584 255 0 0
4.8768234 0.24735476 14.227895 255 0 0
4.7811966 2.2342086 13.844581 255 0 0
4.989133 -1.0685353 14.416792 255 0 0
4.989133 -1.0685353 14.416792 255 0 0
4.7070704 2.2083688 13.57531 255 0 0
4.999029 -0.6954198 14.405159 255 0 0
4.8589606 1.8630166 13.947787 255 0 0
5.2179747 -1.2614722 14.913819 255 0 0
4.8863873 1.5750399 13.94569 255 0 0
4.905157 1.7967149 13.984184 255 0 0
5.0105395 -0.11768364 14.244634 255 0 0
5.0752964 -0.5528336 14.412217 255 0 0
4.944595 1.6742626 14.028697 255 0 0
5.0974793 -0.5384623 14.432963 255 0 0
4.904339 2.601935 13.851761 255 0 0
5.033148 1.0261692 14.103541 255 0 0
4.9118843 3.0181336 13.719854 255 0 0
4.9118843 3.0181336 13.719854 255 0 0
5.1359673 -0.23224519 14.36177 255 0 0
5.1835 -0.5398216 14.465053 255 0 0
5.137122 0.11096217 14.311486 255 0 0
5.138888 0.31303707 14.289589 255 0 0
5.1929083 -0.19695279 14.355348 255 0 0
5.2051134 -0.034814995 14.348981 255 0 0
5.191585 0.4577129 14.272488 255 0 0
5.1370173 1.2209536 14.121714 255 0 0
5.1370173 1.2209536 14.121714 255 0 0
5.2058725 0.44186506 14.298208 255 0 0
5.1900663 0.61983037 14.2414875 255 0 0
5.2147665 0.31710914 14.308875 255 0 0
5.2018313 0.79219466 14.233444 255 0 0
5.2868958 -0.4199146 14.449366 255 0 0
5.212863 0.73020166 14.236846 255 0 0
5.2380557 0.4085501 14.291972 255 0 0
5.2438626 0.37530628 14.307788 255 0 0
5.41869 -0.896965 14.764048 255 0 0
5.252196 0.38979444 14.3036785 255 0 0
5.1391187 2.0091398 13.990485 255 0 0
5.248387 0.6197931 14.280164 255 0 0
5.298393 -0.117969394 14.414309 255 0 0
5.21771 0.95768774 14.196542 255 0 0
5.249046 0.6006258 14.281944 255 0 0
5.131939 2.1998754 13.942989 255 0 0
5.131939 2.1998754 13.942989 255 0 0
5.252298 0.6341621 14.277445 255 0 0
5.145989 2.0531836 13.969363 255 0 0
5.1756306 1.7336373 14.05243 255 0 0
5.1971574 1.6245998 14.07207 255 0 0
5.2569513 0.98606014 14.223339 255 0 0
5.196313 1.8907162 14.041775 255 0 0
5.196313 1.8907162 14.041775 255 0 0
5.34772 -0.10745993 14.440409 255 0 0
5.1967616 1.8702328 14.029958 255 0 0
5.1967616 1.8702328 14.029958 255 0 0
5.1838226 2.1034822 13.993057 255 0 0
5.2045517 1.9019349 14.037692 255 0 0
5.2436233 1.4446979 14.119998 255 0 0
5.348308 0.22160044 14.376451 255 0 0
5.245205 1.6416603 14.097044 255 0 0
5.297458 0.97066194 14.240048 255 0 0
5.3074718 0.68655396 14.254086 255 0 0
5.2490745 1.8938009 14.066589 255 0 0
5.185003 2.6351218 13.861597 255 0 0
5.248109 2.0316415 14.037009 255 0 0
5.4964614 -0.7173714 14.688134 255 0 0
5.248705 2.236124 13.985242 255 0 0
5.18063 2.8530018 13.796052 255 0 0
5.345655 0.98861676 14.251011 255 0 0
5.346764 1.1843516 14.21425 255 0 0
5.3918996 0.83114636 14.295819 255 0 0
5.3262095 1.82349 14.092008 255 0 0
5.311397 2.2038777 14.023736 255 0 0
5.451192 0.33711782 14.387043 255 0 0
5.4406695 0.60809755 14.346611 255 0 0
5.4922185 -0.012400353 14.468051 255 0 0
5.3983135 1.3523692 14.220663 255 0 0
5.4381423 0.7821394 14.313955 255 0 0
5.4981246 0.065344915 14.457672 255 0 0
5.4890733 0.30962083 14.434562 255 0 0
5.487251 0.34552673 14.416796 255 0 0
5.4403987 0.9562436 14.293809 255 0 0
4.4090385 0.7913247 11.58405 255 0 0
4.4090385 0.7913247 11.58405 255 0 0
5.4742413 0.4338335 14.382775 255 0 0
5.5277805 -0.101768725 14.508725 255 0 0
5.506853 0.29031095 14.415989 255 0 0
5.4868226 0.6961418 14.3640585 255 0 0
5.483705 0.7648494 14.342927 255 0 0
5.482885 0.9034686 14.327746 255 0 0
5.5358152 0.1241811 14.452397 255 0 0
5.5358152 0.1241811 14.452397 255 0 0
5.533601 0.18468715 14.446747 255 0 0
5.483715 0.86927295 14.317135 255 0 0
5.4855747 1.3197821 14.307724 255 0 0
5.4446692 1.1267058 14.201833 255 0 0
5.532916 0.43572247 14.419607 255 0 0
5.533181 0.6468395 14.381758 255 0 0
5.5305867 0.81869334 14.349322 255 0 0
5.5327826 0.743728 14.342216 255 0 0
5.5767584 0.22673336 14.455643 255 0 0
5.562845 0.4503355 14.407176 255 0 0
5.5250125 0.93884 14.309211 255 0 0
5.4540505 1.0821757 14.049889 255 0 0
5.442077 2.6495008 13.994833 255 0 0
5.5137315 2.1893692 14.108932 255 0 0
5.5080886 2.61284 14.004146 255 0 0
5.7388926 -0.092866905 14.575686 255 0 0
5.7388926 -0.092866905 14.575686 255 0 0
5.584758 2.0654883 14.154972 255 0 0
5.7539697 -0.05596203 14.550751 255 0 0
5.7212596 1.4702584 14.317945 255 0 0
5.8364916 -0.47583526 14.591919 255 0 0
5.7266707 1.5480317 14.306354 255 0 0
5.7266707 1.5480317 14.306354 255 0 0
5.7380157 1.3678308 14.323298 255 0 0
5.7380157 1.3678308 14.323298 255 0 0
5.7429957 1.3689997 14.335731 255 0 0
5.7429957 1.3689997 14.335731 255 0 0
5.849794 -0.3726357 14.575509 255 0 0
5.85278 -0.4506809 14.582519 255 0 0
5.864613 -0.42336664 14.574728 255 0 0
5.8734565 -0.40629718 14.584119 255 0 0
6.337007 3.4084182 15.037413 255 0 0
6.3785195 3.3711524 15.087161 255 0 0
6.3785195 3.3711524 15.087161 255 0 0
6.534856 0.7585954 14.407906 255 0 0
2.232741 1.330474 4.6791363 255 0 0
2.2440157 1.2454919 4.6911254 255 0 0
2.2440157 1.2454919 4.6911254 255 0 0
