ply
format ascii 1.0
element vertex 325
property float x
property float y
property float z
property int red
property int blue
property int green
end_header
-0.87299895 0.3929369 2.0367963 255 0 0
-0.8680384 0.3998427 2.033222 255 0 0
-0.8701318 0.33522382 2.0460026 255 0 0
-0.87629277 0.21246915 2.0674326 255 0 0
-0.8644071 0.4074968 2.0377262 255 0 0
-0.8736809 0.2059797 2.0714447 255 0 0
-0.8579194 0.4140173 2.0389035 255 0 0
-0.8810862 0.017114935 2.107854 255 0 0
-0.86183697 0.25472087 2.0663269 255 0 0
-0.8707376 0.11191866 2.0997632 255 0 0
-0.874664 -0.00061993086 2.1205287 255 0 0
-0.8461919 0.25374657 2.0786269 255 0 0
-0.8461919 0.25374657 2.0786269 255 0 0
-0.85088897 0.060912255 2.1190963 255 0 0
-0.8334239 0.27532655 2.0821927 255 0 0
-0.8337428 0.24907735 2.0869727 255 0 0
-0.8198533 0.41603893 2.0599203 255 0 0
-0.8235774 0.35042363 2.0723975 255 0 0
-0.82345945 0.31354544 2.0799615 255 0 0
-0.8255111 0.275544 2.087584 255 0 0
-0.8277545 0.1258418 2.1097963 255 0 0
-0.81397223 0.3605087 2.0750496 255 0 0
-0.8269684 0.14453427 2.1131554 255 0 0
-0.829136 0.09513755 2.1247783 255 0 0
-0.8271591 0.10652182 2.1215136 255 0 0
-0.8154294 0.29527006 2.0890903 255 0 0
-0.82382 0.09332569 2.1280959 255 0 0
-0.81747764 0.15088014 2.1149023 255 0 0
-0.81747764 0.15088014 2.1149023 255 0 0
-0.80948305 0.2757686 2.0926316 255 0 0
-0.8290629 -0.035002753 2.1537857 255 0 0
-0.7783809 0.22434622 2.1286232 255 0 0
-0.75027895 0.48282307 2.0823917 255 0 0
-0.7495975 0.4763808 2.0846844 255 0 0
-0.7495975 0.4763808 2.0846844 255 0 0
-0.7519542 0.4405644 2.0940626 255 0 0
-0.70973676 0.50648093 2.1111732 255 0 0
-0.71421313 0.18648273 2.1611624 255 0 0
-0.7180142 0.06929655 2.194289 255 0 0
-0.7180142 0.06929655 2.194289 255 0 0
-0.72058547 0.02994841 2.2069118 255 0 0
-0.6970183 0.37326378 2.1420856 255 0 0
-0.69110847 0.30612776 2.1594067 255 0 0
-0.709748 -0.049488798 2.2257435 255 0 0
-0.7096898 -0.061466113 2.2328212 255 0 0
-0.698235 0.105885744 2.1982868 255 0 0
-0.67967415 0.4264409 2.1375933 255 0 0
-0.6890875 0.08338984 2.2104368 255 0 0
-0.68004996 0.115882926 2.2079625 255 0 0
-0.6685779 0.25200412 2.1838706 255 0 0
-0.6734576 0.11527461 2.211275 255 0 0
-0.66564727 0.25785112 2.1840296 255 0 0
-0.6732974 0.09054219 2.215978 255 0 0
-0.6739347 0.0744626 2.2181199 255 0 0
-0.6619561 0.25562814 2.1867704 255 0 0
-0.6671192 0.086693935 2.2233422 255 0 0
-0.6597291 0.12669885 2.2162156 255 0 0
-0.6475965 0.3524064 2.1724584 255 0 0
-0.6475965 0.3524064 2.1724584 255 0 0
-0.66671056 -0.01218649 2.2430205 255 0 0
-0.64668804 0.3698858 2.171602 255 0 0
-0.659116 0.09945292 2.2220912 255 0 0
-0.6620588 0.05992897 2.2323582 255 0 0
-0.6607858 0.04667326 2.233218 255 0 0
-0.63861686 0.40969193 2.1637921 255 0 0
-0.6643496 -0.10718075 2.2615068 255 0 0
-0.63667315 0.38539645 2.170364 255 0 0
-0.6339427 0.43000504 2.1652255 255 0 0
-0.65208656 0.08640143 2.2321517 255 0 0
-0.65208656 0.08640143 2.2321517 255 0 0
-0.64155614 0.23980719 2.1996796 255 0 0
-0.63699484 0.27367985 2.1939528 255 0 0
-0.63699484 0.27367985 2.1939528 255 0 0
-0.6442922 0.0631547 2.2371733 255 0 0
-0.8291731 -0.4877098 2.91208 255 0 0
-0.67423725 -0.18495326 2.7081122 255 0 0
-0.6458277 0.24893491 2.6127524 255 0 0
-0.66583085 -0.21254598 2.7155106 255 0 0
-0.6597836 -0.21230902 2.7137196 255 0 0
-0.65939766 -0.2156884 2.7198153 255 0 0
-0.6588889 -0.20034663 2.717664 255 0 0
-0.5991407 0.15933663 2.6662085 255 0 0
-0.591928 0.21397185 2.6621363 255 0 0
-0.5995376 0.018927116 2.702291 255 0 0
-0.59076405 0.016131433 2.70898 255 0 0
-0.57963896 0.30444455 2.655056 255 0 0
-0.57963896 0.30444455 2.655056 255 0 0
-0.57437044 0.2796553 2.6606526 255 0 0
-0.6116943 -0.26857382 2.8973753 255 0 0
-0.5627773 -0.029890023 2.731736 255 0 0
-0.553776 0.1828451 2.6908672 255 0 0
-0.5454242 0.32911298 2.6662676 255 0 0
-0.5469266 -0.09682471 2.7657678 255 0 0
-0.53318304 -0.11071104 2.7785563 255 0 0
-0.57933736 -0.4973394 3.155415 255 0 0
-0.49546027 0.08879486 2.7697425 255 0 0
-0.49546027 0.08879486 2.7697425 255 0 0
-0.4990279 -0.20597029 2.8124287 255 0 0
-0.48235682 0.21363543 2.726612 255 0 0
-0.48235682 0.21363543 2.726612 255 0 0
-0.4911728 -0.21334173 2.8172653 255 0 0
-0.48931128 -0.21068905 2.8180423 255 0 0
-0.46067584 0.004559858 2.7788582 255 0 0
-0.5226871 -0.5004716 3.1942146 255 0 0
-0.4312694 0.29601067 2.7291012 255 0 0
-0.42465502 0.3197106 2.7407217 255 0 0
-0.42748505 0.14744265 2.7734575 255 0 0
-0.42126802 0.121302016 2.7830334 255 0 0
-0.41522664 0.32626665 2.7406719 255 0 0
-0.4194938 0.12549956 2.7840075 255 0 0
-0.41784176 0.19305132 2.7722814 255 0 0
-0.47994488 -0.4726773 3.202139 255 0 0
-0.41596907 0.15351486 2.7793481 255 0 0
-0.41596907 0.15351486 2.7793481 255 0 0
-0.41596907 0.15351486 2.7793481 255 0 0
-0.41192013 0.2873845 2.757045 255 0 0
-0.41046098 0.22083266 2.7672086 255 0 0
-0.40622026 0.22321184 2.7707884 255 0 0
-0.4685741 -0.47351012 3.2071404 255 0 0
-0.39847767 0.27621242 2.7627463 255 0 0
-0.40142205 0.15440427 2.784507 255 0 0
-0.38510397 0.2896806 2.7690637 255 0 0
-0.38542458 0.06563055 2.8153203 255 0 0
-0.3802631 0.2140373 2.7833228 255 0 0
-0.37406746 0.22723944 2.787034 255 0 0
-0.36835098 0.25996816 2.7796953 255 0 0
-0.39500597 -0.46999332 3.246122 255 0 0
-0.3279888 -0.19768779 2.9082656 255 0 0
-0.28459838 -0.14423579 2.9250932 255 0 0
-0.29063687 -0.49516264 3.227629 255 0 0
-0.2837081 -0.36592853 3.1996286 255 0 0
-0.28545034 -0.52225477 3.2309992 255 0 0
-0.27227533 -0.37213966 3.2078235 255 0 0
-0.14498287 0.16316943 2.8301167 255 0 0
-0.16459195 -0.83758295 3.4698195 255 0 0
-0.16476014 -0.833499 3.4738426 255 0 0
-0.16404492 -0.7719923 3.4601111 255 0 0
-0.16127759 -0.83877563 3.4761992 255 0 0
-0.15635136 -0.66824514 3.3965447 255 0 0
-0.15888521 -0.83503014 3.4766238 255 0 0
-0.11377545 0.018671066 2.8801475 255 0 0
-0.10675586 -0.050163087 2.8778107 255 0 0
-0.10675586 -0.050163087 2.8778107 255 0 0
-0.104163535 0.0011138807 2.887904 255 0 0
-0.104163535 0.0011138807 2.887904 255 0 0
-0.09813491 -0.08443678 2.9160404 255 0 0
-0.08656055 -0.12418241 2.9310167 255 0 0
-0.083391644 -0.095449455 2.9256828 255 0 0
-0.07644569 0.062283326 2.8923414 255 0 0
-0.064674266 0.052144583 2.8998845 255 0 0
-0.050606538 0.34778047 2.8352294 255 0 0
-0.03731421 0.40503627 2.8611138 255 0 0
-0.0284959 0.40049246 2.8661945 255 0 0
-0.026448973 -0.19784014 2.9706028 255 0 0
-0.026674649 -0.29030305 2.9925964 255 0 0
-0.023592923 0.40542233 2.8682814 255 0 0
-0.022564035 0.39267796 2.8698497 255 0 0
-0.010121068 -0.19516201 2.9779937 255 0 0
-0.0028311952 0.40983716 2.8816226 255 0 0
0.00014183528 0.40231067 2.8803608 255 0 0
0.002211412 -0.23546723 2.9953644 255 0 0
0.023855701 -0.17153189 2.9939437 255 0 0
0.040287964 -0.09596028 2.9888172 255 0 0
0.03929133 0.24246548 2.911913 255 0 0
0.04693164 -0.51778185 3.4007268 255 0 0
0.047033086 -0.5103063 3.403694 255 0 0
0.047033086 -0.5103063 3.403694 255 0 0
0.049083084 -0.47085232 3.386767 255 0 0
0.070938386 -0.33958954 3.3691096 255 0 0
0.06681499 0.3164162 2.8884566 255 0 0
0.107111 -0.4999868 3.4194808 255 0 0
0.10008251 0.031941235 2.991746 255 0 0
0.10226936 -0.0065721204 2.9971213 255 0 0
0.1367268 -0.22387753 3.2798207 255 0 0
0.1367268 -0.22387753 3.2798207 255 0 0
0.12795028 0.18696652 2.968033 255 0 0
0.13917848 -0.004797169 3.0137508 255 0 0
0.2592643 -0.14973345 3.1913114 255 0 0
0.28413224 -0.018670648 3.1493669 255 0 0
0.2948323 0.3538008 3.0991251 255 0 0
0.3450206 -0.41867122 3.5799317 255 0 0
0.31037733 0.022397472 3.1848 255 0 0
0.31992146 0.14769357 3.1587582 255 0 0
0.32254252 -0.0067599746 3.1754062 255 0 0
0.31893387 0.32091087 3.1262007 255 0 0
0.3243509 0.11642263 3.1701863 255 0 0
0.32429057 0.44253585 3.1046243 255 0 0
0.32429057 0.44253585 3.1046243 255 0 0
0.33044145 0.31166628 3.1333199 255 0 0
0.333189 0.367713 3.1285906 255 0 0
0.34091997 0.20106858 3.161435 255 0 0
0.34293976 0.24870357 3.1497276 255 0 0
0.3417542 0.3249401 3.13821 255 0 0
0.34924304 0.28305036 3.1474636 255 0 0
0.3556887 0.27834913 3.1565993 255 0 0
0.36252955 0.026340868 3.2096126 255 0 0
0.3599518 0.16741768 3.1759787 255 0 0
0.3599518 0.16741768 3.1759787 255 0 0
0.35994533 0.20888326 3.1754477 255 0 0
0.36047065 0.3563187 3.131411 255 0 0
0.36047065 0.3563187 3.131411 255 0 0
0.36120063 0.36927503 3.1375928 255 0 0
0.3634086 0.28402007 3.1574805 255 0 0
0.3634086 0.28402007 3.1574805 255 0 0
0.3634086 0.28402007 3.1574805 255 0 0
0.3621685 0.3824626 3.1364586 255 0 0
0.43169156 -0.56732315 3.689968 255 0 0
0.4384152 -0.5379018 3.682314 255 0 0
0.4392651 -0.504212 3.678696 255 0 0
0.4392651 -0.504212 3.678696 255 0 0
0.4402039 -0.4687894 3.6650722 255 0 0
0.38561603 0.2860717 3.1614537 255 0 0
0.40200382 -0.12560682 3.261903 255 0 0
0.4101775 -0.13982983 3.2647223 255 0 0
0.42417362 -0.16199724 3.2689862 255 0 0
0.4415803 -0.14772244 3.281237 255 0 0
0.47313413 -0.22281633 3.4364944 255 0 0
0.47739235 -0.22839324 3.4418304 255 0 0
0.46065408 0.27874362 3.2139347 255 0 0
0.50323707 -0.19390637 3.4483147 255 0 0
0.47366026 0.06398355 3.2364962 255 0 0
0.48365086 -0.04192786 3.282414 255 0 0
0.48082367 0.03725107 3.254935 255 0 0
0.48082367 0.03725107 3.254935 255 0 0
0.50569147 0.09194329 3.2632577 255 0 0
0.5117132 0.25872457 3.2361417 255 0 0
0.5071859 0.40433863 3.199111 255 0 0
0.5219018 0.04345836 3.2810671 255 0 0
0.5293615 0.39030978 3.2134323 255 0 0
0.5292982 0.42934006 3.2062187 255 0 0
0.5292982 0.42934006 3.2062187 255 0 0
0.52913964 0.47535807 3.1977415 255 0 0
0.529081 0.5140664 3.1905992 255 0 0
0.529081 0.5140664 3.1905992 255 0 0
0.5424115 0.11959973 3.2745574 255 0 0
0.53121156 0.5553599 3.1832123 255 0 0
0.53142893 0.6089595 3.1708868 255 0 0
0.5397774 0.36752412 3.2165372 255 0 0
0.553304 0.08695063 3.2858396 255 0 0
0.5571021 0.38791525 3.2268693 255 0 0
0.5660982 0.4164216 3.2204952 255 0 0
0.5975752 -0.13621423 3.3517363 255 0 0
0.65828794 -0.47566867 3.6654518 255 0 0
0.6682575 -0.5006608 3.6718428 255 0 0
0.65502 -0.021817297 3.3558393 255 0 0
0.63847375 0.4182905 3.2674484 255 0 0
0.664269 0.42035845 3.2669852 255 0 0
0.7625648 -0.49380794 3.7064037 255 0 0
0.6781756 0.41839367 3.2741847 255 0 0
0.76755774 -0.49232188 3.70614 255 0 0
0.68466526 0.33004716 3.2900352 255 0 0
0.6901153 0.2840423 3.3057187 255 0 0
0.6916084 0.34556472 3.2960193 255 0 0
0.77791864 -0.48576096 3.7127542 255 0 0
0.7063369 0.041234557 3.3633716 255 0 0
0.7868392 -0.45947292 3.7188694 255 0 0
0.6978538 0.5085803 3.2651994 255 0 0
0.71183306 0.2949227 3.3113313 255 0 0
0.80045813 -0.47721073 3.7226298 255 0 0
0.8055943 -0.43823275 3.7224734 255 0 0
0.8147502 -0.47557876 3.7294545 255 0 0
0.8423459 -0.47365567 3.7379837 255 0 0
0.8528692 -0.49461332 3.7617388 255 0 0
0.82839257 -0.072268195 3.001537 255 0 0
0.871774 0.01771679 3.029512 255 0 0
0.95941734 -0.40997493 3.3245096 255 0 0
0.8812039 0.039200388 3.0294492 255 0 0
0.8836949 0.023580402 3.0275404 255 0 0
0.8903048 -0.055950303 3.036404 255 0 0
0.8892171 -0.07820318 3.0257826 255 0 0
0.8928898 0.101039246 3.0227537 255 0 0
0.90631384 0.11532828 3.0256753 255 0 0
0.8874553 0.51193744 2.9416146 255 0 0
0.8876639 0.5524278 2.935025 255 0 0
0.89879924 0.36346543 2.9741893 255 0 0
0.8904923 0.55786514 2.9344702 255 0 0
0.8920178 0.5767374 2.9324014 255 0 0
0.938569 -0.025948558 3.0674732 255 0 0
0.9237153 0.47400597 2.964082 255 0 0
0.9513806 0.068459906 3.0570269 255 0 0
0.95587534 0.04296263 3.0614796 255 0 0
0.9381353 0.37415305 2.994775 255 0 0
0.945649 0.29238707 3.016488 255 0 0
0.9471672 0.2699445 3.0149336 255 0 0
0.94804364 0.3192129 3.0106494 255 0 0
0.9446806 0.38981828 2.9926968 255 0 0
0.94589674 0.4731936 2.9762142 255 0 0
0.94830984 0.44768548 2.980569 255 0 0
0.94791836 0.6083957 2.9454494 255 0 0
0.94791836 0.6083957 2.9454494 255 0 0
0.98114794 0.23354076 3.0368893 255 0 0
0.9757132 0.4759549 2.9950821 255 0 0
0.97869045 0.6487115 2.9740655 255 0 0
0.9993949 0.24798867 3.0350661 255 0 0
1.0204004 0.3087619 3.0347617 255 0 0
1.077164 0.2388132 3.0781157 255 0 0
1.1350933 -0.15548265 3.2214851 255 0 0
1.0957459 0.17747276 3.1012714 255 0 0
1.0865155 0.25111192 3.0745435 255 0 0
1.0813701 0.52727383 3.0364354 255 0 0
1.1005298 0.39288214 3.0648575 255 0 0
1.124388 0.17890526 3.1126192 255 0 0
1.0848175 0.64674056 2.986795 255 0 0
1.1113857 0.46092513 3.0591235 255 0 0
1.1024202 0.5658103 3.033223 255 0 0
1.1414798 0.079168454 3.1428251 255 0 0
1.1124487 0.52508426 3.0469747 255 0 0
1.1384622 0.33831936 3.091096 255 0 0
1.1589574 0.118602715 3.1398323 255 0 0
1.1159688 0.61534125 3.0182352 255 0 0
1.1690124 0.05589703 3.1560645 255 0 0
1.1731998 -0.036884706 3.1621456 255 0 0
1.1515414 0.33144102 3.100391 255 0 0
1.1731158 0.3093211 3.1155431 255 0 0
1.2040325 0.032246426 3.179792 255 0 0
1.2040325 0.032246426 3.179792 255 0 0
1.2051154 0.028514298 3.179856 255 0 0
1.2084782 0.017339462 3.1830385 255 0 0
1.1748908 0.4704926 3.0874224 255 0 0
1.2112519 0.020585753 3.1816812 255 0 0
1.2240151 -0.0398088 3.1809874 255 0 0
1.2256527 -0.064961076 3.1826642 255 0 0
1.2295464 -0.059543047 3.1842196 255 0 0
1.2289155 -0.04397804 3.1796622 255 0 0
1.2322497 -0.05411326 3.1826992 255 0 0
