ply
format ascii 1.0
element vertex 587
property float x
property float y
property float z
property int red
property int blue
property int green
end_header
-2.5375705 0.6731421 5.903027 100 100 155
-2.5357473 0.39225408 5.9914465 100 100 155
-2.5061662 0.45943847 5.9562054 100 100 155
-2.5061662 0.45943847 5.9562054 100 100 155
-2.509271 0.3884637 5.9825826 100 100 155
-2.5480936 -0.03305799 6.075814 100 100 155
-2.5565696 -0.24719997 6.124427 100 100 155
-2.5143692 0.23113085 6.047777 100 100 155
-2.5106945 0.19504187 6.043398 100 100 155
-2.5556664 -0.2886439 6.1470904 100 100 155
-2.551409 -0.34614566 6.151516 100 100 155
-2.4877782 0.3499704 6.0194616 100 100 155
-2.4982834 0.15538199 6.058126 100 100 155
-2.5115454 -0.13143139 6.107488 100 100 155
-2.399306 0.7845478 5.893843 100 100 155
-2.3689203 1.1624935 5.8334227 100 100 155
-2.3925636 0.7119749 5.941766 100 100 155
-2.4512506 0.08771213 6.085851 100 100 155
-2.4512506 0.08771213 6.085851 100 100 155
-2.4748228 -0.3395555 6.140194 100 100 155
-2.3883429 0.70092434 5.956513 100 100 155
-2.332527 1.0642219 5.8667946 100 100 155
-2.448042 -0.17646192 6.143882 100 100 155
-2.3504555 0.8865208 5.914879 100 100 155
-2.3501804 0.7835562 5.933545 100 100 155
-2.3681436 0.45295915 6.017177 100 100 155
-2.386314 0.028304977 6.107157 100 100 155
-2.3359935 0.39865017 6.0137243 100 100 155
-2.326707 0.4701666 6.028011 100 100 155
-2.391454 -0.33776295 6.1929984 100 100 155
-2.3661964 -0.020702608 6.136078 100 100 155
-2.38434 -0.28868097 6.1859984 100 100 155
-2.3666933 -0.13088594 6.1526685 100 100 155
-2.3666933 -0.13088594 6.1526685 100 100 155
-2.3823311 -0.3596646 6.213789 100 100 155
-2.3844848 -0.3847036 6.2243657 100 100 155
-2.3130822 0.09806061 6.124967 100 100 155
-2.3287382 -0.50609463 6.166454 100 100 155
-2.3532836 -0.58761 6.2600756 100 100 155
-2.328663 -0.54315126 6.205726 100 100 155
-2.328663 -0.54315126 6.205726 100 100 155
-2.254286 0.2806738 6.065329 100 100 155
-2.4696476 -1.2313224 6.6989207 100 100 155
-2.3144407 -0.8520737 6.3342776 100 100 155
-2.2574701 -0.15569082 6.2493725 100 100 155
-2.203103 -0.3112357 6.2333007 100 100 155
-2.17951 -0.45128912 6.2326093 100 100 155
-2.3873327 -1.5563577 6.9357333 100 100 155
-2.3845732 -1.6385392 6.968735 100 100 155
-2.3894775 -1.788372 7.016732 100 100 155
-2.3857841 -1.8053794 7.020693 100 100 155
-2.372716 -1.8101741 7.010512 100 100 155
-2.372716 -1.8101741 7.010512 100 100 155
-2.364435 -1.7870932 7.0082307 100 100 155
-2.3032978 -1.3646064 6.8430624 100 100 155
-2.100989 -0.7058958 6.390302 100 100 155
-1.9954128 0.59025735 6.0879254 100 100 155
-2.0061536 0.48935762 6.132342 100 100 155
-1.975591 0.78277487 6.074387 100 100 155
-2.0194726 0.072620116 6.207151 100 100 155
-1.997131 0.3855449 6.155342 100 100 155
-1.9415036 0.750272 6.0590534 100 100 155
-2.0078044 -0.11288605 6.2556596 100 100 155
-2.0078044 -0.11288605 6.2556596 100 100 155
-1.9401865 0.69413245 6.0802913 100 100 155
-2.0384512 -0.55384964 6.374723 100 100 155
-1.9065564 1.075148 5.99897 100 100 155
-2.0120857 -0.34570664 6.321174 100 100 155
-1.9765165 -0.05683545 6.2527814 100 100 155
-1.9703736 -0.1596831 6.2666445 100 100 155
-1.9804518 -0.3840079 6.372962 100 100 155
-1.9804518 -0.3840079 6.372962 100 100 155
-1.8830252 0.6500692 6.1249456 100 100 155
-1.9301606 -0.15190603 6.2903123 100 100 155
-1.903812 0.11854308 6.242107 100 100 155
-1.9176359 -0.51932317 6.3015957 100 100 155
-1.8369317 0.8946455 6.059481 100 100 155
-1.908955 -0.21174444 6.3123283 100 100 155
-1.8283325 0.8264968 6.0924377 100 100 155
-1.8553644 0.25878677 6.2111063 100 100 155
-1.7970009 1.0905116 6.026023 100 100 155
-1.8794893 -0.117971376 6.294869 100 100 155
-1.8755631 -0.37874794 6.352195 100 100 155
-1.8546978 -0.15175743 6.312996 100 100 155
-1.839502 0.053580068 6.270856 100 100 155
-1.8379056 0.1486005 6.2666817 100 100 155
-1.8071775 0.412997 6.1793637 100 100 155
-1.7860862 0.76661 6.119116 100 100 155
-1.8199806 -0.10762037 6.3141146 100 100 155
-1.8212445 -0.2139702 6.3404517 100 100 155
-1.778902 -0.5184175 6.357463 100 100 155
-1.8530633 0.62915295 7.1083827 100 100 155
-1.8487093 -0.018022122 7.305668 100 100 155
-1.8669702 -0.60212046 7.452484 100 100 155
-1.8664649 -0.6356794 7.4606533 100 100 155
-1.8598102 -0.6475617 7.4438252 100 100 155
-1.8430789 -0.67573464 7.469083 100 100 155
-2.0107663 -1.2747339 8.272287 100 100 155
-1.7823615 -0.015895383 7.374528 100 100 155
-1.749318 -0.6523692 7.4878907 100 100 155
-1.9635227 -1.4815382 8.409684 100 100 155
-1.9584674 -1.459716 8.412378 100 100 155
-1.9547312 -1.4758646 8.42098 100 100 155
-1.9460878 -1.480391 8.422507 100 100 155
-1.7144911 -0.38568476 7.451374 100 100 155
-1.9423683 -1.5730103 8.44447 100 100 155
-1.907697 -1.4600697 8.41941 100 100 155
-1.6630052 0.0017680753 7.374647 100 100 155
-1.6581289 0.10454562 7.3539133 100 100 155
-1.6581289 0.10454562 7.3539133 100 100 155
-1.6182481 0.7063093 7.2292223 100 100 155
-1.5848782 0.7044354 7.2358017 100 100 155
-1.5848782 0.7044354 7.2358017 100 100 155
-1.8378701 -1.3599385 8.380848 100 100 155
-1.5849179 0.62418777 7.2576113 100 100 155
-1.8516519 -1.427915 8.4559965 100 100 155
-1.5436867 -0.0971585 7.4584374 100 100 155
-1.5160887 0.38145772 7.3320007 100 100 155
-1.5265152 -0.11939852 7.4499583 100 100 155
-1.5029376 -0.13240452 7.4472017 100 100 155
-1.6666113 -1.0651599 8.350531 100 100 155
-1.4995347 -0.3633061 7.5307956 100 100 155
-1.6768774 -1.3963388 8.499321 100 100 155
-1.4846909 -0.43238643 7.559931 100 100 155
-1.4632621 -0.40196902 7.5705633 100 100 155
-1.4959496 -1.3383485 8.487901 100 100 155
-1.2792977 -0.22974229 7.5176344 100 100 155
-1.2533464 -0.25075984 7.5166583 100 100 155
-1.2533464 -0.25075984 7.5166583 100 100 155
-1.2385095 -0.45299068 7.615756 100 100 155
-1.2289486 -0.32565203 7.6227736 100 100 155
-1.216402 -0.32378238 7.608902 100 100 155
-1.1546638 0.89421415 7.3358397 100 100 155
-1.1491885 0.9944235 7.3184853 100 100 155
-1.1791371 0.13162687 7.511629 100 100 155
-1.1517893 0.73564726 7.396448 100 100 155
-1.134852 0.60120636 7.4158382 100 100 155
-1.1569563 0.023458906 7.550874 100 100 155
-1.1351984 0.4020473 7.4826784 100 100 155
-1.1401367 -0.077683166 7.5585217 100 100 155
-1.2674676 -1.3657141 8.584205 100 100 155
-1.2674676 -1.3657141 8.584205 100 100 155
-1.0782866 0.6169748 7.4302793 100 100 155
-1.0979285 0.07980561 7.556417 100 100 155
-1.0712924 0.8352484 7.3865476 100 100 155
-1.1572957 -0.738514 8.051441 100 100 155
-1.1577421 -0.7716492 8.0912285 100 100 155
-1.0272757 1.3341217 7.2638197 100 100 155
-0.97029036 1.5096267 6.9161124 100 100 155
-1.0371362 0.6883099 7.3937902 100 100 155
-1.0371362 0.6883099 7.3937902 100 100 155
-1.0420961 0.6527631 7.4469523 100 100 155
-1.0600007 -0.10681707 7.618263 100 100 155
-1.196714 -1.3727769 8.6286335 100 100 155
-1.037806 0.31303462 7.521332 100 100 155
-1.0109818 0.78995687 7.3905816 100 100 155
-1.0162504 0.6048666 7.4256997 100 100 155
-1.170998 -1.3053486 8.570889 100 100 155
-1.0106199 0.48920083 7.477024 100 100 155
-1.0106199 0.48920083 7.477024 100 100 155
-1.0235418 -0.026142996 7.6015997 100 100 155
-1.0770239 -1.3740915 8.669532 100 100 155
-1.067928 -1.3557172 8.669286 100 100 155
-0.8873011 -0.62709713 7.774289 100 100 155
-0.84961784 0.8410479 7.4922204 100 100 155
-0.8756907 -0.6635768 7.7889214 100 100 155
-0.96610147 -1.3624289 8.69405 100 100 155
-0.81719893 0.55427074 7.5439587 100 100 155
-0.74564326 0.9592856 7.4862957 100 100 155
-0.7518646 0.51743364 7.5652804 100 100 155
-0.80059564 -0.7362355 8.175273 100 100 155
-0.81807595 -1.6457052 8.551793 100 100 155
-0.74149513 -0.29798698 7.768112 100 100 155
-0.800431 -1.0749791 8.464067 100 100 155
-0.8010539 -1.6211574 8.557915 100 100 155
-0.79467 -1.0846233 8.496388 100 100 155
-0.7833292 -1.0480837 8.437892 100 100 155
-0.783288 -1.0634655 8.468854 100 100 155
-0.7021764 -0.07791998 7.7234426 100 100 155
-0.7728695 -1.1191036 8.513491 100 100 155
-0.7638627 -1.1017109 8.481316 100 100 155
-0.7685478 -1.1775198 8.528441 100 100 155
-0.7685478 -1.1775198 8.528441 100 100 155
-0.77000517 -1.5057915 8.577072 100 100 155
-0.77000517 -1.5057915 8.577072 100 100 155
-0.7686258 -1.4151875 8.562598 100 100 155
-0.7528632 -1.0636246 8.48625 100 100 155
-0.66859466 0.37001288 7.619382 100 100 155
-0.73306555 -1.0897156 8.495938 100 100 155
-0.65003747 -0.053235207 7.7020993 100 100 155
-0.6404844 -1.3360813 8.786791 100 100 155
-0.51716715 0.49702573 7.443815 100 100 155
-0.49686095 0.025806593 7.5524836 100 100 155
-0.47228578 1.2425289 7.251384 100 100 155
-0.44835615 0.8236147 7.377623 100 100 155
-0.5114102 -1.9453605 8.960416 100 100 155
-0.4821235 -1.9177674 8.934631 100 100 155
-0.47568667 -1.849649 8.928534 100 100 155
-0.4031099 -0.077157594 7.5923414 100 100 155
-0.39448914 0.42063558 7.4945774 100 100 155
-0.39448914 0.42063558 7.4945774 100 100 155
-0.4492375 -1.3144813 8.600857 100 100 155
-0.3895405 -0.24580048 7.578275 100 100 155
-0.3895405 -0.24580048 7.578275 100 100 155
-0.45340306 -1.883319 8.912501 100 100 155
-0.35641232 0.5568894 7.4033465 100 100 155
-0.36757496 -0.37880635 7.719478 100 100 155
-0.3598416 -0.36400977 7.7226067 100 100 155
-0.40248066 -2.0271804 9.009771 100 100 155
-0.40248066 -2.0271804 9.009771 100 100 155
-0.30967748 -0.06193564 7.608263 100 100 155
-0.35722968 -1.4763608 8.741748 100 100 155
-0.33256096 -1.3573343 8.648855 100 100 155
-0.2848652 -0.10599406 7.646127 100 100 155
-0.27304852 0.39953357 7.5550756 100 100 155
-0.29369387 -1.3119704 8.651594 100 100 155
-0.2585575 -0.29977396 7.639342 100 100 155
-0.25705424 -0.41837174 7.7483783 100 100 155
-0.20392695 0.7000612 7.427136 100 100 155
-0.21166892 -1.5630469 8.827911 100 100 155
-0.17253426 -0.56443244 7.777788 100 100 155
-0.16329183 0.49824047 7.5402484 100 100 155
-0.16162702 -0.27265364 7.652387 100 100 155
-0.16204168 -0.5893112 7.785517 100 100 155
-0.15616547 -0.24037689 7.6485553 100 100 155
-0.17480117 -1.2967315 8.662191 100 100 155
-0.17480117 -1.2967315 8.662191 100 100 155
-0.14584869 -0.08509666 7.674278 100 100 155
-0.11704799 0.091691144 7.705714 100 100 155
-0.113413475 0.34500962 7.66954 100 100 155
-0.1099066 0.4939362 7.608568 100 100 155
-0.1099066 0.4939362 7.608568 100 100 155
-0.10197975 -0.85714144 7.8884377 100 100 155
-0.08752251 -0.761105 7.8312693 100 100 155
-0.08262637 -0.82447064 7.865752 100 100 155
-0.07994058 -0.527256 7.8772655 100 100 155
-0.07994058 -0.527256 7.8772655 100 100 155
-0.071867526 -0.88093114 7.855593 100 100 155
-0.0642377 0.693857 7.509318 100 100 155
-0.06124382 0.17451443 7.7134857 100 100 155
-0.06124382 0.17451443 7.7134857 100 100 155
-0.03645223 -0.61592466 7.83389 100 100 155
-0.020133127 0.9376771 7.580217 100 100 155
-0.0140593685 1.319893 7.4838285 100 100 155
-0.01226473 -0.7682592 7.8594995 100 100 155
-0.0041686543 -0.7746717 7.8402963 100 100 155
-0.003989394 -0.7183262 7.853603 100 100 155
0.031110393 -0.64703393 7.8575144 100 100 155
0.04164205 -0.23237105 7.7157226 100 100 155
0.082072556 0.07834587 7.731754 100 100 155
0.085072786 0.039503533 7.7587366 100 100 155
0.08750766 -0.26056105 7.777589 100 100 155
0.10198149 -1.5792423 8.853087 100 100 155
0.10169628 -1.3353844 8.823674 100 100 155
0.105263 -1.5452722 8.880209 100 100 155
0.0946991 0.5123532 7.6348944 100 100 155
0.11086016 -1.4516585 8.84338 100 100 155
0.11383672 -1.5589371 8.824648 100 100 155
0.099227406 0.80188906 7.5557833 100 100 155
0.11681504 -1.2656934 8.819662 100 100 155
0.11395651 -0.27231914 7.7672987 100 100 155
0.1292263 -1.4393061 8.844705 100 100 155
0.15447587 -1.5427035 8.888022 100 100 155
0.15313436 -0.34971666 7.8538423 100 100 155
0.15313436 -0.34971666 7.8538423 100 100 155
0.15857074 -0.33594128 7.8531 100 100 155
0.16087517 1.4145095 7.473032 100 100 155
0.16701126 0.7025985 7.5692506 100 100 155
0.19820334 -0.08338332 7.8126216 100 100 155
0.22318946 -0.035671588 7.7480044 100 100 155
0.26652974 -1.2781492 9.055648 100 100 155
0.2533923 -0.21583357 7.775133 100 100 155
0.25673437 -0.19587204 7.7975564 100 100 155
0.25408942 1.2878466 7.5012584 100 100 155
0.3246814 -0.7334613 8.529559 100 100 155
0.3138905 0.4684505 7.7300243 100 100 155
0.34472913 0.011821547 7.8374057 100 100 155
0.34945342 -0.052400485 7.8230667 100 100 155
0.35352865 -0.12493777 7.854039 100 100 155
0.42350405 -1.2232529 9.072973 100 100 155
0.5011963 -0.3678878 8.195754 100 100 155
0.56106323 -0.5255122 8.247019 100 100 155
0.582187 -0.5097326 8.224086 100 100 155
0.6176163 0.49687067 8.123582 100 100 155
0.618518 0.536837 7.953413 100 100 155
0.66718024 -0.15378854 8.1545515 100 100 155
0.7482272 -0.7113695 8.670434 100 100 155
0.7120529 -0.009962779 8.216563 100 100 155
0.7345941 0.5948089 8.0875435 100 100 155
0.75330025 -0.21624632 8.265914 100 100 155
0.7930472 -0.60220295 8.638176 100 100 155
0.87402946 -1.1907841 9.177494 100 100 155
0.78587604 0.89503235 8.037899 100 100 155
0.90570134 -1.2224376 9.243724 100 100 155
0.8060348 0.118666664 8.194776 100 100 155
0.78679216 1.2127836 7.962612 100 100 155
0.91519564 -1.2331612 9.241218 100 100 155
0.80353844 0.8277874 8.051412 100 100 155
0.8082254 0.5875208 8.10059 100 100 155
0.82587385 0.17499085 8.166906 100 100 155
0.8198858 0.8807134 8.047714 100 100 155
0.8198858 0.8807134 8.047714 100 100 155
0.8216318 0.9901658 8.036727 100 100 155
0.86517864 0.17091973 8.219546 100 100 155
0.86517864 0.17091973 8.219546 100 100 155
0.8512744 0.8144382 8.084209 100 100 155
0.8673324 0.28675684 8.187409 100 100 155
0.8718969 0.39151445 8.17559 100 100 155
0.87664825 0.51287246 8.140666 100 100 155
0.881013 0.9372274 8.074218 100 100 155
0.881013 0.9372274 8.074218 100 100 155
0.8801734 1.051005 8.041454 100 100 155
0.89013016 0.5982457 8.109025 100 100 155
0.9039183 0.024219645 8.238158 100 100 155
0.88192147 1.154692 8.031381 100 100 155
0.88192147 1.154692 8.031381 100 100 155
0.886518 1.2626317 8.023192 100 100 155
0.886518 1.2626317 8.023192 100 100 155
0.8880811 1.390316 7.985193 100 100 155
0.8880811 1.390316 7.985193 100 100 155
0.9247086 -0.052897405 8.272776 100 100 155
0.9408841 -0.24525547 8.3411665 100 100 155
0.93766457 0.073382705 8.259722 100 100 155
0.9246674 0.81807345 8.118207 100 100 155
1.0784807 -1.1958174 9.306267 100 100 155
1.094969 -1.4643918 9.41935 100 100 155
0.9570019 -0.11124661 8.231704 100 100 155
0.9700485 -0.25898695 8.320528 100 100 155
1.1007304 -1.4016645 9.41278 100 100 155
1.103463 -1.4114538 9.37954 100 100 155
0.99569505 -0.48886037 8.392441 100 100 155
1.0956779 -1.127876 9.206907 100 100 155
0.9837197 0.60557216 8.145719 100 100 155
1.156819 -1.2475824 9.368496 100 100 155
1.1604129 -1.2802395 9.371552 100 100 155
1.0257876 -0.11097842 8.2603445 100 100 155
1.1633959 -1.2605404 9.369465 100 100 155
1.1633959 -1.2605404 9.369465 100 100 155
1.0431253 -0.10659597 8.263612 100 100 155
1.0472392 0.57781845 8.226552 100 100 155
1.0552429 0.12294324 8.269131 100 100 155
1.0777644 -0.54672253 8.401369 100 100 155
1.0449965 0.96663994 8.119342 100 100 155
1.0449965 0.96663994 8.119342 100 100 155
1.0684422 0.89553005 8.127737 100 100 155
1.166099 -0.6562854 8.82931 100 100 155
1.0144545 1.6338528 7.652183 100 100 155
1.1773095 -0.6464519 8.798262 100 100 155
1.0971947 0.6480313 8.176324 100 100 155
1.1803536 -0.6267375 8.799462 100 100 155
1.1474335 -0.16074517 8.297873 100 100 155
1.220217 -0.6888264 8.801749 100 100 155
1.1682054 0.12755485 8.323194 100 100 155
1.1772089 0.5853645 8.284515 100 100 155
1.2752188 -0.6458054 8.826249 100 100 155
1.2323935 -0.22754219 8.430204 100 100 155
1.2925258 0.0075368215 8.386727 100 100 155
1.2925258 0.0075368215 8.386727 100 100 155
1.2677387 0.8095047 8.224661 100 100 155
1.2852846 0.46307263 8.30245 100 100 155
1.285825 0.5671559 8.268417 100 100 155
1.4402498 -1.0187414 9.176898 100 100 155
1.2952496 0.6635832 8.238089 100 100 155
1.328725 -0.010994464 8.415766 100 100 155
1.2985957 1.2282217 8.168427 100 100 155
1.3334248 0.20628715 8.371276 100 100 155
1.3342683 0.29930374 8.340937 100 100 155
1.3384643 0.41152152 8.330547 100 100 155
1.3416964 0.53488714 8.297457 100 100 155
1.3468239 0.7227416 8.258422 100 100 155
1.3755456 0.014211125 8.435157 100 100 155
1.347918 0.863472 8.247485 100 100 155
1.3507528 1.0801898 8.229228 100 100 155
1.3507528 1.0801898 8.229228 100 100 155
1.3557221 1.2828354 8.190786 100 100 155
1.3885633 -0.11224289 8.375395 100 100 155
1.3557037 1.4177575 8.1563835 100 100 155
1.3744401 0.80686605 8.253914 100 100 155
1.5776868 -1.3622422 9.319331 100 100 155
1.4030083 0.9077788 8.271768 100 100 155
1.4181596 0.6107395 8.34533 100 100 155
1.4221647 0.85924906 8.30088 100 100 155
1.5942497 -1.3316449 9.28493 100 100 155
1.6377873 -1.2505215 9.279586 100 100 155
1.6530207 -0.9302909 9.221052 100 100 155
1.4010354 1.5214049 7.8152146 100 100 155
1.4010354 1.5214049 7.8152146 100 100 155
1.6552125 -0.85994697 9.215543 100 100 155
1.4071805 1.5551643 7.834177 100 100 155
1.6773274 -1.292902 9.302522 100 100 155
1.6773274 -1.292902 9.302522 100 100 155
1.6942387 -1.4020323 9.307171 100 100 155
1.6970729 -1.3793157 9.3051405 100 100 155
1.8523841 -1.258085 9.987616 100 100 155
1.8738233 -1.2079324 9.971578 100 100 155
1.8841373 -1.1959232 9.972556 100 100 155
1.6187457 0.15153834 8.448257 100 100 155
1.6136835 0.83495027 8.301667 100 100 155
1.6614201 0.18871182 8.517594 100 100 155
1.6890681 -0.0729833 8.509849 100 100 155
1.6902443 0.022457093 8.500066 100 100 155
1.9162198 -0.99779767 9.616666 100 100 155
1.6976607 -0.09788222 8.508128 100 100 155
1.7125639 -0.13597143 8.509453 100 100 155
1.681919 1.513882 8.229238 100 100 155
1.681919 1.513882 8.229238 100 100 155
1.9223005 -1.3716363 9.387534 100 100 155
1.9334759 -1.2948885 9.442051 100 100 155
1.9343387 -1.3558718 9.414533 100 100 155
1.7204385 0.9296624 8.361406 100 100 155
1.9430667 -1.3066503 9.409752 100 100 155
1.7668556 0.030660756 8.545631 100 100 155
1.763387 0.118555225 8.514617 100 100 155
1.7501527 0.58942896 8.437179 100 100 155
1.7659564 -0.022574147 8.499071 100 100 155
1.9621602 -1.3513185 9.4078455 100 100 155
1.9796447 -1.1657642 9.369907 100 100 155
1.9785464 -1.1184719 9.364028 100 100 155
1.806107 0.107419014 8.536379 100 100 155
1.806107 0.107419014 8.536379 100 100 155
1.7816302 0.78639007 8.420746 100 100 155
1.7836552 0.8690612 8.417075 100 100 155
1.9987828 -1.2173419 9.398904 100 100 155
1.7730054 1.6004937 8.271916 100 100 155
2.024802 -1.3742453 9.428221 100 100 155
2.0293543 -1.230804 9.419559 100 100 155
1.8207829 0.6471997 8.428114 100 100 155
1.7996737 1.4696838 8.303143 100 100 155
2.0243084 -1.100309 9.32219 100 100 155
1.8346354 0.70290124 8.398548 100 100 155
1.9964254 -0.8513387 9.108267 100 100 155
2.0783608 -1.375892 9.4802685 100 100 155
1.8275896 1.4978466 8.300246 100 100 155
1.8275896 1.4978466 8.300246 100 100 155
2.0026114 -0.87368447 9.079442 100 100 155
1.8204534 1.6931647 8.24255 100 100 155
1.8420085 1.4806604 8.301053 100 100 155
2.1055102 -1.3189075 9.470224 100 100 155
1.8557638 0.8590423 8.337444 100 100 155
1.8441448 1.5952324 8.247033 100 100 155
1.8585324 0.9123767 8.31194 100 100 155
1.8585324 0.9123767 8.31194 100 100 155
2.1173487 -1.3173592 9.435779 100 100 155
2.1173487 -1.3173592 9.435779 100 100 155
2.143512 -1.3703126 9.493648 100 100 155
2.077414 -1.0642307 9.133218 100 100 155
1.8804542 0.8210441 8.195556 100 100 155
1.9456697 -0.48034906 8.207323 100 100 155
1.9576342 -0.51733845 8.140299 100 100 155
1.9633781 0.5683604 8.038428 100 100 155
1.9729642 -0.21132167 7.987448 100 100 155
1.9729642 -0.21132167 7.987448 100 100 155
1.9753506 -0.18925992 7.985993 100 100 155
1.9835471 -0.2107525 7.963748 100 100 155
1.9733139 1.5110778 7.879927 100 100 155
1.9941646 -0.22562888 7.89738 100 100 155
2.0466955 0.026499355 7.9014335 100 100 155
2.2477357 -1.2262495 8.649884 100 100 155
2.1406593 -0.60171396 8.111572 100 100 155
2.0630481 0.8492331 7.820233 100 100 155
2.0860214 -0.11656106 7.794436 100 100 155
2.0882897 -0.089688815 7.7929215 100 100 155
2.0787013 0.4423738 7.708154 100 100 155
2.0802674 0.47936845 7.6651745 100 100 155
2.0869718 -0.29048496 7.6111765 100 100 155
2.1158154 -0.20710565 7.707036 100 100 155
2.101413 0.659925 7.656265 100 100 155
2.1116657 0.61617875 7.6547365 100 100 155
2.3504908 -1.5540437 8.503729 100 100 155
2.1134703 0.68420416 7.6332884 100 100 155
2.0858765 1.6541283 7.5337367 100 100 155
2.128748 0.009094653 7.678007 100 100 155
2.3456614 -1.2677695 8.425085 100 100 155
2.36875 -1.3941157 8.496766 100 100 155
2.1125681 1.3363558 7.546151 100 100 155
2.352245 -1.1645236 8.36542 100 100 155
2.1348555 0.6943038 7.587583 100 100 155
2.2605658 -0.7113583 8.021733 100 100 155
2.4094932 -1.2683074 8.455276 100 100 155
2.4094932 -1.2683074 8.455276 100 100 155
2.2024803 -0.06316613 7.685616 100 100 155
2.161054 0.43548924 7.5329566 100 100 155
2.1740866 0.512298 7.569757 100 100 155
2.1861627 0.58916223 7.5670347 100 100 155
2.2157683 -0.2735286 7.648952 100 100 155
2.1854324 0.742778 7.5366454 100 100 155
2.2717683 -0.43869922 7.832488 100 100 155
2.232866 -0.048415765 7.6814356 100 100 155
2.2142975 0.36045164 7.609308 100 100 155
2.1930292 0.45857945 7.5271006 100 100 155
2.2404625 -0.11046737 7.679676 100 100 155
2.2528906 -0.053567015 7.6775746 100 100 155
2.1909473 1.2983526 7.459649 100 100 155
2.2671824 0.09738319 7.6904335 100 100 155
2.245493 0.84822184 7.547884 100 100 155
2.2543218 0.67782575 7.5508394 100 100 155
2.2543218 0.67782575 7.5508394 100 100 155
2.247285 1.0656735 7.519148 100 100 155
2.3082206 -0.2719798 7.7112136 100 100 155
2.300541 -0.003021024 7.686722 100 100 155
2.275452 0.45939535 7.595108 100 100 155
2.248327 1.1700208 7.4972544 100 100 155
2.248327 1.1700208 7.4972544 100 100 155
2.2515776 1.273833 7.490332 100 100 155
2.3349104 -0.32408652 7.7295003 100 100 155
2.2876651 0.9199483 7.55861 100 100 155
2.3488548 -0.2661987 7.706059 100 100 155
2.4174602 -0.5551919 7.8679776 100 100 155
2.4031963 -0.3604118 7.8218694 100 100 155
2.320946 1.0033062 7.548076 100 100 155
2.4160066 -0.59812534 7.8451166 100 100 155
2.396309 -0.15159266 7.7735877 100 100 155
2.3530524 0.8069161 7.6097803 100 100 155
2.397374 -0.26261523 7.733638 100 100 155
2.3527024 0.79579437 7.592291 100 100 155
2.3527024 0.79579437 7.592291 100 100 155
2.4089167 -0.17549372 7.7710247 100 100 155
2.3795989 0.42812642 7.6779947 100 100 155
2.408903 -0.0020382626 7.745695 100 100 155
2.40384 0.17571743 7.721345 100 100 155
2.3812277 0.61607385 7.633267 100 100 155
2.4155226 0.101790026 7.741535 100 100 155
2.4155226 0.101790026 7.741535 100 100 155
2.4331834 -0.20103337 7.7890744 100 100 155
2.3861415 0.56202656 7.631641 100 100 155
2.3959637 0.68707275 7.646347 100 100 155
2.3848522 0.8993159 7.603296 100 100 155
2.3876867 0.86266744 7.603976 100 100 155
2.4390783 0.099540904 7.757082 100 100 155
2.416834 0.41720986 7.670421 100 100 155
2.4283142 0.6534406 7.6820245 100 100 155
2.3943806 1.0737083 7.5756836 100 100 155
2.3969855 1.0069466 7.575176 100 100 155
2.3928492 1.1175474 7.5544553 100 100 155
2.4381616 0.43819043 7.688216 100 100 155
2.403288 1.3497301 7.546961 100 100 155
2.4064305 1.4131874 7.5243692 100 100 155
2.4592683 0.847481 7.631355 100 100 155
2.4666114 1.1855705 7.5972133 100 100 155
2.5262225 -0.0038845942 7.762898 100 100 155
2.4885569 1.5174206 7.6099215 100 100 155
2.520213 0.50724477 7.688546 100 100 155
2.5886066 1.0218437 7.656204 100 100 155
2.5675926 1.4648777 7.5723534 100 100 155
2.694003 -0.24724036 7.845713 100 100 155
2.694003 -0.24724036 7.845713 100 100 155
2.6540692 0.7673278 7.7318287 100 100 155
2.6820114 0.48166886 7.7739863 100 100 155
2.7138345 0.020652847 7.856748 100 100 155
2.7353835 -0.24314496 7.856321 100 100 155
2.706341 0.48126933 7.767078 100 100 155
2.7622056 -0.11670443 7.8861604 100 100 155
2.7604537 -0.03158142 7.8664856 100 100 155
2.7597754 0.26432136 7.8425937 100 100 155
2.8127377 -0.2560894 7.9592776 100 100 155
2.7808874 0.20427202 7.8558197 100 100 155
2.8175373 0.2095955 7.8906875 100 100 155
2.8175373 0.2095955 7.8906875 100 100 155
2.7926192 0.4492936 7.8064184 100 100 155
2.817783 0.21087492 7.8461103 100 100 155
2.8134649 0.6979374 7.79797 100 100 155
2.7957299 1.0324782 7.7350087 100 100 155
2.7999969 1.1936473 7.7105155 100 100 155
2.822248 0.9970991 7.7493253 100 100 155
2.9089782 -0.106967464 7.9769626 100 100 155
2.9062068 -0.06858469 7.9321847 100 100 155
2.8614419 0.7468874 7.8046227 100 100 155
2.809131 1.4169903 7.6421523 100 100 155
2.8563018 1.0851912 7.7412486 100 100 155
2.9476895 -0.15048927 7.9848948 100 100 155
2.9320557 0.028103434 7.943011 100 100 155
2.937524 -0.20161572 7.9424005 100 100 155
2.931043 0.1838703 7.9183946 100 100 155
2.9512033 0.079798706 7.935915 100 100 155
2.9467313 -0.22808148 7.915641 100 100 155
2.9408424 0.70044065 7.8229156 100 100 155
2.9268181 1.315882 7.7589626 100 100 155
3.0150769 -0.04071813 7.9818416 100 100 155
3.0437534 -0.23458353 7.9912653 100 100 155
3.0437534 -0.23458353 7.9912653 100 100 155
3.0656033 -0.27106246 7.9838843 100 100 155
3.070435 -0.2273243 7.98237 100 100 155
3.080472 -0.2577704 8.00111 100 100 155
3.0674195 -0.2186636 7.960365 100 100 155
3.0797858 -0.24350919 7.9780383 100 100 155
3.4385822 0.23247804 7.883139 100 100 155
3.4385822 0.23247804 7.883139 100 100 155
