ply
format ascii 1.0
element vertex 959
property float x
property float y
property float z
property int red
property int blue
property int green
end_header
-4.2323313 0.7972347 11.020242 0 255 255
-4.2402034 0.3399632 11.1004715 0 255 255
-4.2557454 0.02401956 11.171257 0 255 255
-4.2423987 0.044594664 11.166726 0 255 255
-4.2397447 -0.7000554 11.344202 0 255 255
-4.005353 2.2550948 10.74706 0 255 255
-4.0626097 1.8561391 10.900707 0 255 255
-4.153441 -0.111830205 11.15477 0 255 255
-4.066415 1.7007036 10.9310875 0 255 255
-4.2084255 -0.69307405 11.344077 0 255 255
-4.3850765 -1.445083 11.820674 0 255 255
-4.0981145 0.6524891 11.057094 0 255 255
-4.073951 1.3893719 10.991986 0 255 255
-4.0670185 1.3904153 10.98354 0 255 255
-4.068947 1.3743321 10.998938 0 255 255
-4.211659 1.374278 11.405923 0 255 255
-4.065844 1.1737169 11.041941 0 255 255
-4.1227064 -0.3236104 11.259722 0 255 255
-3.965919 1.9626722 10.88242 0 255 255
-3.901811 2.2326286 10.767501 0 255 255
-4.1225324 -1.1010072 11.387412 0 255 255
-4.1172996 -1.1179353 11.394707 0 255 255
-6.302056 2.5436003 17.625723 0 255 255
-3.9278696 1.317889 11.027899 0 255 255
-3.9020627 1.2049434 11.051616 0 255 255
-4.234982 -1.719179 12.029883 0 255 255
-4.2464733 -1.7826734 12.061887 0 255 255
-3.830412 1.9393126 10.901782 0 255 255
-3.870303 0.7130794 11.037004 0 255 255
-3.8396828 1.6148677 10.960357 0 255 255
-3.9227397 -0.61481094 11.263634 0 255 255
-3.9122443 -0.24811603 11.244875 0 255 255
-3.8182607 1.3268901 10.985554 0 255 255
-3.7294436 2.4283214 10.783355 0 255 255
-3.7456326 2.0163133 10.830208 0 255 255
-3.723475 2.037854 10.819977 0 255 255
-3.755814 0.7152179 11.057708 0 255 255
-3.686478 1.8115878 10.908846 0 255 255
-4.139369 -2.1089256 12.312349 0 255 255
-4.0797076 -2.0275855 12.272486 0 255 255
-3.6655269 1.2006668 11.026592 0 255 255
-3.6260145 1.6370486 10.941625 0 255 255
-4.101412 -2.1974237 12.376992 0 255 255
-4.0955386 -2.3034098 12.396952 0 255 255
-3.700422 0.19457228 11.212529 0 255 255
-4.0905967 -2.258233 12.395367 0 255 255
-4.088573 -2.1925018 12.389088 0 255 255
-3.65147 0.88468283 11.075894 0 255 255
-3.7524958 -0.6572203 11.3822365 0 255 255
-3.617661 1.3459675 10.996378 0 255 255
-3.7064416 -0.06599582 11.266197 0 255 255
-4.0736303 -2.2642949 12.395109 0 255 255
-4.0736303 -2.2642949 12.395109 0 255 255
-4.073814 -2.279973 12.3962755 0 255 255
-3.627952 1.0629518 11.062274 0 255 255
-3.6290405 0.82000214 11.088945 0 255 255
-3.6733336 -0.025026571 11.247664 0 255 255
-3.641135 0.5696003 11.149497 0 255 255
-3.572192 1.7190332 10.938235 0 255 255
-4.0695486 -2.4589307 12.475071 0 255 255
-3.610444 1.0316484 11.067029 0 255 255
-3.6343746 0.4999579 11.16386 0 255 255
-3.672717 -0.1953308 11.281841 0 255 255
-4.0075173 -2.068046 12.310269 0 255 255
-4.0594654 -2.4823318 12.470146 0 255 255
-3.611938 0.9023265 11.094902 0 255 255
-3.5775907 1.3702164 11.001121 0 255 255
-3.542139 1.9922304 10.892107 0 255 255
-4.04698 -2.3833945 12.47026 0 255 255
-3.6423423 0.062475294 11.235821 0 255 255
-3.5766485 1.2192153 11.033217 0 255 255
-3.647857 0.02009748 11.264778 0 255 255
-3.6409237 0.13139406 11.243468 0 255 255
-3.6450157 -0.111624844 11.26796 0 255 255
-3.6075563 0.57467437 11.164279 0 255 255
-4.0384774 -2.6530771 12.511238 0 255 255
-4.0379925 -2.6347773 12.509554 0 255 255
-4.0433507 -2.6810017 12.527094 0 255 255
-4.0433507 -2.6810017 12.527094 0 255 255
-3.6058857 0.42673802 11.182828 0 255 255
-3.5312169 1.6754917 10.951257 0 255 255
-3.5907526 0.60387325 11.147616 0 255 255
-3.660608 -0.6451053 11.388717 0 255 255
-3.669288 -0.68975383 11.415703 0 255 255
-3.5349572 1.2696258 11.02168 0 255 255
-3.6269271 -0.19695552 11.3081875 0 255 255
-3.6117373 -0.12947045 11.284915 0 255 255
-3.5756736 0.54221106 11.196385 0 255 255
-3.592506 -0.009438177 11.273374 0 255 255
-3.5996685 -0.421553 11.357362 0 255 255
-3.4618347 1.6563704 10.95823 0 255 255
-3.4618347 1.6563704 10.95823 0 255 255
-3.6234405 0.04703419 11.532692 0 255 255
-3.4656394 1.1323521 11.054666 0 255 255
-3.4633653 1.2168896 11.047319 0 255 255
-3.4792266 0.9213193 11.122427 0 255 255
-3.4180763 1.6963696 10.9630785 0 255 255
-3.4781957 0.4344083 11.1926365 0 255 255
-3.4859366 0.07546658 11.268007 0 255 255
-3.4859366 0.07546658 11.268007 0 255 255
-3.3503397 2.011602 10.890032 0 255 255
-3.4756181 -0.09869553 11.296925 0 255 255
-3.3651104 1.7313887 10.962569 0 255 255
-3.4308288 0.45150515 11.201723 0 255 255
-3.39899 1.010344 11.110235 0 255 255
-3.3416061 1.9096628 10.935052 0 255 255
-3.3416061 1.9096628 10.935052 0 255 255
-3.4090586 0.66082954 11.168357 0 255 255
-3.421578 0.45191777 11.209292 0 255 255
-3.3631406 1.377525 11.030358 0 255 255
-3.3430479 1.6409694 10.976894 0 255 255
-3.3791997 0.6090483 11.171123 0 255 255
-3.3480747 1.037028 11.093709 0 255 255
-3.3121226 1.6541129 10.987076 0 255 255
-3.403188 -0.37499014 11.302248 0 255 255
-3.3202085 1.4837743 11.026427 0 255 255
-3.3422952 0.9092135 11.112551 0 255 255
-3.353859 0.61093676 11.163692 0 255 255
-3.3586872 0.55366325 11.179806 0 255 255
-3.37174 0.324662 11.236108 0 255 255
-3.3189206 1.3077666 11.06015 0 255 255
-3.310915 1.2506144 11.046064 0 255 255
-3.402641 -0.30541283 11.365185 0 255 255
-3.320739 1.0142572 11.104488 0 255 255
-3.3594234 0.08545575 11.272597 0 255 255
-3.3547673 0.2529973 11.257295 0 255 255
-3.3479064 0.27488106 11.246943 0 255 255
-3.3341055 0.3087429 11.226584 0 255 255
-3.2961147 0.89740676 11.1373 0 255 255
-3.3657918 -0.353857 11.37243 0 255 255
-3.3513062 -0.19589695 11.323979 0 255 255
-3.3124633 0.29748157 11.244939 0 255 255
-3.3387814 -0.31597438 11.347433 0 255 255
-3.3266597 -0.1061389 11.319657 0 255 255
-3.3282664 -0.39590567 11.378352 0 255 255
-3.3051157 -0.62790847 11.339104 0 255 255
-3.2851028 0.024203045 11.310451 0 255 255
-3.2244964 0.62655854 11.101895 0 255 255
-4.065219 -2.2506711 13.9968 0 255 255
-3.266142 -0.5986149 11.338932 0 255 255
-3.310461 2.332445 12.42868 0 255 255
-3.310461 2.332445 12.42868 0 255 255
-3.3280902 1.1453452 12.6581 0 255 255
-3.3299396 0.9312046 12.698658 0 255 255
-3.2536886 2.3096535 12.440554 0 255 255
-3.264226 1.6255435 12.580068 0 255 255
-3.2720997 1.4542253 12.627353 0 255 255
-3.3334022 0.10376961 12.880678 0 255 255
-3.268645 1.1648715 12.68132 0 255 255
-3.2751248 0.91526407 12.723408 0 255 255
-3.298224 0.44995087 12.813135 0 255 255
-3.297509 0.1910565 12.861864 0 255 255
-3.2744505 -0.07393 12.910413 0 255 255
-3.19712 0.037204858 12.86738 0 255 255
-3.154205 -0.7609043 13.075336 0 255 255
-3.154205 -0.7609043 13.075336 0 255 255
-3.0570219 -0.73659885 13.102622 0 255 255
-3.0617836 -0.7912374 13.122886 0 255 255
-3.0544667 -0.79040223 13.110839 0 255 255
-3.0477598 -0.8418874 13.121084 0 255 255
-55.18667 35.323193 237.93022 0 255 255
-3.6727636 2.1976576 15.858081 0 255 255
-3.03197 -0.8373988 13.130789 0 255 255
-2.9874928 -0.8701394 13.113548 0 255 255
-2.9823995 -0.85474163 13.13121 0 255 255
-47.170273 31.368542 209.58916 0 255 255
-47.170273 31.368542 209.58916 0 255 255
-47.204075 31.2297 210.38145 0 255 255
-2.6930485 1.3821969 12.724801 0 255 255
-2.7406452 -0.26345342 12.949679 0 255 255
-2.67062 0.879087 12.827195 0 255 255
-2.6659827 0.90852875 12.82629 0 255 255
-2.6344798 1.2484719 12.758997 0 255 255
-2.6677272 0.30688334 12.941798 0 255 255
-2.671341 0.03535697 13.002757 0 255 255
-2.6709762 -0.0012709056 13.022956 0 255 255
-2.6143515 1.2718898 12.76786 0 255 255
-42.93296 29.207733 212.17749 0 255 255
-2.6100347 0.00430124 13.009379 0 255 255
-2.582537 -0.025073428 13.028353 0 255 255
-2.5494459 0.32534698 12.974505 0 255 255
-2.4857838 1.7988394 12.672502 0 255 255
-2.4462943 -0.36235362 13.139957 0 255 255
-2.3697767 0.049511228 12.992925 0 255 255
-2.36809 -0.42130718 13.156426 0 255 255
-2.3698242 -0.7608031 13.193129 0 255 255
-2.3629696 -0.7437478 13.179456 0 255 255
-2.4621603 -2.0106468 14.632005 0 255 255
-2.1366057 2.3778787 12.696764 0 255 255
-2.1968837 0.43392614 13.081377 0 255 255
-2.1968837 0.43392614 13.081377 0 255 255
-2.172104 0.5163574 13.068214 0 255 255
-2.192587 -0.87056434 13.246114 0 255 255
-2.159516 0.52811426 13.073199 0 255 255
-2.164674 -0.8672689 13.243147 0 255 255
-2.1171277 0.2368683 13.034342 0 255 255
-1.9963661 2.4316065 12.611307 0 255 255
-2.005964 0.09252662 13.040898 0 255 255
-2.0025663 0.053949933 13.076907 0 255 255
-1.9278731 1.3415841 12.8195505 0 255 255
-1.9103258 0.991736 12.939286 0 255 255
-1.9103258 0.991736 12.939286 0 255 255
-1.8996323 1.4185078 12.867196 0 255 255
-1.9431401 -0.3558058 13.2239895 0 255 255
-1.8516197 2.0232863 12.720014 0 255 255
-1.8675672 1.1979698 12.890526 0 255 255
-1.8535006 1.4464347 12.854546 0 255 255
-1.8695477 0.90565085 12.965848 0 255 255
-1.8717808 0.60860425 13.012453 0 255 255
-1.8501983 1.3910472 12.8621855 0 255 255
-1.8767421 0.2596034 13.078505 0 255 255
-1.8531601 0.8747328 12.976142 0 255 255
-1.8531601 0.8747328 12.976142 0 255 255
-1.8552691 0.58193445 13.022334 0 255 255
-1.8391206 1.276406 12.908649 0 255 255
-1.8222859 0.9884124 12.947173 0 255 255
-1.5034057 1.0378225 10.948919 0 255 255
-1.7730386 1.2228792 12.912747 0 255 255
-1.7757571 0.99910504 12.965223 0 255 255
-1.7780685 0.34783816 13.08033 0 255 255
-1.7842122 0.007641557 13.15957 0 255 255
-1.780106 -0.0060647293 13.162729 0 255 255
-1.777925 0.023748243 13.14582 0 255 255
-1.8653313 -0.96200323 13.827933 0 255 255
-1.9747275 -1.9845699 14.71351 0 255 255
-1.9699713 -2.0027707 14.717089 0 255 255
-1.7370272 0.5704715 13.042771 0 255 255
-1.713479 1.3422451 12.865963 0 255 255
-1.701683 1.586569 12.843883 0 255 255
-1.7035263 1.2773802 12.891296 0 255 255
-1.7035263 1.2773802 12.891296 0 255 255
-1.6952409 1.3970958 12.895833 0 255 255
-1.684325 1.449363 12.880127 0 255 255
-1.7154423 0.04327126 13.15329 0 255 255
-1.6966368 0.58455956 13.0426655 0 255 255
-1.6750703 1.5119078 12.877028 0 255 255
-1.7011898 0.5131018 13.077908 0 255 255
-1.6848335 0.6904737 13.020982 0 255 255
-1.6788136 0.26096943 13.114282 0 255 255
-1.7662616 -0.96203494 13.834496 0 255 255
-1.6392635 1.5926547 12.839407 0 255 255
-1.7550787 -0.9971252 13.858975 0 255 255
-1.5986519 2.7557657 12.657946 0 255 255
-1.6268486 -0.25971904 13.132496 0 255 255
-1.5992988 -0.25223848 13.127893 0 255 255
-1.6155719 -0.73471814 13.337249 0 255 255
-1.5873305 -0.29107392 13.25426 0 255 255
-1.7404755 -1.9693934 14.745535 0 255 255
-1.5180928 1.1111698 12.936989 0 255 255
-1.6896245 -1.9647905 14.744927 0 255 255
-1.5197307 -0.730115 13.341899 0 255 255
-1.6313006 -1.9937451 14.768416 0 255 255
-1.6178182 -1.9067656 14.691643 0 255 255
-1.4413197 0.25794297 13.129341 0 255 255
-1.2146034 0.45536402 11.168745 0 255 255
-1.4456409 -0.7116349 13.336193 0 255 255
-1.5873102 -1.9940102 14.783582 0 255 255
-1.4052467 -0.03368133 13.173254 0 255 255
-1.5684733 -1.9711503 14.751135 0 255 255
-1.1735541 0.38463095 11.179831 0 255 255
-1.1735541 0.38463095 11.179831 0 255 255
-1.1421182 0.62183553 11.13684 0 255 255
-1.14195 0.47191575 11.172082 0 255 255
-1.3663764 -0.7692644 13.369253 0 255 255
-1.3362166 0.5362929 13.207096 0 255 255
-1.4670498 -1.994522 14.804096 0 255 255
-1.4670498 -1.994522 14.804096 0 255 255
-1.4394045 -2.0178118 14.833449 0 255 255
-1.4275568 -1.9894034 14.816049 0 255 255
-1.408024 -2.0103023 14.824648 0 255 255
-1.2161162 -0.61759424 13.386111 0 255 255
-1.1977924 -0.5870377 13.388141 0 255 255
-1.3067974 -1.9922087 14.834554 0 255 255
-1.0070913 -1.70558 14.487983 0 255 255
-1.0024849 -2.0864491 14.56665 0 255 255
-0.99519867 -1.5998104 14.461755 0 255 255
-0.88509935 -0.0282343 12.9255085 0 255 255
-0.9866542 -1.5889401 14.479731 0 255 255
-0.88179076 -0.050567806 12.942258 0 255 255
-0.9888793 -1.7606052 14.515205 0 255 255
-0.98648536 -2.2476177 14.623539 0 255 255
-0.98648536 -2.2476177 14.623539 0 255 255
-0.9766257 -1.9407281 14.555876 0 255 255
-0.96424025 -1.5220519 14.4440975 0 255 255
-0.96490735 -2.2037725 14.606092 0 255 255
-0.9605459 -2.252556 14.613347 0 255 255
-0.7552814 -0.19959128 12.910087 0 255 255
-0.8415677 -1.8902545 14.8191185 0 255 255
-0.6575297 0.7124167 12.824947 0 255 255
-0.6628962 0.21216457 12.929183 0 255 255
-0.65425974 0.6295305 12.847554 0 255 255
-0.6605615 0.07427064 12.970925 0 255 255
-0.6548336 -0.16898791 12.944434 0 255 255
-0.6492923 -0.20424546 12.92277 0 255 255
-0.63957554 1.2866632 12.730153 0 255 255
-0.63957554 1.2866632 12.730153 0 255 255
-0.6328081 -0.29356182 12.94924 0 255 255
-0.6095927 -0.19684954 12.93093 0 255 255
-0.52455056 2.381301 12.097468 0 255 255
-0.4577234 1.27663 12.667877 0 255 255
-0.45657152 0.022171497 13.007516 0 255 255
-0.45657152 0.022171497 13.007516 0 255 255
-0.44565493 -0.198188 12.952831 0 255 255
-1.2178144 -0.3638532 37.124844 0 255 255
-0.4286449 -0.4255859 13.1135025 0 255 255
-0.41953295 -0.38021666 13.110541 0 255 255
-0.42003986 -0.4032322 13.126354 0 255 255
-0.45568475 -1.9417197 14.549221 0 255 255
-0.4407661 -1.9363905 14.551237 0 255 255
-0.38871104 -0.4637961 13.138545 0 255 255
-0.43179718 -1.988763 14.590995 0 255 255
-0.3706805 1.3841393 12.67409 0 255 255
-0.4267602 -1.9734226 14.590087 0 255 255
-0.36190265 -0.5131729 13.148884 0 255 255
-0.39501458 -1.8958868 14.522002 0 255 255
-0.3934359 -2.045749 14.653301 0 255 255
-0.3485152 -0.5492173 13.155209 0 255 255
-0.33195075 1.2793809 12.692527 0 255 255
-0.33928612 0.27379352 12.976979 0 255 255
-0.3392382 -0.49236104 13.15062 0 255 255
-0.33444583 -0.46688533 13.135679 0 255 255
-0.3343794 -0.4012915 13.129102 0 255 255
-0.3746782 -2.807489 15.116549 0 255 255
-0.3257654 -0.45813873 13.149831 0 255 255
-0.32076788 -0.3942578 13.130551 0 255 255
-0.33351952 -2.049364 14.679406 0 255 255
-0.32788518 -2.0290449 14.661016 0 255 255
-0.27351427 1.0041004 12.821499 0 255 255
-0.31719148 -3.2946196 15.341152 0 255 255
-0.31729725 -3.368419 15.366645 0 255 255
-0.31846973 -3.5539455 15.40739 0 255 255
-0.30860746 -2.5195663 15.195898 0 255 255
-0.25591677 1.0371917 12.821406 0 255 255
-0.30158496 -3.2952754 15.360664 0 255 255
-0.3014449 -3.3302417 15.364334 0 255 255
-0.3014449 -3.3302417 15.364334 0 255 255
-0.30243057 -3.550725 15.408743 0 255 255
-0.30243057 -3.550725 15.408743 0 255 255
-0.29306075 -2.5351317 15.200013 0 255 255
-0.24978314 -0.72989076 13.2049265 0 255 255
-0.28670594 -3.5720398 15.413603 0 255 255
-0.28532705 -3.3151984 15.3470955 0 255 255
-0.2865996 -3.53407 15.409004 0 255 255
-0.28578183 -3.2733138 15.3602705 0 255 255
-0.28560972 -3.2974758 15.3626375 0 255 255
-0.27018157 -3.3268926 15.368982 0 255 255
-0.23176911 -0.7705646 13.212321 0 255 255
-0.21828265 -0.7543735 13.213236 0 255 255
-0.2384923 -2.759386 15.409939 0 255 255
-0.20106398 -0.16451648 12.981545 0 255 255
-0.20106398 -0.16451648 12.981545 0 255 255
-0.23580773 -2.5178497 15.205871 0 255 255
-0.19680533 2.2156446 12.709157 0 255 255
-0.2000316 -0.93559235 13.221271 0 255 255
-0.22542515 -2.483724 15.186835 0 255 255
-0.18207099 -0.95581496 13.226728 0 255 255
-0.1682156 -0.9646537 13.2292185 0 255 255
-0.18724164 -2.0843625 14.703587 0 255 255
-0.16107921 -0.19293408 13.003941 0 255 255
-0.12772195 1.7131678 12.798194 0 255 255
-0.12772195 1.7131678 12.798194 0 255 255
-0.12176251 2.4984734 12.201002 0 255 255
-0.12714238 -0.88081086 13.213428 0 255 255
-0.12579392 -0.8195236 13.496698 0 255 255
-0.112815514 1.6152364 13.113744 0 255 255
-0.11369291 -0.8016764 13.220925 0 255 255
-0.10149757 1.1939918 11.79648 0 255 255
-0.10147718 1.659 12.820744 0 255 255
-0.09253195 1.705118 12.804387 0 255 255
-0.06848819 -0.67060554 13.294491 0 255 255
-0.06737168 0.4742824 13.066854 0 255 255
-0.067504264 0.51488686 13.024161 0 255 255
-0.044156756 1.7054223 12.824482 0 255 255
-0.04038233 0.6859791 13.048614 0 255 255
-0.033345062 -2.100204 13.660997 0 255 255
-0.033141825 -2.076773 13.672042 0 255 255
-0.026238881 2.3423116 12.709432 0 255 255
-0.017501932 2.3104773 12.714127 0 255 255
-0.018077083 -0.81795335 13.235985 0 255 255
4.7174595e-05 -1.0112534 13.285927 0 255 255
0.010075933 -1.9259902 14.610587 0 255 255
0.010075933 -1.9259902 14.610587 0 255 255
0.021919033 2.2405646 12.739468 0 255 255
0.0225697 0.5698841 13.0823765 0 255 255
0.030136975 -1.9203849 14.612116 0 255 255
0.026323326 2.1871033 12.745446 0 255 255
0.036542952 -0.9271685 13.268424 0 255 255
0.041223716 -1.0802665 13.284962 0 255 255
0.045790777 -0.9840826 13.275335 0 255 255
0.043847043 2.2259192 12.744037 0 255 255
0.049421407 0.3416589 13.057219 0 255 255
0.06568729 2.3115385 12.725031 0 255 255
0.11866985 -0.8902137 13.261073 0 255 255
0.11693942 0.28470108 13.05791 0 255 255
0.13493057 -1.7892389 14.510799 0 255 255
0.14149763 -0.74625474 13.24812 0 255 255
0.14643621 1.0537711 12.89056 0 255 255
0.16580622 0.3228275 13.034247 0 255 255
0.16706009 1.4909868 12.771116 0 255 255
0.2090471 -0.40421423 13.206596 0 255 255
0.2090471 -0.40421423 13.206596 0 255 255
0.22315727 -0.5061691 13.231903 0 255 255
0.22918874 0.29531935 13.056196 0 255 255
0.22918874 0.29531935 13.056196 0 255 255
0.23253593 -0.52915424 13.248645 0 255 255
0.27952334 -1.9253433 15.043713 0 255 255
0.24714892 -0.1850102 13.056044 0 255 255
0.24714892 -0.1850102 13.056044 0 255 255
0.26406348 -0.44191125 13.229185 0 255 255
0.28228045 -0.43699372 13.23042 0 255 255
0.25615197 2.616975 11.451383 0 255 255
0.29615927 -0.43671677 13.231054 0 255 255
0.26470244 2.5885048 11.65395 0 255 255
0.30507538 -0.38904408 13.227119 0 255 255
0.29453334 1.3606861 12.7727785 0 255 255
0.33648193 -0.32030147 13.209356 0 255 255
0.34674433 -0.25235358 13.085368 0 255 255
0.40094763 0.12058557 13.089742 0 255 255
0.48720992 -1.7445647 14.75102 0 255 255
0.49497715 -2.17706 14.834279 0 255 255
0.5068441 -1.7165864 14.7323065 0 255 255
0.4460622 1.0039402 12.962236 0 255 255
0.5257542 -2.1886146 14.836296 0 255 255
0.5243921 -1.9946396 14.797375 0 255 255
0.52965575 -2.0505867 14.80422 0 255 255
0.52837116 -1.8828259 14.768493 0 255 255
0.5309443 -1.5268006 14.69455 0 255 255
0.55689514 -2.3714538 14.85933 0 255 255
0.5509496 -1.4706334 14.688518 0 255 255
0.5509496 -1.4706334 14.688518 0 255 255
0.30462715 2.0635176 7.3755894 0 255 255
0.61658937 -1.4734184 14.690513 0 255 255
0.5435117 1.1392556 12.840087 0 255 255
0.55511194 0.24590297 13.112529 0 255 255
0.56363237 -0.2789877 13.103414 0 255 255
0.6557043 -1.9355887 15.122807 0 255 255
0.67365175 -1.8428265 15.061707 0 255 255
0.5608813 2.403833 12.254539 0 255 255
0.70948243 -2.0003333 15.164766 0 255 255
0.5729793 2.4180584 12.242613 0 255 255
0.6236166 0.09149671 13.132492 0 255 255
0.68817335 -1.0428118 14.282985 0 255 255
0.68817335 -1.0428118 14.282985 0 255 255
0.6352661 -0.028777545 13.184411 0 255 255
0.6352661 -0.028777545 13.184411 0 255 255
0.7343649 -1.9345045 15.139754 0 255 255
0.67036235 -0.38141677 13.342102 0 255 255
0.7137749 -0.89924806 14.206826 0 255 255
0.7750929 -1.912362 15.119462 0 255 255
0.78554153 -1.9274952 15.121222 0 255 255
0.83327085 -1.9249676 15.1366 0 255 255
0.83327085 -1.9249676 15.1366 0 255 255
0.8487454 -1.9086905 15.134319 0 255 255
0.8549813 -1.9261856 15.153192 0 255 255
0.82715917 -0.8968126 14.221493 0 255 255
0.90577453 -1.906122 15.132682 0 255 255
0.7642628 2.7371073 11.506901 0 255 255
1.0314335 -1.9605722 15.217657 0 255 255
0.94286025 -0.50809073 13.699975 0 255 255
1.1062694 -1.8246367 15.096145 0 255 255
1.2459555 -1.9283854 15.21579 0 255 255
1.1371619 -0.66062987 13.7114105 0 255 255
1.1669059 -0.695321 13.72775 0 255 255
1.1922045 -0.05540317 13.533058 0 255 255
1.2229317 -0.6448289 13.719217 0 255 255
1.2258487 0.3325884 13.543169 0 255 255
1.3910795 -1.8971349 15.19767 0 255 255
1.2657653 -0.5374389 13.774913 0 255 255
1.2483579 2.851353 13.095764 0 255 255
1.248821 2.7566626 13.053751 0 255 255
1.3693827 -0.8719027 14.313874 0 255 255
1.4695703 -1.8109479 15.145206 0 255 255
1.480824 -1.9671377 15.2650175 0 255 255
1.3370167 -0.65821 13.727822 0 255 255
1.3956457 -0.9034451 14.330098 0 255 255
1.4908181 -1.9132141 15.256191 0 255 255
1.4861945 -1.7570169 15.103773 0 255 255
1.5045512 -1.8998343 15.236012 0 255 255
1.3327141 1.3892448 13.354424 0 255 255
1.3742409 -0.2042349 13.675112 0 255 255
1.3495935 1.3943981 13.339105 0 255 255
1.5457842 -1.8792751 15.228039 0 255 255
1.4798497 -1.885196 14.481456 0 255 255
1.4049168 0.1719227 13.562896 0 255 255
1.5818701 -1.8771586 15.22331 0 255 255
1.4848428 -0.86191976 14.286512 0 255 255
1.4848428 -0.86191976 14.286512 0 255 255
1.4125189 0.19462185 13.546134 0 255 255
1.4178082 0.37913683 13.553031 0 255 255
1.421003 0.5105235 13.537945 0 255 255
1.421003 0.5105235 13.537945 0 255 255
1.6095028 -1.8750892 15.235868 0 255 255
1.4476738 0.20008087 13.569951 0 255 255
1.4644367 0.05930825 13.638697 0 255 255
1.4644367 0.05930825 13.638697 0 255 255
1.5383487 -0.87727195 14.327946 0 255 255
1.4468666 1.2290379 13.389624 0 255 255
1.4452888 1.5079819 13.332571 0 255 255
1.6506968 -1.8726195 15.230057 0 255 255
0.75938356 0.5831977 6.96187 0 255 255
1.4822912 0.525229 13.544704 0 255 255
1.4922758 0.32872552 13.592518 0 255 255
1.4835597 0.94060785 13.471894 0 255 255
1.4948466 1.022557 13.448383 0 255 255
1.4887912 1.9195004 13.270831 0 255 255
1.4897386 2.0922837 13.238316 0 255 255
1.7235029 -1.8876368 15.271845 0 255 255
1.5384735 -0.16484143 13.588043 0 255 255
1.5318346 1.4849982 13.367223 0 255 255
1.532475 1.4340287 13.372651 0 255 255
1.532475 1.4340287 13.372651 0 255 255
1.5582358 0.59932214 13.556325 0 255 255
1.5763587 0.13689335 13.633351 0 255 255
1.5718501 1.0925957 13.473426 0 255 255
1.7917113 -1.923613 15.31652 0 255 255
1.7917113 -1.923613 15.31652 0 255 255
1.7903225 -1.8704793 15.258925 0 255 255
1.6148043 0.15814884 13.640294 0 255 255
1.6357781 0.19715962 13.620083 0 255 255
1.6357781 0.19715962 13.620083 0 255 255
1.6106441 1.4856262 13.372284 0 255 255
1.6535193 0.15438662 13.65016 0 255 255
1.6647476 -0.18738884 13.741957 0 255 255
1.0511578 2.1746142 8.6766205 0 255 255
1.6596243 0.16830432 13.661645 0 255 255
1.8681561 -1.986654 15.293524 0 255 255
1.8642632 -1.8653262 15.262611 0 255 255
1.6784035 -0.17312032 13.739371 0 255 255
1.6388175 1.4385631 13.414405 0 255 255
1.6388175 1.4385631 13.414405 0 255 255
1.6521025 1.0264101 13.485591 0 255 255
1.665 0.65488636 13.551944 0 255 255
1.6768737 0.35942844 13.610792 0 255 255
1.6513268 1.4016157 13.403696 0 255 255
1.8776503 -1.7909387 15.200186 0 255 255
1.6706307 1.0106555 13.484941 0 255 255
1.6585093 1.5433028 13.387298 0 255 255
1.6484263 2.4510047 13.195934 0 255 255
1.6696724 1.6034344 13.365796 0 255 255
1.6816436 1.300476 13.424492 0 255 255
1.7466384 -0.3477586 13.791692 0 255 255
1.7013665 1.5177023 13.398388 0 255 255
1.7505515 -0.3013152 13.786476 0 255 255
1.9607207 -1.8602723 15.278471 0 255 255
1.7762314 -0.26335546 13.764728 0 255 255
1.7342229 1.518761 13.367321 0 255 255
1.8017548 -0.49014747 13.814278 0 255 255
1.8067828 -0.025217505 13.636562 0 255 255
1.6729293 2.8110003 12.626856 0 255 255
1.8425808 -0.7256046 13.834662 0 255 255
1.7914133 1.1753632 13.451179 0 255 255
1.7968761 -0.103199914 13.457056 0 255 255
1.8456815 -0.62322164 13.822987 0 255 255
1.8316327 0.40737358 13.612497 0 255 255
1.8646475 -0.5188054 13.822434 0 255 255
1.1514153 2.1123948 8.469829 0 255 255
1.8746128 -0.12873244 13.652022 0 255 255
1.8794754 -0.021556294 13.652968 0 255 255
1.8708528 1.0889442 13.489661 0 255 255
2.131215 -1.8581803 15.293953 0 255 255
1.8895508 1.242961 13.524208 0 255 255
1.8951337 1.2145461 13.431609 0 255 255
1.9555479 -0.72596645 13.859587 0 255 255
1.9623792 -0.41301745 13.907898 0 255 255
1.9623792 -0.41301745 13.907898 0 255 255
1.9625334 -0.7108629 13.843368 0 255 255
1.9650589 -0.7395394 13.85967 0 255 255
1.9753355 -0.6770964 13.865111 0 255 255
1.9548689 -0.019971408 13.654973 0 255 255
1.8976414 2.772794 13.192178 0 255 255
2.025746 -0.7556754 13.851598 0 255 255
2.2983358 -2.1295512 15.426445 0 255 255
2.2983358 -2.1295512 15.426445 0 255 255
2.2954888 -1.9743255 15.374214 0 255 255
2.3035884 -2.1500251 15.429245 0 255 255
2.3302207 -2.3527079 15.500262 0 255 255
2.0566611 -0.11361745 13.6758 0 255 255
2.3214507 -2.0012062 15.405291 0 255 255
2.3214507 -2.0012062 15.405291 0 255 255
2.1113389 -0.6285462 13.849628 0 255 255
2.356739 -1.97107 15.391804 0 255 255
2.3647523 -1.9932979 15.4101305 0 255 255
2.100729 0.3557577 13.656189 0 255 255
2.0451975 2.7735124 13.206857 0 255 255
2.1227536 -0.11214711 13.677545 0 255 255
2.1279569 0.22018869 13.680234 0 255 255
2.246374 -0.90603554 14.441234 0 255 255
2.2482433 -0.8734645 14.421919 0 255 255
2.1354892 0.41644332 13.697912 0 255 255
2.2790723 -0.99513555 14.460102 0 255 255
2.1653297 0.17524776 13.677764 0 255 255
2.2881706 -0.9751992 14.456432 0 255 255
2.2881706 -0.9751992 14.456432 0 255 255
2.288205 -0.83397895 14.423498 0 255 255
2.197855 -0.18123576 13.823901 0 255 255
2.2974005 -0.8166171 14.419686 0 255 255
2.2208526 -0.45610192 13.879315 0 255 255
2.2242763 -0.63099235 13.869816 0 255 255
2.339014 -0.9980736 14.462294 0 255 255
2.348499 -0.86071146 14.458619 0 255 255
2.3529296 -0.84640914 14.425594 0 255 255
2.1659577 2.544228 13.222716 0 255 255
2.3867095 -0.8588939 14.449394 0 255 255
2.3867095 -0.8588939 14.449394 0 255 255
2.2266793 1.4613345 13.451939 0 255 255
2.2849302 0.08913317 13.746674 0 255 255
2.4177923 -0.85839283 14.457178 0 255 255
2.288918 0.4956499 13.685112 0 255 255
2.421649 -0.8176911 14.420495 0 255 255
2.3034158 0.32388708 13.715687 0 255 255
2.3109815 0.16028 13.732902 0 255 255
2.3109815 0.16028 13.732902 0 255 255
2.3099775 0.33786592 13.726535 0 255 255
2.2874308 1.0703462 13.564813 0 255 255
2.2841911 1.6100495 13.463445 0 255 255
2.3471677 0.17478597 13.751115 0 255 255
2.332047 0.7322817 13.6351595 0 255 255
2.339783 1.0395364 13.598356 0 255 255
2.3496253 0.87511617 13.601031 0 255 255
2.3797367 0.48836857 13.694118 0 255 255
2.318154 2.514674 13.286544 0 255 255
2.373433 1.4998877 13.496857 0 255 255
2.3736758 1.7104373 13.445521 0 255 255
2.3736758 1.7104373 13.445521 0 255 255
2.638791 -1.293083 14.860753 0 255 255
2.4164174 1.0384749 13.608012 0 255 255
2.4203045 1.0696762 13.603371 0 255 255
2.4203045 1.0696762 13.603371 0 255 255
2.45686 0.16566211 13.7824335 0 255 255
2.4175951 1.316042 13.56223 0 255 255
2.493605 -0.24785104 13.935235 0 255 255
2.4598014 0.35443488 13.745868 0 255 255
2.4633183 0.28380647 13.739197 0 255 255
2.4633183 0.28380647 13.739197 0 255 255
2.675549 -1.3592459 14.923481 0 255 255
2.6721394 -1.3279425 14.904027 0 255 255
2.4209764 1.4553586 13.477044 0 255 255
2.4209764 1.4553586 13.477044 0 255 255
2.460511 0.53263605 13.697222 0 255 255
2.4634633 0.61165226 13.687312 0 255 255
2.443936 1.1152337 13.578725 0 255 255
2.462237 0.6746938 13.680055 0 255 255
2.4691787 -0.041379187 13.71946 0 255 255
2.6861296 -1.3066362 14.898144 0 255 255
2.691344 -1.3253729 14.899286 0 255 255
2.4553683 1.1095866 13.590644 0 255 255
2.4969947 0.095727496 13.794792 0 255 255
2.4969947 0.095727496 13.794792 0 255 255
2.4651215 0.96520287 13.618498 0 255 255
2.4651215 0.96520287 13.618498 0 255 255
2.484006 0.3815668 13.722667 0 255 255
2.4594493 1.2039168 13.510112 0 255 255
2.4623258 1.4179666 13.525763 0 255 255
2.4525607 2.2987397 13.346101 0 255 255
2.4525607 2.2987397 13.346101 0 255 255
2.4490392 2.474168 13.326974 0 255 255
2.7260177 -1.0901066 14.697385 0 255 255
2.5772789 -0.20830338 13.894065 0 255 255
2.5758557 -0.16629829 13.861508 0 255 255
2.5895498 -0.58453363 13.9351845 0 255 255
2.5206878 1.4880036 13.489327 0 255 255
2.5206878 1.4880036 13.489327 0 255 255
2.5642712 0.20571187 13.722335 0 255 255
2.631495 -0.62680185 13.928929 0 255 255
2.5305545 2.5535674 13.297446 0 255 255
2.632362 1.486383 13.514539 0 255 255
2.7711773 -0.6692491 13.980257 0 255 255
2.7767296 -0.63339883 13.960134 0 255 255
2.7324183 1.4945698 13.526572 0 255 255
3.0950053 -2.096354 15.144231 0 255 255
3.0994904 -1.6173004 15.063138 0 255 255
2.781645 1.5691961 13.5166855 0 255 255
3.1220455 -1.7547596 15.073202 0 255 255
3.126669 -1.5512644 15.044855 0 255 255
3.1235065 -1.4194719 15.028219 0 255 255
3.132347 -1.3911915 15.021559 0 255 255
3.1523247 -1.4279524 15.019586 0 255 255
3.1517367 -1.2712336 15.015549 0 255 255
2.9587455 -0.15578909 13.889151 0 255 255
2.9860036 -0.19000435 13.928087 0 255 255
2.9991684 -0.030680988 13.789469 0 255 255
2.9516423 1.6532333 13.5498 0 255 255
2.9197078 2.5914555 13.340131 0 255 255
3.0551493 0.8574032 13.7213745 0 255 255
3.0460362 1.2831503 13.617477 0 255 255
3.0270214 1.9343005 13.490962 0 255 255
3.0768955 1.0950241 13.671259 0 255 255
3.0871127 1.0347513 13.674903 0 255 255
3.046287 2.2523694 13.43261 0 255 255
3.0838108 1.5697492 13.598314 0 255 255
3.0962706 1.3629875 13.632214 0 255 255
3.1123111 1.1343237 13.682259 0 255 255
3.0807836 1.8541672 13.5231 0 255 255
3.1223664 2.5126953 13.402098 0 255 255
3.4529936 0.93339235 12.118271 0 255 255
3.5495093 0.007970147 12.352551 0 255 255
3.74141 -0.45359313 13.020277 0 255 255
3.733266 -1.072546 12.930143 0 255 255
3.5636659 0.17885473 12.3275795 0 255 255
3.576276 -0.3374955 12.35672 0 255 255
3.5589857 0.52974725 12.267817 0 255 255
3.7684774 -1.1534587 12.974481 0 255 255
3.5804558 0.3852333 12.298327 0 255 255
3.5938222 0.2618075 12.329486 0 255 255
3.6108003 -0.11588483 12.387777 0 255 255
3.5941281 0.4351116 12.287132 0 255 255
3.6216075 -0.06901713 12.366434 0 255 255
3.6299849 0.13821256 12.351352 0 255 255
3.627829 0.10800334 12.343957 0 255 255
3.554225 1.4064227 12.093838 0 255 255
3.5497046 1.5894369 12.064315 0 255 255
3.6309862 0.25846288 12.326142 0 255 255
4.0167594 -2.0365927 13.619191 0 255 255
3.580396 1.3233811 12.126143 0 255 255
3.647111 0.19872248 12.337567 0 255 255
3.568377 1.5589936 12.071391 0 255 255
3.6234896 0.6936464 12.257525 0 255 255
3.6142478 0.82833713 12.212331 0 255 255
3.5700622 1.6285298 12.0630455 0 255 255
3.5842347 1.4975313 12.082812 0 255 255
3.5639155 1.8916326 12.014339 0 255 255
3.6093385 1.2228246 12.125224 0 255 255
3.6575036 0.9231023 12.286755 0 255 255
3.6192262 1.2168486 12.144432 0 255 255
3.7008812 -0.100180626 12.41809 0 255 255
3.6646304 0.6488752 12.268268 0 255 255
3.5714922 2.185577 11.956603 0 255 255
3.66036 0.8394199 12.225748 0 255 255
3.5819821 2.2038887 11.950435 0 255 255
3.657287 0.86364686 12.201527 0 255 255
3.5915442 2.1020143 11.968592 0 255 255
3.6202319 1.7579637 12.0504875 0 255 255
3.6639214 0.913914 12.1818285 0 255 255
3.7233164 -0.3378318 12.364876 0 255 255
3.759535 -0.10503689 12.428259 0 255 255
3.759535 -0.10503689 12.428259 0 255 255
3.6436303 1.8350911 12.03179 0 255 255
3.696384 1.1274263 12.178291 0 255 255
3.7467873 0.27479318 12.344178 0 255 255
3.6955779 1.2780457 12.161942 0 255 255
3.7783463 -0.10443361 12.41988 0 255 255
3.6954155 1.3041 12.147539 0 255 255
3.7129018 1.0495473 12.191296 0 255 255
3.777263 0.054900188 12.402486 0 255 255
3.726746 1.3245062 12.154209 0 255 255
3.8160207 -0.1460097 12.431416 0 255 255
3.8708668 -0.3358558 12.595711 0 255 255
3.6712594 2.2969651 11.946516 0 255 255
3.6712594 2.2969651 11.946516 0 255 255
3.815761 -0.014885085 12.416437 0 255 255
3.813623 0.334231 12.354238 0 255 255
3.766153 1.4422973 12.146728 0 255 255
3.8163135 0.62673354 12.308253 0 255 255
3.7777436 1.2665787 12.183895 0 255 255
3.8553228 0.0020679063 12.419982 0 255 255
3.7708707 1.4249345 12.134822 0 255 255
3.7811935 1.4114861 12.154634 0 255 255
3.812047 0.816804 12.253591 0 255 255
3.8532631 0.2051896 12.386271 0 255 255
3.8533545 0.21893522 12.372485 0 255 255
3.8625822 0.12893493 12.401981 0 255 255
3.8459961 0.35277736 12.349181 0 255 255
3.8731275 0.13318697 12.408408 0 255 255
3.855381 0.39289767 12.351728 0 255 255
3.8554554 0.40662995 12.338531 0 255 255
3.815388 1.0832916 12.210357 0 255 255
3.8212552 0.9956878 12.229057 0 255 255
3.852318 0.523634 12.314838 0 255 255
3.818155 1.1126028 12.205794 0 255 255
3.8148248 1.2368499 12.181795 0 255 255
3.855089 0.5534393 12.310195 0 255 255
3.852865 0.62488115 12.303078 0 255 255
3.879256 -0.3263875 12.387144 0 255 255
3.8564217 0.61351156 12.314513 0 255 255
3.8459907 0.7432584 12.281249 0 255 255
3.8459907 0.7432584 12.281249 0 255 255
3.8654768 0.52910113 12.343787 0 255 255
3.81487 1.3539059 12.168633 0 255 255
3.8907735 0.16366011 12.396708 0 255 255
3.8556354 0.78851414 12.271537 0 255 255
3.8578892 0.81881034 12.278735 0 255 255
3.8898635 0.2077511 12.380458 0 255 255
3.8070052 1.5386412 12.116867 0 255 255
3.915575 -0.18232724 12.448424 0 255 255
3.849168 1.0273281 12.224354 0 255 255
3.9075038 0.10374293 12.395614 0 255 255
3.8169224 1.5709416 12.1086445 0 255 255
3.8495922 1.1311893 12.212335 0 255 255
3.9543924 -0.4327728 12.530813 0 255 255
3.8286371 1.5128882 12.132431 0 255 255
3.8506484 1.2298057 12.189074 0 255 255
3.9350824 0.023994027 12.415493 0 255 255
3.9086206 0.44925845 12.332162 0 255 255
3.8261673 1.8583702 12.072228 0 255 255
3.9039652 0.62500495 12.2907505 0 255 255
3.9983904 -0.58492666 12.586605 0 255 255
3.8786187 1.1379265 12.197862 0 255 255
3.8136382 2.2027996 11.993472 0 255 255
3.9559233 0.27350542 12.400736 0 255 255
3.8644693 1.6303453 12.114021 0 255 255
3.8644693 1.6303453 12.114021 0 255 255
3.8918204 1.2828757 12.186572 0 255 255
3.8348505 2.3000088 11.995281 0 255 255
3.9383957 0.5409606 12.318989 0 255 255
3.8867593 1.457067 12.157706 0 255 255
3.9242837 0.88282585 12.275022 0 255 255
3.822722 2.4026341 11.944471 0 255 255
3.822722 2.4026341 11.944471 0 255 255
3.9371436 0.82337624 12.275574 0 255 255
3.8962364 1.5010991 12.148079 0 255 255
3.8899896 1.8520601 12.076828 0 255 255
3.8800333 2.079427 12.033055 0 255 255
4.0923414 -0.85929966 12.597126 0 255 255
4.0472813 0.1448744 12.405991 0 255 255
3.9524856 1.8615044 12.102792 0 255 255
3.947179 2.0343516 12.0736885 0 255 255
4.1402006 -0.8729388 12.610917 0 255 255
4.1209536 0.36071673 12.499927 0 255 255
4.17852 -0.94524705 12.660623 0 255 255
4.1980524 -0.9641274 12.627704 0 255 255
4.1641865 0.37326407 12.487679 0 255 255
4.2281275 -0.9977443 12.653268 0 255 255
4.090795 1.4696642 12.217134 0 255 255
4.1901894 0.35715404 12.475214 0 255 255
4.105765 1.3489789 12.211731 0 255 255
4.0794477 2.1558871 12.096308 0 255 255
4.1875734 0.797921 12.304092 0 255 255
4.1820016 1.5869758 12.225784 0 255 255
4.1820016 1.5869758 12.225784 0 255 255
4.10787 2.484063 11.996934 0 255 255
3.860738 -0.9922931 11.262416 0 255 255
4.2806373 0.23860729 12.489232 0 255 255
4.199608 1.9006709 12.167049 0 255 255
4.3729043 -0.8632456 12.643613 0 255 255
4.3729043 -0.8632456 12.643613 0 255 255
4.140015 1.8806556 11.946801 0 255 255
4.380196 -0.55363846 12.625652 0 255 255
4.262787 1.5886147 12.240289 0 255 255
4.557398 -1.0238694 13.034488 0 255 255
4.285268 1.3475131 12.232318 0 255 255
4.2998614 1.5321053 12.261922 0 255 255
4.387991 -0.066763334 12.476187 0 255 255
4.4408245 -0.43039256 12.614277 0 255 255
4.331615 1.4289703 12.292102 0 255 255
4.4585133 -0.41830164 12.627419 0 255 255
4.297198 2.203393 12.147027 0 255 255
4.403536 0.887337 12.33957 0 255 255
4.3020625 2.5498726 12.031984 0 255 255
4.3020625 2.5498726 12.031984 0 255 255
4.488291 -0.16223808 12.552552 0 255 255
4.5269694 -0.41874292 12.636539 0 255 255
4.4884214 0.12407829 12.505011 0 255 255
4.489384 0.29249707 12.483879 0 255 255
4.5333314 -0.13256948 12.533667 0 255 255
4.542679 0.0025933646 12.523963 0 255 255
4.530783 0.4127616 12.456052 0 255 255
4.4855433 1.0477518 12.331523 0 255 255
4.4855433 1.0477518 12.331523 0 255 255
4.542184 0.3993773 12.475475 0 255 255
4.5291224 0.5474936 12.427849 0 255 255
4.54948 0.2955137 12.483607 0 255 255
4.5380063 0.6904791 12.416893 0 255 255
4.6086044 -0.317476 12.598818 0 255 255
4.5468464 0.6388281 12.417655 0 255 255
4.5676107 0.37139454 12.4626665 0 255 255
4.5723724 0.34389526 12.475882 0 255 255
4.715023 -0.71520895 12.852506 0 255 255
4.5788875 0.3558435 12.47016 0 255 255
4.485176 1.7023212 12.214976 0 255 255
4.5752964 0.5468392 12.4486065 0 255 255
4.6168194 -0.06651616 12.561517 0 255 255
4.550036 0.82762575 12.37977 0 255 255
4.5758905 0.53101933 12.450339 0 255 255
4.478969 1.8608768 12.175268 0 255 255
4.478969 1.8608768 12.175268 0 255 255
4.5783215 0.55866975 12.445106 0 255 255
4.4904838 1.7387629 12.195188 0 255 255
4.5148034 1.4727417 12.261201 0 255 255
4.5320983 1.3817935 12.273781 0 255 255
4.581054 0.85073155 12.394598 0 255 255
4.5307965 1.6026517 12.2474375 0 255 255
4.5307965 1.6026517 12.2474375 0 255 255
4.655806 -0.057684485 12.573442 0 255 255
4.531184 1.5857233 12.237151 0 255 255
4.531184 1.5857233 12.237151 0 255 255
4.5203767 1.7795976 12.207947 0 255 255
4.5373006 1.6118692 12.242297 0 255 255
4.5692396 1.2314577 12.305477 0 255 255
4.655312 0.21583952 12.51419 0 255 255
4.570011 1.3947824 12.284817 0 255 255
4.613153 0.8377502 12.400906 0 255 255
4.62163 0.6018686 12.412075 0 255 255
4.572467 1.6038191 12.257452 0 255 255
4.5197225 2.2201345 12.093722 0 255 255
4.5713 1.7180043 12.231741 0 255 255
4.775449 -0.5642486 12.765938 0 255 255
4.5711308 1.8872521 12.186385 0 255 255
4.515598 2.4008155 12.038325 0 255 255
4.6509857 0.8517216 12.399145 0 255 255
4.651363 1.014091 12.366326 0 255 255
4.6878233 0.72068626 12.4288845 0 255 255
4.6332994 1.5433241 12.262079 0 255 255
4.620719 1.8588893 12.206649 0 255 255
4.735832 0.31102613 12.499023 0 255 255
4.72684 0.53569525 12.464231 0 255 255
4.7692747 0.021576565 12.564763 0 255 255
4.691442 1.1521046 12.359684 0 255 255
4.7243104 0.6797591 12.434981 0 255 255
4.773656 0.08597152 12.553499 0 255 255
4.76588 0.28823936 12.533025 0 255 255
4.764272 0.31799427 12.517466 0 255 255
4.725597 0.8237566 12.415862 0 255 255
3.9052224 0.7009135 10.260895 0 255 255
3.9052224 0.7009135 10.260895 0 255 255
4.7537236 0.39126638 12.489842 0 255 255
4.7975516 -0.052519318 12.5935335 0 255 255
4.779666 0.27200645 12.512364 0 255 255
4.762859 0.6080822 12.468629 0 255 255
4.7602124 0.6651399 12.450676 0 255 255
4.759186 0.7797471 12.436775 0 255 255
4.8030133 0.1348237 12.540079 0 255 255
4.8030133 0.1348237 12.540079 0 255 255
4.801069 0.18474525 12.534808 0 255 255
4.759786 0.75125825 12.426991 0 255 255
4.7604213 1.1244024 12.4179 0 255 255
4.72815 0.96479535 12.333518 0 255 255
4.79984 0.39254794 12.50928 0 255 255
4.799344 0.5670651 12.474382 0 255 255
4.7966833 0.7088749 12.444999 0 255 255
4.7985954 0.64718163 12.439089 0 255 255
4.834743 0.21945597 12.53267 0 255 255
4.8230925 0.40445954 12.491416 0 255 255
4.7917957 0.8080545 12.410066 0 255 255
4.7346945 0.9275351 12.197205 0 255 255
4.722102 2.2227616 12.154006 0 255 255
4.7795887 1.8417143 12.237066 0 255 255
4.773628 2.1896174 12.146748 0 255 255
4.96257 -0.044779364 12.605287 0 255 255
4.96257 -0.044779364 12.605287 0 255 255
4.835339 1.7366083 12.260906 0 255 255
4.974108 -0.0137755675 12.580179 0 255 255
4.9434223 1.2431879 12.372941 0 255 255
5.0394907 -0.3600179 12.602537 0 255 255
4.947421 1.3071698 12.36172 0 255 255
4.947421 1.3071698 12.36172 0 255 255
4.9566603 1.1586459 12.374129 0 255 255
4.9566603 1.1586459 12.374129 0 255 255
4.9606047 1.1595398 12.383975 0 255 255
4.9606047 1.1595398 12.383975 0 255 255
5.049321 -0.27493748 12.583544 0 255 255
5.0519333 -0.33919126 12.59016 0 255 255
5.0609627 -0.31647414 12.580399 0 255 255
5.0677648 -0.30267867 12.586115 0 255 255
5.4205027 2.817291 12.879279 0 255 255
5.452786 2.7854798 12.913738 0 255 255
5.452786 2.7854798 12.913738 0 255 255
2.2250018 1.2291172 4.6942925 0 255 255
2.236686 1.153244 4.7022343 0 255 255
2.236686 1.153244 4.7022343 0 255 255
