ply
format ascii 1.0
element vertex 629
property float x
property float y
property float z
property int red
property int blue
property int green
end_header
-2.5855048 -0.5239241 6.021298 0 100 155
-2.4910228 0.702047 5.8026743 0 100 155
-2.4766061 -0.09633079 5.9455667 0 100 155
-2.4784272 0.42502043 5.8675776 0 100 155
-2.4583242 0.49325618 5.852423 0 100 155
-2.4583242 0.49325618 5.852423 0 100 155
-2.459613 0.42313308 5.873012 0 100 155
-2.4864125 0.007206592 5.9443655 0 100 155
-2.4901264 -0.098327585 5.967441 0 100 155
-2.4871168 -0.20109774 5.9767675 0 100 155
-2.450279 0.26619044 5.909125 0 100 155
-2.4522338 0.2315133 5.916094 0 100 155
-2.4885898 -0.24247211 6.0050044 0 100 155
-2.4753766 -0.29722318 5.9902697 0 100 155
-2.4366906 0.3841721 5.90546 0 100 155
-2.4384544 0.19266748 5.9287815 0 100 155
-2.4514136 -0.08805091 5.9774494 0 100 155
-2.3589942 0.8128535 5.799897 0 100 155
-2.3279302 1.1843219 5.734533 0 100 155
-2.3472505 0.74180514 5.8381886 0 100 155
-2.3944523 0.12643862 5.9592 0 100 155
-2.3944523 0.12643862 5.9592 0 100 155
-2.410921 -0.29074723 6.0037045 0 100 155
-2.343214 0.73055816 5.8533206 0 100 155
-2.2998986 1.0920238 5.7864337 0 100 155
-2.384002 -0.1325971 6.0044847 0 100 155
-2.3102863 0.9144172 5.81855 0 100 155
-2.3111691 0.8130118 5.8408203 0 100 155
-2.3206446 0.48603263 5.906213 0 100 155
-2.3330188 0.06894677 5.986318 0 100 155
-2.2916195 0.4332626 5.9087095 0 100 155
-2.2793555 0.5033494 5.915715 0 100 155
-2.325929 -0.28855336 6.042905 0 100 155
-2.3076785 0.020591196 6.0030384 0 100 155
-2.3245773 -0.24146058 6.050463 0 100 155
-2.3102002 -0.08649139 6.024996 0 100 155
-2.3102002 -0.08649139 6.024996 0 100 155
-2.3144362 -0.3110204 6.0607595 0 100 155
-2.3165479 -0.3343066 6.0697174 0 100 155
-2.2498872 0.5832574 5.9175653 0 100 155
-2.1894522 1.361493 5.7618237 0 100 155
-2.2588341 0.13771453 5.996255 0 100 155
-2.2734761 -0.45440263 6.041347 0 100 155
-2.2960184 -0.53505605 6.1290693 0 100 155
-2.263036 -0.48940852 6.0530033 0 100 155
-2.263036 -0.48940852 6.0530033 0 100 155
-2.2012665 0.31706813 5.939791 0 100 155
-2.1356773 1.2581158 5.7666 0 100 155
-2.4057853 -1.163823 6.555154 0 100 155
-2.248875 -0.7908509 6.18193 0 100 155
-2.2388692 -0.69820887 6.175992 0 100 155
-2.2036347 -0.110841855 6.1192355 0 100 155
-2.1482818 -0.26303163 6.0993495 0 100 155
-2.0391607 1.3215647 5.8310585 0 100 155
-2.1232243 -0.40075147 6.098071 0 100 155
-2.3297904 -1.4856149 6.8021927 0 100 155
-2.3262825 -1.5659218 6.831581 0 100 155
-1.9818318 1.3697886 5.8204637 0 100 155
-2.3259587 -1.7097498 6.8702044 0 100 155
-2.3251555 -1.7274601 6.879893 0 100 155
-1.980362 1.1304717 5.8583355 0 100 155
-2.3188603 -1.7357262 6.887332 0 100 155
-2.3188603 -1.7357262 6.887332 0 100 155
-2.3101566 -1.7135676 6.881483 0 100 155
-2.2461936 -1.2962798 6.7062035 0 100 155
-1.9777422 0.7763036 5.9632773 0 100 155
-2.0477057 -0.6496264 6.255008 0 100 155
-1.9604456 0.6237912 5.9943137 0 100 155
-1.964271 0.5224414 6.018865 0 100 155
-1.9389682 0.8136501 5.970616 0 100 155
-1.9757634 0.11425392 6.0919185 0 100 155
-1.9560539 0.42132857 6.0428667 0 100 155
-1.9537449 -0.22372858 6.175124 0 100 155
-1.914088 0.7832862 5.9796257 0 100 155
-1.9641697 -0.068111874 6.1396227 0 100 155
-1.9641697 -0.068111874 6.1396227 0 100 155
-1.9095004 0.72770196 5.9905853 0 100 155
-1.9855745 -0.49987364 6.2359996 0 100 155
-1.8834244 1.1059076 5.9283752 0 100 155
-1.9622546 -0.29650545 6.189474 0 100 155
-1.9326451 -0.01207906 6.136466 0 100 155
-1.9264895 -0.1128398 6.148931 0 100 155
-1.9296634 -0.33386794 6.2387776 0 100 155
-1.9296634 -0.33386794 6.2387776 0 100 155
-1.8476915 0.68344706 6.023271 0 100 155
-1.3210427 -0.076387614 4.32038 0 100 155
-1.8622465 0.15858836 6.125771 0 100 155
-1.8722746 -0.46715075 6.18077 0 100 155
-1.812028 0.9281397 5.9818296 0 100 155
-1.8671986 -0.16435748 6.1964116 0 100 155
-1.7985524 0.85884655 6.004511 0 100 155
-1.822408 0.29871807 6.1165576 0 100 155
-1.7743192 1.1221613 5.958158 0 100 155
-1.8392098 -0.07376939 6.181465 0 100 155
-1.8281311 -0.32864466 6.2182493 0 100 155
-1.8127286 -0.106068105 6.1959567 0 100 155
-1.8008137 0.09528445 6.1618457 0 100 155
-1.7971964 0.18959646 6.150809 0 100 155
-1.776222 0.44998917 6.087287 0 100 155
-1.7563853 0.79884225 6.028942 0 100 155
-1.7781256 -0.06207487 6.1965814 0 100 155
-1.780167 -0.16713084 6.220354 0 100 155
-1.7363392 -0.4650536 6.2350125 0 100 155
-1.8385358 0.6758659 7.072321 0 100 155
-1.8243564 0.030813666 7.236199 0 100 155
-1.839747 -0.54787475 7.379098 0 100 155
-1.8362414 -0.5806967 7.379457 0 100 155
-1.8338842 -0.593849 7.3766475 0 100 155
-1.8156301 -0.61998355 7.392684 0 100 155
-1.982536 -1.2128712 8.209068 0 100 155
-1.7512139 0.033772122 7.280745 0 100 155
-1.7224035 -0.5976851 7.4123793 0 100 155
-1.9388158 -1.4214863 8.360978 0 100 155
-1.9297411 -1.397429 8.347385 0 100 155
-1.9268676 -1.4132507 8.3591 0 100 155
-1.9205499 -1.4189364 8.366538 0 100 155
-1.6959696 -0.33443406 7.401624 0 100 155
-1.9192549 -1.5128338 8.39851 0 100 155
-1.8874068 -1.4028056 8.382244 0 100 155
-1.6426488 0.052179534 7.3117805 0 100 155
-1.636407 0.15298378 7.290744 0 100 155
-1.636407 0.15298378 7.290744 0 100 155
-1.6035244 0.7518567 7.1803393 0 100 155
-1.5708779 0.75091934 7.1933103 0 100 155
-1.5708779 0.75091934 7.1933103 0 100 155
-1.8155475 -1.3009801 8.337592 0 100 155
-1.5724369 0.67064315 7.2157974 0 100 155
-1.8262237 -1.3658266 8.396705 0 100 155
-1.5203543 -0.04586194 7.379433 0 100 155
-1.4995279 0.4298798 7.278808 0 100 155
-1.5109285 -0.067927614 7.4067736 0 100 155
-1.4873195 -0.082189485 7.3988886 0 100 155
-1.6706506 -1.0190322 8.418611 0 100 155
-1.4791187 -0.3101708 7.466633 0 100 155
-1.6526288 -1.334437 8.441571 0 100 155
-1.4646107 -0.3787852 7.495143 0 100 155
-1.4426049 -0.34947923 7.508497 0 100 155
-1.3177043 0.17690288 7.4855275 0 100 155
-1.3177043 0.17690288 7.4855275 0 100 155
-1.4801615 -1.2818719 8.462379 0 100 155
-1.2622992 -0.1765356 7.4661293 0 100 155
-1.2387913 -0.19877361 7.468119 0 100 155
-1.2387913 -0.19877361 7.468119 0 100 155
-1.2253373 -0.39958537 7.5803456 0 100 155
-1.2120663 -0.27220598 7.572195 0 100 155
-1.2031952 -0.27183792 7.5711937 0 100 155
-1.1448146 0.9420722 7.3023977 0 100 155
-1.1394769 1.042154 7.280047 0 100 155
-1.1681601 0.18297566 7.4796863 0 100 155
-1.1386739 0.78329945 7.3475914 0 100 155
-1.1241981 0.65106696 7.3778024 0 100 155
-1.1422707 0.075894766 7.5048637 0 100 155
-1.1208287 0.45176712 7.431688 0 100 155
-1.1263684 -0.026663605 7.512081 0 100 155
-1.2582132 -1.3116677 8.591446 0 100 155
-1.2582132 -1.3116677 8.591446 0 100 155
-1.112715 -0.39008778 7.6618533 0 100 155
-1.0707104 0.6677285 7.403754 0 100 155
-1.0855601 0.13078552 7.515683 0 100 155
-1.0613896 0.8840044 7.353381 0 100 155
-1.1436118 -0.6821818 8.021497 0 100 155
-1.1408321 -0.7143803 8.044784 0 100 155
-1.0234514 1.3851044 7.2525244 0 100 155
-0.9657793 1.5562779 6.89507 0 100 155
-1.0288451 0.73973435 7.3735 0 100 155
-1.0288451 0.73973435 7.3735 0 100 155
-1.034729 0.70410246 7.419137 0 100 155
-1.047737 -0.054723553 7.5753045 0 100 155
-1.1856157 -1.318256 8.631372 0 100 155
-1.0256313 0.36368772 7.4831734 0 100 155
-1.0064025 0.84224415 7.379531 0 100 155
-1.0113649 0.6563252 7.4171705 0 100 155
-1.1596969 -1.2508495 8.566909 0 100 155
-1.0017366 0.540773 7.454125 0 100 155
-1.0017366 0.540773 7.454125 0 100 155
-1.0122586 0.026555961 7.5645113 0 100 155
-1.1040666 -1.6638215 8.558691 0 100 155
-0.9212373 1.5868379 7.1450505 0 100 155
-1.067835 -1.3206372 8.683153 0 100 155
-1.0565268 -1.3011118 8.66635 0 100 155
-0.87764543 -0.57394654 7.757244 0 100 155
-0.8458745 0.8956967 7.4906483 0 100 155
-0.8635846 -0.60782534 7.7578664 0 100 155
-0.625543 0.14844209 5.6686225 0 100 155
-0.625543 0.14844209 5.6686225 0 100 155
-0.9588357 -1.3103522 8.712012 0 100 155
-0.80798966 0.60536623 7.5102983 0 100 155
-0.7411227 1.0110158 7.474744 0 100 155
-0.7439068 0.56925637 7.5452647 0 100 155
-0.7893426 -0.6801592 8.161171 0 100 155
-0.80978066 -1.5945481 8.573919 0 100 155
-0.72987914 -0.24368173 7.73159 0 100 155
-0.7943988 -1.0215274 8.484923 0 100 155
-0.79323703 -1.5708108 8.587421 0 100 155
-0.7814901 -1.026218 8.473905 0 100 155
-0.77833176 -0.99807435 8.475052 0 100 155
-0.7758466 -1.0094234 8.482901 0 100 155
-0.691804 -0.023929652 7.689308 0 100 155
-0.76333964 -1.0641946 8.520748 0 100 155
-0.7564022 -1.0486776 8.503846 0 100 155
-0.7574443 -1.1215684 8.52197 0 100 155
-0.7574443 -1.1215684 8.52197 0 100 155
-0.75879896 -1.2582976 8.554224 0 100 155
-0.76155114 -1.4538931 8.592152 0 100 155
-0.76155114 -1.4538931 8.592152 0 100 155
-0.75975955 -1.361112 8.573143 0 100 155
-0.74684256 -1.0103426 8.511397 0 100 155
-0.66228104 0.4232025 7.606609 0 100 155
-0.7251275 -1.0359579 8.509987 0 100 155
-0.6416353 0.00033775833 7.677196 0 100 155
-1.707926 -3.6388583 22.27605 0 100 155
-0.6341968 -1.2862242 8.834872 0 100 155
-0.5078115 0.5472949 7.394888 0 100 155
-0.4908859 0.079324886 7.5424232 0 100 155
-0.46722463 1.2940785 7.236202 0 100 155
-0.44306815 0.8756956 7.356852 0 100 155
-0.50635564 -1.905456 9.045908 0 100 155
-0.4778339 -1.8779892 9.022573 0 100 155
-0.47085026 -1.809776 9.011591 0 100 155
-0.39480764 -0.02237798 7.5717554 0 100 155
-0.38780454 0.47316346 7.472284 0 100 155
-0.38780454 0.47316346 7.472284 0 100 155
-0.43997422 -1.260524 8.615416 0 100 155
-0.3820921 -0.19317 7.5565143 0 100 155
-0.3820921 -0.19317 7.5565143 0 100 155
-0.44808632 -1.8433696 8.998362 0 100 155
-0.43816894 -2.0996623 9.155391 0 100 155
-0.43910784 -2.2555094 9.184364 0 100 155
-0.34891745 0.60767895 7.3687625 0 100 155
-0.35926017 0.34120947 7.5838094 0 100 155
-0.42962697 -2.2567022 9.18955 0 100 155
-0.3601492 -0.32396942 7.711228 0 100 155
-0.4262689 -2.1172318 9.158511 0 100 155
-0.42328262 -2.24859 9.200158 0 100 155
-0.4184902 -2.14536 9.166818 0 100 155
-0.35128042 -0.30960184 7.6979523 0 100 155
-0.41738296 -2.0984294 9.160574 0 100 155
-0.40814433 -2.1170366 9.16386 0 100 155
-0.3975986 -1.9899533 9.099933 0 100 155
-0.3975986 -1.9899533 9.099933 0 100 155
-0.30354974 -0.007593343 7.6018486 0 100 155
-0.35000917 -1.4286646 8.80344 0 100 155
-0.32625073 -1.3086247 8.70656 0 100 155
-0.27720505 -0.051651467 7.623378 0 100 155
-0.2652297 0.4500172 7.5191517 0 100 155
-0.28622708 -1.2612697 8.687894 0 100 155
-0.24821855 -0.24488893 7.5966625 0 100 155
-0.24895613 -0.36315557 7.7292495 0 100 155
-0.19845843 0.75325394 7.4034996 0 100 155
-0.20300087 -1.5123309 8.875199 0 100 155
-0.16532533 -0.5094792 7.77628 0 100 155
-0.15809932 0.55230975 7.5286164 0 100 155
-0.15405084 -0.2177994 7.6280684 0 100 155
-0.15470664 -0.53409326 7.7778955 0 100 155
-0.14998725 -0.18525158 7.6380196 0 100 155
-0.16775659 -1.2476554 8.721608 0 100 155
-0.16775659 -1.2476554 8.721608 0 100 155
-0.13786477 -0.030483752 7.660976 0 100 155
-0.10962483 0.14621076 7.690513 0 100 155
-0.10785746 0.4011218 7.6602006 0 100 155
-0.10371657 0.5479742 7.5914183 0 100 155
-0.10371657 0.5479742 7.5914183 0 100 155
-0.09231608 -0.80175066 7.870596 0 100 155
-0.08064652 -0.7079544 7.838915 0 100 155
-0.073776275 -0.7683642 7.852475 0 100 155
-0.07134786 -0.470951 7.8594584 0 100 155
-0.07134786 -0.470951 7.8594584 0 100 155
-0.063913964 -0.8262794 7.8587584 0 100 155
-0.058689795 0.74650824 7.4840574 0 100 155
-0.054777075 0.22959332 7.699211 0 100 155
-0.054777075 0.22959332 7.699211 0 100 155
-0.029505767 -0.5610193 7.8270125 0 100 155
-0.013411384 0.9904825 7.553218 0 100 155
-0.009009384 1.3741752 7.4716024 0 100 155
-0.004187489 -0.71335787 7.8570156 0 100 155
0.0024627105 -0.72248477 7.860829 0 100 155
0.0046804533 -0.66339725 7.856084 0 100 155
0.039294552 -0.59185123 7.8561215 0 100 155
0.04844099 -0.17855008 7.7224927 0 100 155
0.0882245 0.13547386 7.7212224 0 100 155
0.09301252 0.09499708 7.7356215 0 100 155
0.094977774 -0.20632364 7.7696233 0 100 155
0.110788465 -1.5374306 8.956377 0 100 155
0.11245218 -1.2858145 8.890186 0 100 155
0.11583967 -1.4951959 8.938314 0 100 155
0.10136534 0.567337 7.6252193 0 100 155
0.12137926 -1.4072404 8.930156 0 100 155
0.12293508 -1.5200136 8.940122 0 100 155
0.10557641 0.85788596 7.5554714 0 100 155
0.1272552 -1.2149019 8.88251 0 100 155
0.12192611 -0.21712185 7.747982 0 100 155
0.14059152 -1.3939447 8.923814 0 100 155
0.16514188 -1.4958779 8.960697 0 100 155
0.18095925 -1.5531203 8.960544 0 100 155
0.15943067 -0.29341638 7.8536034 0 100 155
0.15943067 -0.29341638 7.8536034 0 100 155
0.16696715 -0.27939266 7.852511 0 100 155
0.16459714 1.4716641 7.4698944 0 100 155
0.20010504 -1.3124112 8.9309225 0 100 155
0.17176475 0.7580484 7.5717583 0 100 155
0.20525852 -0.028034156 7.8233194 0 100 155
0.22999966 0.020129677 7.7666707 0 100 155
0.2772252 -1.2320411 9.164698 0 100 155
0.26013783 -0.15973748 7.792261 0 100 155
0.2629778 -0.14021137 7.796598 0 100 155
0.25844818 1.3407654 7.473681 0 100 155
0.3354068 -0.6801368 8.584686 0 100 155
0.32096592 0.5245662 7.734182 0 100 155
0.35095128 0.06816963 7.8447323 0 100 155
0.35682622 0.0042366907 7.834555 0 100 155
0.36080492 -0.06907914 7.867832 0 100 155
0.43635914 -1.1769271 9.176585 0 100 155
0.4535433 -1.1963577 9.193742 0 100 155
0.3473408 1.5549132 6.5987062 0 100 155
0.51151556 -0.3106949 8.228182 0 100 155
0.5720825 -0.47083247 8.278682 0 100 155
0.5915723 -0.45434153 8.2677 0 100 155
0.6257679 0.55570537 8.126057 0 100 155
0.6300023 0.6025061 8.035754 0 100 155
0.6763663 -0.09590115 8.173405 0 100 155
0.7616707 -0.65718395 8.744124 0 100 155
0.72099406 0.048191357 8.222637 0 100 155
0.74184644 0.6535138 8.0836315 0 100 155
0.76429904 -0.1581876 8.291754 0 100 155
0.80721503 -0.5453225 8.702846 0 100 155
0.8953564 -1.1478231 9.329523 0 100 155
0.7926329 0.95418566 8.0504265 0 100 155
0.92878824 -1.1784167 9.389104 0 100 155
0.81587976 0.17769882 8.224835 0 100 155
0.7947901 1.273484 7.96874 0 100 155
0.93741083 -1.189318 9.388206 0 100 155
0.8114293 0.8875248 8.053339 0 100 155
0.8180728 0.64782846 8.114789 0 100 155
0.836658 0.23587227 8.208124 0 100 155
0.82771015 0.942254 8.060523 0 100 155
0.82771015 0.942254 8.060523 0 100 155
0.8284174 1.0503782 8.043632 0 100 155
0.8751384 0.2300846 8.240288 0 100 155
0.8751384 0.2300846 8.240288 0 100 155
0.8597055 0.87392235 8.087143 0 100 155
0.8759977 0.34670553 8.203866 0 100 155
0.8804115 0.4520994 8.189584 0 100 155
0.8843509 0.5732703 8.156565 0 100 155
0.8874436 0.99583614 8.071533 0 100 155
0.8874436 0.99583614 8.071533 0 100 155
0.8878545 1.1113125 8.047548 0 100 155
0.90107924 0.6615705 8.154374 0 100 155
0.9132734 0.0834323 8.25283 0 100 155
0.88886124 1.2138273 8.025554 0 100 155
0.88886124 1.2138273 8.025554 0 100 155
0.89147776 1.3194493 8.0039625 0 100 155
0.89147776 1.3194493 8.0039625 0 100 155
0.89308894 1.4504833 7.975745 0 100 155
0.89308894 1.4504833 7.975745 0 100 155
0.93687016 0.006054415 8.310158 0 100 155
0.95246565 -0.18543105 8.36726 0 100 155
0.9483752 0.13407798 8.282683 0 100 155
0.9313547 0.8782777 8.113095 0 100 155
1.1007347 -1.1453215 9.420617 0 100 155
1.1200184 -1.4244392 9.572061 0 100 155
0.9691638 -0.052403755 8.2779045 0 100 155
0.98418814 -0.2014552 8.387103 0 100 155
1.1257983 -1.358947 9.560112 0 100 155
1.1309677 -1.3734745 9.556354 0 100 155
1.0085176 -0.43173856 8.4302435 0 100 155
1.1206524 -1.0818264 9.359778 0 100 155
0.99388075 0.6665944 8.173897 0 100 155
1.1834232 -1.202775 9.510128 0 100 155
1.1865361 -1.2358162 9.51704 0 100 155
1.0382159 -0.052028477 8.310968 0 100 155
1.1903442 -1.2180247 9.526633 0 100 155
1.1903442 -1.2180247 9.526633 0 100 155
1.0571737 -0.04761863 8.313512 0 100 155
1.0560174 0.6376036 8.221678 0 100 155
1.0700954 0.1833423 8.334805 0 100 155
1.0934774 -0.4905832 8.465346 0 100 155
1.0548412 1.0323168 8.148842 0 100 155
1.0548412 1.0323168 8.148842 0 100 155
1.0755837 0.95670146 8.13377 0 100 155
1.185786 -0.59935063 8.905495 0 100 155
1.0167165 1.6840128 7.620357 0 100 155
1.1973861 -0.5913346 8.885279 0 100 155
1.1049325 0.70784146 8.178184 0 100 155
1.198976 -0.5702012 8.874057 0 100 155
1.1616422 -0.10259518 8.353088 0 100 155
1.2446424 -0.6359617 8.921573 0 100 155
1.1829236 0.18935212 8.374077 0 100 155
1.1881044 0.64672685 8.297964 0 100 155
1.2976296 -0.59006536 8.919405 0 100 155
1.247237 -0.16753763 8.477255 0 100 155
1.3051571 0.06945073 8.422128 0 100 155
1.3051571 0.06945073 8.422128 0 100 155
1.2741264 0.8670119 8.20513 0 100 155
1.2969563 0.5270143 8.332542 0 100 155
1.2990153 0.6309398 8.309143 0 100 155
1.4725305 -0.9656339 9.334897 0 100 155
1.3055303 0.7264976 8.254522 0 100 155
1.3425028 0.048481684 8.453861 0 100 155
1.3054925 1.2883106 8.168227 0 100 155
1.3479874 0.27012113 8.407789 0 100 155
1.3487883 0.36149985 8.383583 0 100 155
1.3522612 0.47456294 8.3679 0 100 155
1.3558761 0.5994022 8.336775 0 100 155
1.3600367 0.78850055 8.294329 0 100 155
1.3889521 0.074882 8.464058 0 100 155
1.3566996 0.92628074 8.255884 0 100 155
1.3581893 1.1412332 8.2191105 0 100 155
1.3581893 1.1412332 8.2191105 0 100 155
1.360404 1.3405311 8.172105 0 100 155
1.4059378 -0.05229135 8.441326 0 100 155
1.3604538 1.476532 8.142717 0 100 155
1.3854907 0.8695993 8.270762 0 100 155
1.6116124 -1.3220563 9.480467 0 100 155
1.4109795 0.96868384 8.271545 0 100 155
1.4306177 0.67357886 8.3671255 0 100 155
1.4296306 0.9191813 8.290475 0 100 155
1.6308668 -1.2908316 9.451676 0 100 155
1.6760119 -1.20973 9.451112 0 100 155
1.6885443 -0.88161623 9.3806 0 100 155
1.4038123 1.5749062 7.7894278 0 100 155
1.4038123 1.5749062 7.7894278 0 100 155
1.688041 -0.807915 9.356811 0 100 155
1.4087543 1.6058481 7.7954826 0 100 155
1.7153337 -1.250226 9.474864 0 100 155
1.7153337 -1.250226 9.474864 0 100 155
1.7345018 -1.3638145 9.490678 0 100 155
1.7358209 -1.341071 9.482351 0 100 155
1.9008133 -1.2160279 10.210838 0 100 155
1.9243985 -1.1640313 10.191923 0 100 155
1.9343921 -1.1528621 10.189036 0 100 155
1.6390039 0.21549766 8.516743 0 100 155
1.6268938 0.8995768 8.321813 0 100 155
1.6765531 0.25008398 8.550512 0 100 155
1.7060502 -0.011630706 8.550859 0 100 155
1.7119368 0.08398704 8.561982 0 100 155
1.9641914 -0.95095897 9.820336 0 100 155
1.7188048 -0.03732346 8.568299 0 100 155
1.7353796 -0.074758105 8.575566 0 100 155
1.689224 1.574313 8.227339 0 100 155
1.689224 1.574313 8.227339 0 100 155
1.9649441 -1.3294259 9.55192 0 100 155
1.9734038 -1.2484239 9.590944 0 100 155
1.9747413 -1.3115313 9.568234 0 100 155
1.733648 0.99274415 8.380972 0 100 155
1.985278 -1.2644578 9.579498 0 100 155
1.7867235 0.09261197 8.60404 0 100 155
1.785136 0.18157206 8.5858 0 100 155
1.7669218 0.6559672 8.47637 0 100 155
1.7882435 0.04009053 8.566136 0 100 155
2.005007 -1.3085735 9.569177 0 100 155
1.801697 1.1875918 8.281747 0 100 155
2.0243719 -1.1217403 9.550295 0 100 155
2.0244567 -1.0726964 9.539359 0 100 155
1.8251857 0.17144023 8.587126 0 100 155
1.8251857 0.17144023 8.587126 0 100 155
1.7953718 0.8502688 8.441104 0 100 155
1.7937732 0.9327739 8.423155 0 100 155
2.0445495 -1.174613 9.577069 0 100 155
1.774796 1.6550783 8.243645 0 100 155
2.0787776 -1.3393879 9.650244 0 100 155
1.8058875 1.2014968 8.365353 0 100 155
2.0740118 -1.1869112 9.591139 0 100 155
1.8374475 0.71247023 8.470841 0 100 155
1.8374432 0.7124669 8.470727 0 100 155
1.8051131 1.529264 8.289659 0 100 155
2.0685956 -1.0540884 9.48858 0 100 155
1.8498739 0.7678071 8.434257 0 100 155
2.0318155 -0.79878926 9.234183 0 100 155
2.1284811 -1.3379506 9.672032 0 100 155
1.8315254 1.555376 8.284078 0 100 155
1.8315254 1.555376 8.284078 0 100 155
2.0429673 -0.82248306 9.230548 0 100 155
1.8237126 1.7481513 8.225123 0 100 155
1.8445082 1.5357666 8.271524 0 100 155
2.1510117 -1.2760895 9.632345 0 100 155
1.8658146 0.92079043 8.3431425 0 100 155
1.8482957 1.6540225 8.228829 0 100 155
1.8714707 0.9746327 8.334164 0 100 155
1.8714707 0.9746327 8.334164 0 100 155
2.1698694 -1.2777045 9.63185 0 100 155
2.1698694 -1.2777045 9.63185 0 100 155
2.197694 -1.3333002 9.701653 0 100 155
2.1187468 -1.0165924 9.275503 0 100 155
1.8924235 0.8827494 8.217255 0 100 155
1.9649936 -0.42377657 8.256568 0 100 155
1.9805729 -0.46231917 8.209364 0 100 155
1.9733521 0.6279856 8.051316 0 100 155
1.9851409 -0.15390946 8.007209 0 100 155
1.9851409 -0.15390946 8.007209 0 100 155
1.9872874 -0.13194384 8.002123 0 100 155
1.9980952 -0.15438585 7.9943347 0 100 155
1.9686562 1.5592738 7.8281126 0 100 155
2.0069067 -0.16923288 7.9149404 0 100 155
2.0517716 0.13997298 7.9257913 0 100 155
2.0566962 0.08330102 7.9097834 0 100 155
2.290737 -1.1853507 8.793023 0 100 155
2.164608 -0.5483494 8.171781 0 100 155
2.0591986 0.9002935 7.7718644 0 100 155
2.0992415 -0.059709515 7.815835 0 100 155
2.0976272 -0.03316227 7.795319 0 100 155
2.0888135 0.5027551 7.7170296 0 100 155
2.086347 0.53601676 7.655445 0 100 155
2.1047933 -0.07305319 7.7157793 0 100 155
2.0994008 -0.23582831 7.634538 0 100 155
2.1278992 -0.15227266 7.7270126 0 100 155
2.1002207 0.71425945 7.620313 0 100 155
2.1117363 0.67042613 7.6270876 0 100 155
2.4002106 -1.5241212 8.662447 0 100 155
2.1143923 0.73911434 7.609562 0 100 155
2.0736551 1.6945193 7.459234 0 100 155
2.1404212 0.06576237 7.6919107 0 100 155
2.3870006 -1.2271898 8.54408 0 100 155
1.3078903 -0.7337766 4.676432 0 100 155
2.105996 1.3849279 7.498928 0 100 155
2.392551 -1.1228892 8.483446 0 100 155
2.1373515 0.7492316 7.5730915 0 100 155
2.2859876 -0.6582024 8.084657 0 100 155
2.4513447 -1.2279326 8.580109 0 100 155
2.4513447 -1.2279326 8.580109 0 100 155
2.2111595 -0.0077200257 7.6907287 0 100 155
2.1619375 0.4896756 7.51225 0 100 155
2.1736927 0.56789607 7.5411925 0 100 155
2.1899235 0.6445626 7.5552673 0 100 155
2.229368 -0.21897383 7.6756372 0 100 155
2.1837897 0.79691094 7.507453 0 100 155
2.2930555 -0.38507882 7.882612 0 100 155
2.2431738 0.0076436033 7.6928988 0 100 155
2.2194462 0.41733614 7.6002607 0 100 155
2.1964679 0.5143382 7.5167375 0 100 155
2.2542849 -0.053741805 7.7025404 0 100 155
2.2674437 0.0024860664 7.7046633 0 100 155
2.1802704 1.3434409 7.4007554 0 100 155
2.2746215 0.15307532 7.6861534 0 100 155
2.470263 -0.80913895 8.283184 0 100 155
2.470263 -0.80913895 8.283184 0 100 155
2.2425416 0.9019819 7.5142145 0 100 155
2.2564175 0.7330614 7.53167 0 100 155
2.2564175 0.7330614 7.53167 0 100 155
2.239953 1.1154999 7.4717855 0 100 155
2.321451 -0.21714982 7.7343307 0 100 155
2.3142803 0.054080226 7.707295 0 100 155
2.28028 0.5150142 7.585333 0 100 155
2.2408555 1.2191553 7.4483013 0 100 155
2.2408555 1.2191553 7.4483013 0 100 155
2.2404335 1.3201979 7.4287205 0 100 155
2.3475583 -0.26840544 7.7439446 0 100 155
2.2823324 0.97095 7.5113673 0 100 155
2.3650675 -0.21098195 7.7386303 0 100 155
2.4421532 -0.50248706 7.925418 0 100 155
2.422273 -0.30551064 7.8590517 0 100 155
2.3132586 1.0538933 7.4967623 0 100 155
2.4370813 -0.54544467 7.8891606 0 100 155
2.4099936 -0.0953045 7.796951 0 100 155
2.3501256 0.85995823 7.57169 0 100 155
2.4114075 -0.20824249 7.759646 0 100 155
2.3532398 0.85110354 7.572307 0 100 155
2.3532398 0.85110354 7.572307 0 100 155
2.423534 -0.11985319 7.798128 0 100 155
2.3813763 0.4838421 7.6582766 0 100 155
2.4207098 0.05512202 7.7584324 0 100 155
2.411974 0.23312981 7.722023 0 100 155
2.3932922 0.6753285 7.648907 0 100 155
2.4228404 0.15868 7.7397017 0 100 155
2.4228404 0.15868 7.7397017 0 100 155
2.4500306 -0.14556071 7.819616 0 100 155
2.3915381 0.6181264 7.6266813 0 100 155
2.3948953 0.74067295 7.6167912 0 100 155
2.3804877 0.9505728 7.5624485 0 100 155
2.3840907 0.9153142 7.5643744 0 100 155
2.4472196 0.15744747 7.7559466 0 100 155
2.421113 0.47330686 7.6586957 0 100 155
2.4208431 0.7061458 7.63788 0 100 155
2.3855658 1.1217026 7.5223303 0 100 155
2.3919942 1.0581343 7.5313826 0 100 155
2.3894458 1.1681453 7.521994 0 100 155
2.4435453 0.4955352 7.6818604 0 100 155
2.3947847 1.3960428 7.494818 0 100 155
2.3923151 1.4565079 7.4531436 0 100 155
2.4573057 0.90092045 7.6032405 0 100 155
2.4552524 1.2318035 7.53409 0 100 155
2.5459733 0.053562447 7.801016 0 100 155
2.466364 1.5537796 7.5142884 0 100 155
2.523479 0.5636137 7.6706514 0 100 155
2.582909 1.0785724 7.6132746 0 100 155
2.5538492 1.5091162 7.5066147 0 100 155
2.7114928 -0.19189851 7.8776 0 100 155
2.7114928 -0.19189851 7.8776 0 100 155
2.6513202 0.82106304 7.6972294 0 100 155
2.6905565 0.5398764 7.7742352 0 100 155
2.7266684 0.077509895 7.8684864 0 100 155
2.7536995 -0.18732564 7.888329 0 100 155
2.7149196 0.539518 7.772087 0 100 155
2.7746925 -0.058960088 7.8990445 0 100 155
2.7818003 0.026083177 7.9064775 0 100 155
2.8279936 -0.34523442 8.026029 0 100 155
2.768063 0.32225665 7.8431215 0 100 155
2.827193 -0.19902062 7.9771857 0 100 155
2.793206 0.26220766 7.872254 0 100 155
2.823241 0.26641244 7.88191 0 100 155
2.823241 0.26641244 7.88191 0 100 155
2.8012302 0.50629735 7.8117065 0 100 155
2.8328106 0.26978722 7.868985 0 100 155
2.8159573 0.75510764 7.7792854 0 100 155
2.7901528 1.0844281 7.694579 0 100 155
2.7881112 1.2408912 7.651028 0 100 155
2.81919 1.0500038 7.7204037 0 100 155
2.9297183 -0.048718613 8.011347 0 100 155
2.9309766 -0.010732116 7.978629 0 100 155
2.8596048 0.80097723 7.7792883 0 100 155
2.7958415 1.4638999 7.584978 0 100 155
2.8484416 1.1362056 7.699223 0 100 155
2.9645908 -0.09293225 8.010749 0 100 155
2.9441447 0.085058525 7.9530463 0 100 155
2.9560695 -0.14607774 7.9729686 0 100 155
2.943023 0.2417948 7.932142 0 100 155
2.96595 0.13705161 7.955702 0 100 155
2.9707804 -0.1731602 7.963674 0 100 155
2.9477468 0.75656235 7.8216114 0 100 155
2.9120488 1.3618046 7.693389 0 100 155
3.0356534 0.016476244 8.017178 0 100 155
3.0638607 -0.17871308 8.022632 0 100 155
3.0638607 -0.17871308 8.022632 0 100 155
3.0898812 -0.2150474 8.030827 0 100 155
3.0921702 -0.1719402 8.020895 0 100 155
3.0986743 -0.20109694 8.025581 0 100 155
3.096369 -0.16312139 8.018024 0 100 155
3.1054149 -0.18798417 8.02469 0 100 155
3.449659 0.28931752 7.8881764 0 100 155
3.449659 0.28931752 7.8881764 0 100 155
