ply
format ascii 1.0
element vertex 666
property float x
property float y
property float z
property int red
property int blue
property int green
end_header
-0.5824448 -2.9522421 12.162775 100 100 155
-0.5958748 -2.838718 12.112879 100 100 155
-2.4115345 -1.9432367 10.442176 100 100 155
0.107931 -2.2117162 11.90629 100 100 155
-0.9880504 -1.9301758 10.865734 100 100 155
-0.40183452 -2.0746262 11.964969 100 100 155
-1.0076528 -1.7723914 10.849405 100 100 155
0.1403354 -1.836919 11.733651 100 100 155
3.455759 -1.928276 12.269486 100 100 155
-0.5835841 -1.6961795 10.976218 100 100 155
-1.4831705 -1.652522 10.781557 100 100 155
-0.24207474 -1.7122254 11.306405 100 100 155
2.8648734 -2.0681517 13.952737 100 100 155
2.8496292 -2.0385137 13.948119 100 100 155
2.3012052 -1.9664439 13.494049 100 100 155
2.8863273 -2.0382104 14.034146 100 100 155
3.530851 -1.7482829 12.204658 100 100 155
2.4290392 -1.9000614 13.583045 100 100 155
0.8697706 -1.698299 12.668801 100 100 155
1.5665169 -1.6956433 13.167384 100 100 155
-0.95292354 -1.352862 10.69224 100 100 155
-0.09573239 -1.1004144 9.698262 100 100 155
-0.10125062 -1.0099585 9.631822 100 100 155
-2.6137958 -0.57841176 6.0630927 100 100 155
-2.0618892 -0.7753411 8.428325 100 100 155
1.6643625 -0.98940617 12.171385 100 100 155
1.6100112 -0.9038997 12.072767 100 100 155
1.8502688 -0.5699149 11.896576 100 100 155
3.0020921 -0.46974665 10.460941 100 100 155
-0.43668285 -0.38568717 9.178917 100 100 155
3.2157252 -0.4638435 10.655539 100 100 155
4.3877125 -0.4530876 11.792962 100 100 155
0.28573188 -0.36215174 9.78402 100 100 155
-0.450257 -0.27736655 9.016418 100 100 155
1.6562204 -0.31640726 11.372136 100 100 155
4.4698324 -0.27859747 11.794409 100 100 155
0.962279 -0.16338632 10.576532 100 100 155
4.3959017 -0.18674053 11.651635 100 100 155
-1.2325151 -0.10902606 8.87207 100 100 155
2.3963122 -0.1078351 11.812 100 100 155
4.421834 -0.09768488 11.698148 100 100 155
-1.3233626 0.25176316 8.663883 100 100 155
-1.8220553 0.19363111 6.2956896 100 100 155
4.40624 0.38569635 11.546601 100 100 155
3.251387 0.606602 10.530131 100 100 155
4.0975466 0.6662251 11.263324 100 100 155
-2.1346447 1.1753552 8.175042 100 100 155
-2.2908885 0.86816776 5.6483455 100 100 155
-2.5672193 -1.7996662 7.5933905 100 100 155
-0.5747461 -2.8669918 12.1167555 100 100 155
-2.6040819 -1.7780209 7.5551343 100 100 155
-2.6223845 -1.7610666 7.570234 100 100 155
-2.568626 -1.7535374 7.5816603 100 100 155
-0.6122824 -2.789505 12.024477 100 100 155
-2.6151748 -1.6509944 7.4783497 100 100 155
-0.48893553 -2.6179256 11.986703 100 100 155
-0.65366733 -2.5102603 11.832556 100 100 155
-0.60057753 -2.4653838 11.745459 100 100 155
-0.64770406 -2.443377 11.810135 100 100 155
-1.0088263 -2.0671687 10.880342 100 100 155
0.14055815 -2.2109873 11.950534 100 100 155
-0.42193985 -2.1996112 11.921548 100 100 155
-0.6495104 -2.103405 11.514221 100 100 155
-1.7988375 -1.784086 10.706868 100 100 155
-0.99998945 -1.7795396 10.773111 100 100 155
-1.537392 -1.803397 10.977762 100 100 155
-0.9814168 -1.7582573 10.80837 100 100 155
1.5606127 -2.1783066 13.44852 100 100 155
-0.9378217 -1.6326886 10.746555 100 100 155
-0.19939071 -1.7158896 11.291987 100 100 155
-0.116019145 -1.7524074 11.535854 100 100 155
-0.07940568 -1.8218553 12.020246 100 100 155
0.5442064 -1.8373979 12.538312 100 100 155
2.445177 -1.9822873 13.597035 100 100 155
0.17342617 -1.6969299 11.721283 100 100 155
0.9686042 -1.848794 12.897913 100 100 155
1.5858262 -1.9085605 13.415231 100 100 155
1.538968 -1.9016877 13.41385 100 100 155
1.2015485 -1.8441403 13.058347 100 100 155
-0.9430528 -1.5107311 10.771586 100 100 155
-0.97518665 -1.4910119 10.721384 100 100 155
2.3284738 -1.8949404 13.4878025 100 100 155
1.5441484 -1.8493298 13.336969 100 100 155
2.8573608 -1.9350971 13.93638 100 100 155
1.5943085 -1.8463482 13.405361 100 100 155
1.665944 -1.8340921 13.422426 100 100 155
-0.029933384 -1.4961693 11.11916 100 100 155
2.3331552 -1.8079836 13.487359 100 100 155
0.123855904 -1.5247732 11.527641 100 100 155
-0.9724696 -1.4028058 10.697583 100 100 155
1.6320207 -1.7154071 13.256163 100 100 155
2.3919377 -1.7359012 13.553689 100 100 155
-0.9894755 -1.3259022 10.604702 100 100 155
2.3371816 -1.6613301 13.399707 100 100 155
2.312095 -1.5269406 13.386026 100 100 155
2.3848464 -1.5269868 13.455081 100 100 155
2.3327525 -1.4821997 13.449763 100 100 155
2.3901122 -1.3764958 13.378531 100 100 155
-1.4806678 -0.95694953 9.67696 100 100 155
-0.014682677 -0.9681749 9.64507 100 100 155
-2.6281412 -0.5761991 6.062455 100 100 155
-0.97030574 -0.9556301 10.020659 100 100 155
0.22784953 -0.9519474 10.482649 100 100 155
-2.6363552 -0.52748585 5.9322567 100 100 155
0.34804872 -0.9528628 11.081015 100 100 155
-1.0447065 -0.7277184 9.280445 100 100 155
1.6634808 -0.941909 12.162686 100 100 155
3.358619 -0.7541185 10.982936 100 100 155
0.78686386 -0.69720805 10.70921 100 100 155
-2.0392385 -0.35251856 6.3882074 100 100 155
-1.8644286 -0.34588844 6.4845905 100 100 155
-1.9333298 -0.4164086 8.44986 100 100 155
-2.5691397 -0.26577038 5.9312487 100 100 155
2.957372 -0.49486613 10.5328665 100 100 155
0.26752216 -0.43645394 9.870406 100 100 155
-1.8468002 -0.2596064 6.4731073 100 100 155
-1.8621287 -0.2534673 6.4654927 100 100 155
-2.0144866 -0.23523529 6.308365 100 100 155
4.2881393 -0.46235 11.698835 100 100 155
-2.5579531 -0.21275024 5.89762 100 100 155
0.30991024 -0.36760542 9.795746 100 100 155
-1.873333 -0.23378894 6.473915 100 100 155
4.403603 -0.4495241 11.749367 100 100 155
-2.338255 -0.2124169 6.06559 100 100 155
0.10781756 -0.32705706 9.511168 100 100 155
-0.54377306 -0.2768033 8.921354 100 100 155
-1.4642863 -0.2612953 8.59195 100 100 155
-0.48448032 -0.27463028 8.900958 100 100 155
0.9500978 -0.32967085 10.736741 100 100 155
4.4988575 -0.37238735 11.702498 100 100 155
4.510799 -0.34385148 11.70187 100 100 155
1.2159851 -0.29824635 10.964962 100 100 155
1.1962084 -0.2769638 10.9576845 100 100 155
4.3905897 -0.2990089 11.595159 100 100 155
-2.0159771 -0.14558448 6.295156 100 100 155
1.9582973 -0.2698306 11.582371 100 100 155
-1.9231981 -0.13599697 6.3619995 100 100 155
2.8961294 -0.24519104 10.387107 100 100 155
-2.454338 -0.11319957 5.8854656 100 100 155
-1.852157 -0.124675475 6.397924 100 100 155
-2.1911333 -0.1117128 6.209073 100 100 155
-1.9038426 -0.11626672 6.3564296 100 100 155
-0.63455796 -0.14868557 8.961083 100 100 155
0.82123077 -0.17570885 10.495425 100 100 155
3.3201828 -0.18567216 10.775759 100 100 155
-2.0097466 -0.095056824 6.2772446 100 100 155
0.9976055 -0.16777179 10.642375 100 100 155
4.3857574 -0.1954889 11.69948 100 100 155
-1.452491 -0.112958685 8.706415 100 100 155
-1.3380911 -0.118051976 8.781184 100 100 155
1.3504649 -0.15100075 10.918438 100 100 155
1.6030445 -0.14478083 11.133869 100 100 155
4.407889 -0.1421025 11.651111 100 100 155
-2.0046644 -0.03341182 6.2433043 100 100 155
2.897247 -0.0667213 10.336985 100 100 155
-1.9991636 -0.015183079 6.240576 100 100 155
-1.8533541 -0.014388247 6.382239 100 100 155
1.0115167 0.019668998 10.62521 100 100 155
-1.83545 0.045439422 6.3451457 100 100 155
4.3728266 0.07032875 11.598222 100 100 155
4.219817 0.12265642 11.452852 100 100 155
4.376933 0.14708559 11.59784 100 100 155
-1.8415323 0.09726576 6.3381467 100 100 155
-1.9851607 0.12432762 6.1873956 100 100 155
1.3325331 0.1984932 10.910391 100 100 155
-1.8394493 0.13604556 6.324353 100 100 155
4.3850713 0.22789423 11.597539 100 100 155
3.747535 0.24555391 11.194067 100 100 155
3.0502234 0.24580994 10.42979 100 100 155
3.9196477 0.2703475 11.168954 100 100 155
-0.102643594 0.23969334 9.343283 100 100 155
2.2412376 0.29453018 11.777639 100 100 155
1.0600986 0.2810985 10.656664 100 100 155
4.0488915 0.29852113 11.260332 100 100 155
3.9234884 0.30153745 11.16862 100 100 155
-1.9889915 0.18375866 6.1751585 100 100 155
3.0535638 0.28598878 10.428328 100 100 155
-1.2043127 0.27745038 8.731504 100 100 155
-1.9770907 0.19972558 6.1516366 100 100 155
-1.8325845 0.2086328 6.295801 100 100 155
-2.3082943 0.21166334 5.8946085 100 100 155
3.0209787 0.3517216 10.3764715 100 100 155
-1.8305576 0.2380888 6.2892942 100 100 155
-1.746214 0.23608093 6.2431827 100 100 155
-1.9646164 0.23519385 6.1668487 100 100 155
-1.8390946 0.24366166 6.259624 100 100 155
-1.7742509 0.2503203 6.258446 100 100 155
-1.2007796 0.39892617 8.69134 100 100 155
2.5320983 0.5932492 11.843132 100 100 155
2.9841936 0.5659199 10.211373 100 100 155
-1.3113955 0.49279952 8.596652 100 100 155
-1.8068174 0.4773101 8.187674 100 100 155
-1.3014162 0.5146208 8.551835 100 100 155
-1.7782117 0.51317406 8.173824 100 100 155
2.9714084 0.62222934 10.166304 100 100 155
-1.2807013 0.55427647 8.572216 100 100 155
-1.2144108 0.5592458 8.624611 100 100 155
-1.9728218 0.42255485 6.111923 100 100 155
-1.81127 0.4363626 6.228673 100 100 155
-0.42151764 0.6197052 8.620055 100 100 155
1.7657846 0.7973773 11.139085 100 100 155
-2.2686715 0.4526785 5.8297906 100 100 155
-1.9590763 0.4782447 6.0704527 100 100 155
-2.49857 0.47426757 5.6780705 100 100 155
3.4274712 0.8873941 10.556537 100 100 155
-1.8029974 0.5832522 6.174521 100 100 155
-0.06130707 0.86982524 9.009498 100 100 155
0.019363338 0.87843364 9.08267 100 100 155
0.2202192 0.89468926 9.251471 100 100 155
-1.27875 0.8369963 8.434719 100 100 155
-1.9566326 0.6231836 6.0463896 100 100 155
-1.8627245 0.629311 6.1068535 100 100 155
-2.2608879 0.60960746 5.7870555 100 100 155
3.4961739 1.1296837 10.6416 100 100 155
-2.1855989 0.65285766 5.890549 100 100 155
-2.1365736 0.65804523 5.928835 100 100 155
-2.1127994 0.6644189 5.9769735 100 100 155
-1.796011 0.69302416 6.1385913 100 100 155
1.6072855 1.2562054 10.883269 100 100 155
-2.1216695 0.7086106 5.888365 100 100 155
-2.3789988 0.6929686 5.6160026 100 100 155
-2.2496555 0.7133848 5.749717 100 100 155
-2.3747966 0.728344 5.6019716 100 100 155
3.0662649 1.4834989 10.205197 100 100 155
-2.0351417 0.88382024 5.9217553 100 100 155
-2.6944916 1.5984616 10.47262 100 100 155
-1.9344296 0.94552237 5.9510636 100 100 155
-1.7786723 0.98353964 6.0693536 100 100 155
-0.09308306 1.452513 9.015289 100 100 155
-1.9277287 1.0533103 5.9312673 100 100 155
2.275009 2.0344965 11.465148 100 100 155
-2.2436123 1.0335915 5.7017674 100 100 155
-1.916643 1.0700852 5.909833 100 100 155
4.944729 6.5766144 36.86686 100 100 155
-2.1617599 1.0599979 5.793071 100 100 155
2.519338 2.0777524 11.555022 100 100 155
-2.081632 1.0715181 5.8593025 100 100 155
-2.0226045 1.0740949 5.875241 100 100 155
-2.234483 1.051581 5.63469 100 100 155
-1.9150403 1.1109834 5.9558167 100 100 155
-1.781159 1.1200337 6.008816 100 100 155
-2.1421943 1.2719969 5.7197475 100 100 155
-0.5559204 -2.8149424 12.065197 100 100 155
-0.57220083 -2.7524247 11.972746 100 100 155
-0.54911935 -2.7748847 12.114753 100 100 155
-2.5355241 -1.6646745 7.495849 100 100 155
-0.6035042 -2.6161764 11.784812 100 100 155
-0.5337558 -2.4912882 11.794973 100 100 155
-0.6797315 -2.426692 11.724064 100 100 155
-0.5483574 -2.4402966 11.767109 100 100 155
-0.63264763 -2.4324868 11.755527 100 100 155
-0.46887487 -2.4522922 11.937455 100 100 155
-0.60918576 -2.1293426 11.641505 100 100 155
-1.7607188 -1.8052028 10.698159 100 100 155
-2.439245 -1.7370633 10.331741 100 100 155
-1.9074292 -1.757505 10.5327015 100 100 155
-1.5337502 -1.7997215 10.979282 100 100 155
3.3522708 -1.9518622 12.155251 100 100 155
-0.14311044 -1.7796112 11.416343 100 100 155
-0.9546375 -1.6559335 10.854926 100 100 155
-1.0344244 -1.5811323 10.753879 100 100 155
-0.94318384 -1.5795276 10.774124 100 100 155
0.54418695 -1.8328291 12.537052 100 100 155
0.61533225 -1.8320322 12.58194 100 100 155
2.4500906 -1.9871782 13.598399 100 100 155
1.5518602 -1.9557381 13.483668 100 100 155
0.871946 -1.8446144 12.846562 100 100 155
1.2326391 -1.8691176 13.009019 100 100 155
0.9685512 -1.8441255 12.896762 100 100 155
-0.9971182 -1.5048292 10.638949 100 100 155
1.5330815 -1.902067 13.399367 100 100 155
-0.94995797 -1.5219299 10.813247 100 100 155
1.6396464 -1.9048162 13.441728 100 100 155
1.2062086 -1.8443288 13.059967 100 100 155
-2.6180804 -0.91267246 6.54149 100 100 155
-0.97538024 -1.4950202 10.723033 100 100 155
3.5033557 -1.6744721 12.094705 100 100 155
-1.0329318 -1.4595813 10.784476 100 100 155
-1.0142193 -1.3895853 10.711408 100 100 155
1.6330581 -1.7098804 13.267449 100 100 155
2.3848464 -1.5269868 13.455081 100 100 155
-0.12532318 -1.0187793 9.668231 100 100 155
-1.4750507 -0.95756257 9.684044 100 100 155
-1.4365356 -0.9529026 9.672552 100 100 155
-2.629604 -0.57829195 6.0608134 100 100 155
-2.6376293 -0.55340886 5.971944 100 100 155
-1.0410392 -0.723594 9.244651 100 100 155
-1.515253 -0.6153909 8.928683 100 100 155
1.7671572 -0.8317825 12.178618 100 100 155
-1.408171 -0.57496566 8.89756 100 100 155
0.78704166 -0.69821376 10.662644 100 100 155
-2.5007267 -0.36390024 6.009684 100 100 155
1.4443666 -0.69035286 11.232281 100 100 155
-2.03608 -0.35350928 6.386001 100 100 155
-1.866618 -0.35058832 6.4840803 100 100 155
-0.35283178 -0.47492012 9.282985 100 100 155
0.17957759 -0.47081968 9.727287 100 100 155
-0.591381 -0.4001805 9.075719 100 100 155
-2.4769874 -0.24976131 5.9464574 100 100 155
-2.0287173 -0.2594054 6.344811 100 100 155
0.13682814 -0.3754938 9.707469 100 100 155
4.2818985 -0.46869996 11.704494 100 100 155
-2.0151436 -0.23280989 6.3037295 100 100 155
4.403603 -0.4495241 11.749367 100 100 155
0.10501239 -0.32819235 9.550966 100 100 155
-0.52031726 -0.29155573 8.94276 100 100 155
-0.46485817 -0.28817022 9.000267 100 100 155
-0.49400574 -0.27464283 8.968221 100 100 155
-0.15550752 -0.2640062 9.235064 100 100 155
-2.3285239 -0.15882227 6.0420437 100 100 155
-2.4319642 -0.13707161 5.980035 100 100 155
1.6764381 -0.284478 11.375033 100 100 155
-2.01643 -0.14790055 6.296437 100 100 155
-2.3360462 -0.13578631 6.0514812 100 100 155
2.8999171 -0.24519673 10.387862 100 100 155
-1.8518943 -0.1213096 6.404148 100 100 155
3.0403247 -0.2027154 10.488794 100 100 155
3.209398 -0.19586125 10.679057 100 100 155
-2.011277 -0.09733499 6.2751193 100 100 155
-0.62524414 -0.14340034 8.91968 100 100 155
4.381755 -0.19549808 11.699547 100 100 155
-1.8593396 -0.09358116 6.4225845 100 100 155
-1.452491 -0.112958685 8.706415 100 100 155
1.3504069 -0.14715274 10.917763 100 100 155
2.894619 -0.14685246 10.379935 100 100 155
-1.8383389 -0.06534099 6.35899 100 100 155
4.3959575 -0.10562368 11.651041 100 100 155
2.8637526 -0.08766038 10.56859 100 100 155
4.376008 -0.08132259 11.651088 100 100 155
-2.4568527 -0.009795132 5.8705096 100 100 155
-1.9998147 -0.012930992 6.2360044 100 100 155
-1.8428689 -0.012168786 6.3612776 100 100 155
-2.3165953 -0.003584159 5.9885135 100 100 155
4.3784585 -0.006262318 11.645689 100 100 155
-1.9976867 0.013073329 6.2234554 100 100 155
1.8732296 0.0158277 11.468051 100 100 155
-1.3315241 0.024447087 8.7274 100 100 155
4.238388 0.017146407 11.504766 100 100 155
-1.8363376 0.047687896 6.3407707 100 100 155
4.3688364 0.07032378 11.598225 100 100 155
3.3104033 0.077099755 10.68076 100 100 155
-1.8316455 0.0879692 8.325464 100 100 155
-1.8245783 0.06886091 6.368412 100 100 155
-2.311864 0.07715548 5.9686155 100 100 155
4.219818 0.11866493 11.452892 100 100 155
3.3346543 0.12262062 10.722601 100 100 155
-1.2138389 0.11734985 8.770746 100 100 155
-1.9885359 0.09513672 6.190829 100 100 155
-1.8396422 0.10191768 6.3394012 100 100 155
3.91993 0.15808557 11.214899 100 100 155
4.2331924 0.16863163 11.457163 100 100 155
4.2371664 0.19259551 11.457023 100 100 155
3.0156097 0.19262975 10.422021 100 100 155
5.1134386 0.21475163 11.80551 100 100 155
4.381073 0.2278907 11.597519 100 100 155
3.0463722 0.20836101 10.392777 100 100 155
-1.8988721 0.15299594 6.24061 100 100 155
-1.824994 0.15829743 6.2980995 100 100 155
4.2729883 0.26452094 11.457274 100 100 155
-1.8218454 0.16580994 6.3551555 100 100 155
-2.289505 0.15826917 5.912763 100 100 155
3.0498335 0.27866322 10.427955 100 100 155
-2.2954257 0.18236792 5.918568 100 100 155
-1.7083244 0.26852345 8.317277 100 100 155
-1.8319314 0.212207 6.3007183 100 100 155
-2.426739 0.20026882 5.8233314 100 100 155
-2.3093417 0.20938997 5.892005 100 100 155
3.0143447 0.34267598 10.378934 100 100 155
4.3934283 0.38145426 11.59719 100 100 155
-1.9651712 0.23208429 6.1747193 100 100 155
-1.8329638 0.2401289 6.2312865 100 100 155
1.733453 0.42619967 11.214126 100 100 155
4.383913 0.45626384 11.550471 100 100 155
2.854849 0.53174734 10.405665 100 100 155
-1.1985829 0.46342486 8.677658 100 100 155
1.0644348 0.5679496 10.577648 100 100 155
3.3392432 0.5713896 10.625711 100 100 155
-1.3115716 0.48977488 8.597631 100 100 155
2.942253 0.60950375 10.162927 100 100 155
-1.7765238 0.5105603 8.178886 100 100 155
-1.2784594 0.55150795 8.576803 100 100 155
-1.2170275 0.55597466 8.621935 100 100 155
-2.4233673 0.38202712 5.734113 100 100 155
3.0213401 0.65470684 10.252736 100 100 155
-1.7933418 0.420185 6.2405715 100 100 155
-1.9643707 0.41990393 6.0919204 100 100 155
1.2103072 0.71765274 10.636853 100 100 155
-1.8051761 0.43199408 6.2002664 100 100 155
1.7253301 0.76163757 11.077232 100 100 155
1.1764876 0.7457001 10.660644 100 100 155
-0.42637908 0.6239533 8.65688 100 100 155
-1.9590763 0.4782447 6.0704527 100 100 155
-2.262226 0.5059935 5.8040714 100 100 155
2.8833127 0.88926166 10.136007 100 100 155
2.1735938 1.0471065 11.384458 100 100 155
-0.061284687 0.8729814 9.00892 100 100 155
0.022494558 0.87869734 9.085405 100 100 155
0.2202245 0.897928 9.250921 100 100 155
-1.2849358 0.83807236 8.475414 100 100 155
-1.1799204 0.8486996 8.538191 100 100 155
1.8490547 1.0955272 11.10306 100 100 155
1.2069998 1.0812051 10.593478 100 100 155
-1.9451321 0.64119476 6.017796 100 100 155
-1.7963419 0.65883327 6.1535726 100 100 155
3.5000455 1.1334724 10.642208 100 100 155
-2.2474446 0.6339191 5.7580986 100 100 155
-2.195103 0.6530215 5.921547 100 100 155
1.8895228 1.224826 11.159114 100 100 155
-1.7950718 0.69122595 6.1425576 100 100 155
2.45304 1.3046145 11.666836 100 100 155
3.0562098 1.1490233 10.245508 100 100 155
-2.238656 0.67064464 5.7820153 100 100 155
1.6106167 1.2618097 10.93126 100 100 155
-2.1794698 0.7093082 5.874902 100 100 155
3.0672293 1.2211055 10.246174 100 100 155
-2.3790293 0.69448984 5.611541 100 100 155
3.2679186 1.2686933 10.402466 100 100 155
1.8872039 1.3683786 11.096166 100 100 155
-1.9354806 0.7756353 5.9774246 100 100 155
3.0544941 1.4742217 10.166061 100 100 155
-1.9278709 0.8819376 5.94914 100 100 155
-1.8456877 0.91885245 6.021745 100 100 155
-2.1633756 0.89577997 5.8123426 100 100 155
-2.3802543 0.883206 5.589112 100 100 155
-2.2304313 0.9252875 5.6876297 100 100 155
-1.7774839 0.9862566 6.072435 100 100 155
1.740502 1.7937441 10.862176 100 100 155
-2.1661603 0.9956447 5.8150024 100 100 155
-2.232434 1.0324712 5.678533 100 100 155
-1.9270618 1.0747392 5.9291286 100 100 155
1.4310338 1.9149196 10.695437 100 100 155
-2.1053822 1.0581303 5.808037 100 100 155
-2.170638 1.0609993 5.8222647 100 100 155
-2.0898871 1.0745991 5.8882604 100 100 155
-2.245084 1.0547354 5.65162 100 100 155
-1.7822814 1.1172509 6.0056396 100 100 155
-1.9141717 1.1094645 5.959505 100 100 155
-1.9981437 1.2855535 5.7811403 100 100 155
-2.1410046 1.2756921 5.7270656 100 100 155
1.1577163 2.1990476 9.6070595 100 100 155
-0.45510107 -2.658416 12.080635 100 100 155
-0.64873993 -2.5385864 11.728062 100 100 155
-0.46166164 -2.5843537 12.050143 100 100 155
-0.47059873 -2.4219584 11.931438 100 100 155
-0.3726521 -2.1688883 11.939994 100 100 155
-2.0218532 -1.8060597 10.539435 100 100 155
-1.7980335 -1.7758392 10.702684 100 100 155
0.16167998 -1.9127084 11.812259 100 100 155
0.07653653 -1.9167643 11.970842 100 100 155
-0.14395696 -1.8052355 11.4805 100 100 155
0.22601719 -1.8211596 11.812233 100 100 155
-0.08776831 -1.7124175 11.341584 100 100 155
0.22427002 -1.7904974 12.096028 100 100 155
2.4567149 -1.9865922 13.611219 100 100 155
0.8666192 -1.8264185 12.762577 100 100 155
1.5202467 -1.906557 13.329045 100 100 155
1.6399951 -1.9240991 13.445575 100 100 155
0.973088 -1.8396708 12.897394 100 100 155
1.6195022 -1.8512671 13.425889 100 100 155
-1.0174006 -1.4573336 10.782937 100 100 155
-0.9541998 -1.4529822 10.736095 100 100 155
1.6176227 -1.7055055 13.2501955 100 100 155
2.3058767 -1.5327237 13.374861 100 100 155
-2.145947 -0.7357573 6.539395 100 100 155
-2.6164436 -0.5812314 6.030686 100 100 155
-2.6231174 -0.5475034 5.953207 100 100 155
-1.7003815 -0.7166815 8.736294 100 100 155
-1.774198 -0.65890795 8.847891 100 100 155
0.7872659 -0.7713512 10.718818 100 100 155
-2.0404072 -0.40717638 6.3889575 100 100 155
-1.8770945 -0.40496027 6.5347047 100 100 155
-2.0372343 -0.36013868 6.4023294 100 100 155
0.4450403 -0.47852695 10.052891 100 100 155
2.98051 -0.5097589 10.537965 100 100 155
-0.5828522 -0.41030556 9.087609 100 100 155
-2.4750586 -0.23828837 5.9276314 100 100 155
4.264143 -0.48279765 11.699513 100 100 155
4.407597 -0.45768327 11.749306 100 100 155
-0.57853687 -0.2966085 8.888257 100 100 155
-0.4650302 -0.2946341 9.0023155 100 100 155
0.93099374 -0.35606906 10.732042 100 100 155
1.2688423 -0.32799903 11.001175 100 100 155
-2.329617 -0.12567657 6.0468044 100 100 155
-2.5454304 -0.106566325 5.8674836 100 100 155
3.3087296 -0.20075609 10.774927 100 100 155
2.902201 -0.1468528 10.381488 100 100 155
4.424088 -0.1607178 11.693455 100 100 155
4.3823557 -0.099516526 11.646238 100 100 155
3.3360605 -0.012420941 10.728992 100 100 155
3.9087148 0.013274035 11.217511 100 100 155
-1.617739 0.047839656 8.464724 100 100 155
-1.9993712 0.045093086 6.237127 100 100 155
4.3624005 0.06831454 11.602906 100 100 155
-1.1048204 0.07508969 8.886969 100 100 155
0.05422169 0.08489666 9.4292555 100 100 155
-1.8222611 0.12850888 8.259035 100 100 155
4.228127 0.17973052 11.411506 100 100 155
1.3382077 0.20514823 10.864747 100 100 155
3.0660489 0.19842173 10.435514 100 100 155
-1.9029447 0.14819543 6.232575 100 100 155
5.0849795 0.25371227 11.80472 100 100 155
3.5294633 0.24971434 10.912998 100 100 155
3.0495596 0.2669396 10.463499 100 100 155
-2.426542 0.19653362 5.837191 100 100 155
-1.9783481 0.21036014 6.136289 100 100 155
-1.1983967 0.29315436 8.733319 100 100 155
-2.3001695 0.20268264 5.85838 100 100 155
-1.8282926 0.22152011 6.303575 100 100 155
3.0020773 0.34067264 10.373013 100 100 155
-1.9618547 0.22692214 6.184567 100 100 155
-1.8373812 0.23299456 6.2241116 100 100 155
1.866466 0.41859517 11.318911 100 100 155
-1.8600619 0.2707106 6.2295613 100 100 155
1.7248281 0.48303425 11.207321 100 100 155
-1.3076485 0.4750711 8.609899 100 100 155
1.2171191 0.5881849 10.7019 100 100 155
3.275908 0.5870366 10.574455 100 100 155
3.0863695 0.62923545 10.305368 100 100 155
-2.4125364 0.37517586 5.726946 100 100 155
-2.2578049 0.38674363 5.8054743 100 100 155
-1.9711832 0.4171662 6.1322722 100 100 155
-1.8169229 0.4265159 6.2183285 100 100 155
0.1207764 0.63288325 9.29269 100 100 155
1.1117823 0.7254797 10.5348425 100 100 155
1.7824678 0.782326 11.148039 100 100 155
1.8366941 0.78960145 11.222359 100 100 155
1.3451442 0.8029239 10.747005 100 100 155
-1.8014247 0.49726447 6.167745 100 100 155
2.4765074 1.0995518 11.686228 100 100 155
-1.2827767 0.91259974 8.406616 100 100 155
-1.7784219 0.84308296 6.07406 100 100 155
-1.7799444 0.8927606 6.1012077 100 100 155
-2.0475218 0.87361723 5.934039 100 100 155
-2.2353058 0.871933 5.694744 100 100 155
1.2307372 1.5975046 10.469065 100 100 155
-2.0988672 0.9263765 5.935185 100 100 155
-2.0355496 0.9206194 5.8996296 100 100 155
-2.0407355 0.96754086 5.90951 100 100 155
-2.1632009 1.0066317 5.823372 100 100 155
-2.0296478 1.0163759 5.8773813 100 100 155
-2.1689367 1.0587705 5.83388 100 100 155
0.25420445 1.665591 9.224237 100 100 155
-2.2360163 1.0433853 5.6239634 100 100 155
-1.7935375 1.1149158 6.0223765 100 100 155
1.5784649 2.231725 10.667355 100 100 155
-1.5170176 1.6984193 7.982591 100 100 155
-1.3671076 1.7637581 8.103128 100 100 155
-1.0349749 1.8591938 8.535936 100 100 155
-1.511882 1.75739 8.029341 100 100 155
-2.0088544 1.2928482 5.794747 100 100 155
-2.6114383 -1.7219107 7.5016403 100 100 155
-0.55934817 -2.7381022 12.052435 100 100 155
-0.42936483 -2.5020041 11.978145 100 100 155
-0.6815858 -2.4243217 11.629367 100 100 155
-0.98150516 -1.794722 10.809844 100 100 155
-0.89850044 -1.8024019 10.92344 100 100 155
-0.0057451245 -1.8711091 11.971014 100 100 155
0.22854733 -1.8522403 11.938877 100 100 155
-1.0480222 -1.6164712 10.815397 100 100 155
0.17666183 -1.3340797 11.291193 100 100 155
3.744628 -1.2839546 11.929412 100 100 155
2.2897673 -1.4079617 13.408832 100 100 155
3.0040197 -0.5264254 10.582572 100 100 155
-0.57685286 -0.42208174 9.140691 100 100 155
0.9208983 -0.48100132 10.834627 100 100 155
1.2810539 -0.47808483 11.082552 100 100 155
0.9273242 -0.37504408 10.734004 100 100 155
1.2833717 -0.3314903 11.062959 100 100 155
2.738771 -0.32374078 10.595702 100 100 155
4.4359436 -0.23800898 11.693564 100 100 155
-2.0118263 -0.05274674 6.285573 100 100 155
3.0693123 -0.09245997 10.487345 100 100 155
0.51028067 0.031255387 9.774232 100 100 155
4.083042 0.16075623 11.357144 100 100 155
-2.4649413 0.110461116 6.083222 100 100 155
3.0705187 0.19199158 10.475325 100 100 155
-2.4518106 0.13586809 5.848101 100 100 155
-1.987151 0.16303644 6.195469 100 100 155
3.6652122 0.27049607 10.970604 100 100 155
-0.022268819 0.2733716 9.40779 100 100 155
-2.4263244 0.19278015 5.851069 100 100 155
2.4560087 0.45584345 11.833058 100 100 155
-1.8561077 0.27655256 6.2313447 100 100 155
3.1118793 0.56363726 10.3919735 100 100 155
3.506214 0.639433 10.73374 100 100 155
-2.4239695 0.37135187 5.763347 100 100 155
-2.2584054 0.38122705 5.8019433 100 100 155
0.059707515 0.6325823 9.241233 100 100 155
2.5060108 1.0046663 11.750451 100 100 155
3.5432248 1.1502749 10.72853 100 100 155
3.5477548 1.2125559 10.730848 100 100 155
2.4695303 1.3784384 11.667593 100 100 155
3.1987045 1.2281579 10.352857 100 100 155
-2.294396 0.73701864 5.655686 100 100 155
-2.3985229 0.817622 5.626919 100 100 155
0.7442902 1.5263462 10.12117 100 100 155
-1.7825795 0.94554156 6.0682387 100 100 155
-2.1673002 1.0544155 5.8457437 100 100 155
-2.2379193 1.0365858 5.6093583 100 100 155
-1.4947017 1.5318547 7.4588385 100 100 155
-1.5201534 1.7021931 8.028207 100 100 155
0.7682105 2.123667 9.956815 100 100 155
-1.372865 1.7678698 8.088411 100 100 155
-1.9760981 1.6879429 7.6549854 100 100 155
-2.1380477 1.288158 5.74546 100 100 155
-0.52110624 -2.4417965 11.9029455 100 100 155
-0.5319648 -2.2508872 11.604403 100 100 155
-2.4390774 -1.6747946 10.212933 100 100 155
-1.8041354 -1.7424196 10.694352 100 100 155
-2.5733323 -1.0835425 6.76264 100 100 155
2.3789694 -2.039376 13.596029 100 100 155
1.0395321 -1.7409827 12.782949 100 100 155
1.4028287 -1.7468388 13.12808 100 100 155
-0.9857938 -1.4085563 10.759007 100 100 155
1.6318322 -1.6097314 13.104481 100 100 155
0.78355086 -0.72414994 10.566972 100 100 155
-2.026857 -0.388137 6.4730134 100 100 155
-1.900665 -0.38172668 6.4689803 100 100 155
3.804636 -0.55330575 11.283273 100 100 155
4.4014187 -0.48859528 11.755324 100 100 155
0.92456853 -0.4091831 10.793481 100 100 155
1.28727 -0.35673264 11.063107 100 100 155
1.5995964 -0.35472122 11.306287 100 100 155
4.4454875 -0.35816908 11.699159 100 100 155
3.7104442 0.10364278 11.107831 100 100 155
-1.971937 0.16074437 6.1944985 100 100 155
-1.8660578 0.21281533 6.2614107 100 100 155
3.0912664 0.53177106 10.276377 100 100 155
3.3839993 0.62459207 10.674502 100 100 155
3.502138 0.6120762 10.654267 100 100 155
1.1408178 0.6874185 10.605978 100 100 155
-1.9481075 0.61169976 6.084607 100 100 155
-1.873661 0.6613329 6.1022234 100 100 155
3.5056722 1.1664404 10.603522 100 100 155
-2.1495976 0.7349835 5.865458 100 100 155
-2.0747583 0.7485469 5.9577146 100 100 155
-2.14268 0.93200415 5.8324537 100 100 155
-2.0694628 0.94784665 5.927202 100 100 155
-2.146991 1.0396028 5.828184 100 100 155
-2.2599106 1.0318716 5.6402407 100 100 155
-1.8974277 1.0918069 5.9714227 100 100 155
1.1127208 2.170953 9.504744 100 100 155
-2.155837 1.324119 5.6532283 100 100 155
-0.5648525 -2.6473486 12.093757 100 100 155
-0.7208467 -2.2418911 11.760762 100 100 155
-1.0995091 -1.8243135 10.7026415 100 100 155
-2.4976137 -1.6608924 10.299506 100 100 155
0.2837607 -1.8817413 11.872614 100 100 155
-1.3473716 -1.6838903 10.885128 100 100 155
1.037644 -1.7147155 12.700518 100 100 155
2.5794218 -1.8541161 13.839137 100 100 155
2.2475798 -1.5380553 13.441861 100 100 155
3.71589 -1.296591 11.9297495 100 100 155
3.023683 -0.5599495 10.588181 100 100 155
3.5478477 0.59818035 10.704368 100 100 155
-2.2721608 0.35041472 5.7548604 100 100 155
-1.9547604 0.38704592 6.2198606 100 100 155
-2.031247 1.0445467 5.8309674 100 100 155
-1.9915249 1.4852992 5.901898 100 100 155
-0.7696737 -2.3076782 11.992873 100 100 155
0.3648341 -1.6213695 11.894204 100 100 155
3.2681751 -1.0635711 11.116608 100 100 155
3.0970342 -0.59939134 10.677174 100 100 155
0.26748616 -0.5014964 9.881018 100 100 155
-1.2203006 -1.9079561 10.72279 100 100 155
0.39247656 -1.9872137 12.08524 100 100 155
