ply
format ascii 1.0
element vertex 126
property float x
property float y
property float z
property int red
property int blue
property int green
end_header
-2.5143692 0.23113085 6.047777 255 0 0
-2.3689203 1.1624935 5.8334227 255 0 0
-2.3810883 0.6072338 5.952835 255 0 0
-2.4274292 0.102249086 6.094521 255 0 0
-2.3504555 0.8865208 5.914879 255 0 0
-2.3501804 0.7835562 5.933545 255 0 0
-2.3597558 0.6811606 5.961745 255 0 0
-2.380881 0.18191928 6.0838094 255 0 0
-2.391454 -0.33776295 6.1929984 255 0 0
-2.3722446 -0.2331061 6.182866 255 0 0
-2.254286 0.2806738 6.065329 255 0 0
-2.3144407 -0.8520737 6.3342776 255 0 0
-2.364435 -1.7870932 7.0082307 255 0 0
-2.0349948 0.10561424 6.196649 255 0 0
-2.0384512 -0.55384964 6.374723 255 0 0
-2.0101352 -0.25362742 6.2954636 255 0 0
-1.975271 0.20447955 6.197415 255 0 0
-1.9065564 1.075148 5.99897 255 0 0
-1.9783088 0.093308635 6.226279 255 0 0
-1.9765165 -0.05683545 6.2527814 255 0 0
-1.903812 0.11854308 6.242107 255 0 0
-1.903812 0.11854308 6.242107 255 0 0
-1.8283325 0.8264968 6.0924377 255 0 0
-1.8553644 0.25878677 6.2111063 255 0 0
-1.7970009 1.0905116 6.026023 255 0 0
-1.807835 0.8123068 6.100749 255 0 0
-1.8071775 0.412997 6.1793637 255 0 0
-2.2980676 -1.425741 8.019761 255 0 0
-2.0107663 -1.2747339 8.272287 255 0 0
-1.9547312 -1.4758646 8.42098 255 0 0
-1.7373109 -0.6404513 7.525195 255 0 0
-1.5849179 0.62418777 7.2576113 255 0 0
-1.6138449 -0.09990454 7.392389 255 0 0
-1.1351984 0.4020473 7.4826784 255 0 0
-1.1401367 -0.077683166 7.5585217 255 0 0
-1.0782866 0.6169748 7.4302793 255 0 0
-1.0979285 0.07980561 7.556417 255 0 0
-1.0911348 0.29918888 7.513594 255 0 0
-1.0420961 0.6527631 7.4469523 255 0 0
-1.0109818 0.78995687 7.3905816 255 0 0
-0.9984594 0.84611976 7.4120355 255 0 0
-1.067928 -1.3557172 8.669286 255 0 0
-0.7833292 -1.0480837 8.437892 255 0 0
-0.76622164 -1.0765425 8.506719 255 0 0
-0.3895405 -0.24580048 7.578275 255 0 0
-0.40648475 -1.3454851 8.643139 255 0 0
-0.41334996 -1.5762208 8.991033 255 0 0
-0.41334996 -1.5762208 8.991033 255 0 0
-0.29193133 -0.23935826 7.6183977 255 0 0
-0.2848652 -0.10599406 7.646127 255 0 0
-0.2226236 -0.4573783 7.747939 255 0 0
-0.21057612 0.0509922 7.631103 255 0 0
-0.17480117 -1.2967315 8.662191 255 0 0
-0.17480117 -1.2967315 8.662191 255 0 0
-0.11704799 0.091691144 7.705714 255 0 0
-0.06124382 0.17451443 7.7134857 255 0 0
-0.06124382 0.17451443 7.7134857 255 0 0
-0.003989394 -0.7183262 7.853603 255 0 0
0.10447828 -1.1614078 8.804834 255 0 0
0.11086016 -1.4516585 8.84338 255 0 0
0.15313436 -0.34971666 7.8538423 255 0 0
0.15313436 -0.34971666 7.8538423 255 0 0
0.16701126 0.7025985 7.5692506 255 0 0
0.34945342 -0.052400485 7.8230667 255 0 0
0.35352865 -0.12493777 7.854039 255 0 0
0.35755232 -0.3376894 7.949954 255 0 0
0.4106698 -1.2693622 9.1356 255 0 0
0.6615643 -0.49964696 8.262935 255 0 0
0.7743048 0.12969774 8.1841545 255 0 0
0.8198858 0.8807134 8.047714 255 0 0
0.86517864 0.17091973 8.219546 255 0 0
0.86517864 0.17091973 8.219546 255 0 0
0.8512744 0.8144382 8.084209 255 0 0
0.87664825 0.51287246 8.140666 255 0 0
0.89013016 0.5982457 8.109025 255 0 0
1.103463 -1.4114538 9.37954 255 0 0
1.1682054 0.12755485 8.323194 255 0 0
1.328725 -0.010994464 8.415766 255 0 0
1.3755456 0.014211125 8.435157 255 0 0
1.3557037 1.4177575 8.1563835 255 0 0
1.3744401 0.80686605 8.253914 255 0 0
1.7564636 0.7459742 8.425183 255 0 0
1.7730054 1.6004937 8.271916 255 0 0
2.024802 -1.3742453 9.428221 255 0 0
2.0597794 -1.373575 9.485033 255 0 0
2.3863804 -1.3094559 8.486401 255 0 0
2.4094932 -1.2683074 8.455276 255 0 0
2.225001 -0.011448468 7.68174 255 0 0
2.2404625 -0.11046737 7.679676 255 0 0
2.2445018 -0.30149373 7.6664658 255 0 0
2.2543218 0.67782575 7.5508394 255 0 0
2.2543218 0.67782575 7.5508394 255 0 0
2.248327 1.1700208 7.4972544 255 0 0
2.248327 1.1700208 7.4972544 255 0 0
2.3109162 0.047494166 7.7037234 255 0 0
2.2515776 1.273833 7.490332 255 0 0
2.310235 0.8253248 7.5985627 255 0 0
2.336256 0.8504101 7.5887775 255 0 0
2.3527024 0.79579437 7.592291 255 0 0
2.4089167 -0.17549372 7.7710247 255 0 0
2.3795989 0.42812642 7.6779947 255 0 0
2.3852954 0.40576786 7.679769 255 0 0
2.408903 -0.0020382626 7.745695 255 0 0
2.3861415 0.56202656 7.631641 255 0 0
2.3876867 0.86266744 7.603976 255 0 0
2.3943806 1.0737083 7.5756836 255 0 0
2.4064305 1.4131874 7.5243692 255 0 0
2.4264512 1.0702227 7.570163 255 0 0
2.4638665 1.0740604 7.605786 255 0 0
2.4666114 1.1855705 7.5972133 255 0 0
2.6540692 0.7673278 7.7318287 255 0 0
2.706341 0.48126933 7.767078 255 0 0
2.7165654 1.090155 7.69168 255 0 0
2.8175373 0.2095955 7.8906875 255 0 0
2.8175373 0.2095955 7.8906875 255 0 0
2.7926192 0.4492936 7.8064184 255 0 0
2.8034644 0.82706106 7.778044 255 0 0
2.7957299 1.0324782 7.7350087 255 0 0
2.9062068 -0.06858469 7.9321847 255 0 0
2.8614993 0.72812605 7.8047256 255 0 0
2.8614419 0.7468874 7.8046227 255 0 0
2.8638732 0.73877347 7.803914 255 0 0
2.809131 1.4169903 7.6421523 255 0 0
3.0150769 -0.04071813 7.9818416 255 0 0
3.080472 -0.2577704 8.00111 255 0 0
3.0797858 -0.24350919 7.9780383 255 0 0
