ply
format ascii 1.0
element vertex 37
property float x
property float y
property float z
property int red
property int blue
property int green
end_header
-2.6354187 -0.5715247 6.1203413 120 0 255
-2.5586505 -0.1410373 6.1025376 120 0 255
-2.3544388 0.5634381 6.132866 120 0 255
-2.324608 1.3816756 6.039534 120 0 255
-2.2682292 1.2730575 6.044098 120 0 255
-2.296864 -0.75294894 6.3015695 120 0 255
-2.180242 1.3451902 6.1314235 120 0 255
-2.1336946 1.398939 6.152036 120 0 255
-2.112804 1.1412864 6.1489077 120 0 255
-2.103501 0.77141464 6.239267 120 0 255
-2.0461183 -0.27577448 6.383687 120 0 255
-0.061173618 0.031419594 4.2460475 120 0 255
-0.061173618 0.031419594 4.2460475 120 0 255
-1.1632888 -0.45289937 7.8203244 120 0 255
-1.128263 -1.7331028 8.57146 120 0 255
-1.0048499 1.5980257 7.4755445 120 0 255
-0.79337645 -1.3264662 8.630873 120 0 255
0.1298577 -1.5714415 9.060632 120 0 255
-0.46964282 -2.162989 9.17767 120 0 255
-0.47071514 -2.3179667 9.201773 120 0 255
-0.41368464 0.2924845 7.8481164 120 0 255
-0.4608245 -2.3177104 9.204634 120 0 255
-0.45722863 -2.1800127 9.177696 120 0 255
-0.45528632 -2.310256 9.218938 120 0 255
-0.45153254 -2.2095282 9.196115 120 0 255
-0.44877902 -2.1613727 9.1827545 120 0 255
-0.43853316 -2.1788216 9.180273 120 0 255
0.14506584 -1.6296353 9.0645275 120 0 255
0.16738777 -1.3868275 9.021384 120 0 255
0.42109472 -1.2694764 9.277242 120 0 255
0.31956655 1.5724757 6.938944 120 0 255
1.7997216 1.1339139 8.413213 120 0 255
2.0537462 0.0753999 8.046966 120 0 255
2.1133838 -0.14530689 7.894192 120 0 255
2.464007 -0.88455135 8.39645 120 0 255
2.464007 -0.88455135 8.39645 120 0 255
2.817908 -0.41255498 8.066121 120 0 255
