ply
format ascii 1.0
element vertex 104
property float x
property float y
property float z
property int red
property int blue
property int green
end_header
-0.9375603 -2.0888002 11.0144615 100 100 155
0.055687353 -1.8617908 11.882887 100 100 155
0.1403354 -1.836919 11.733651 100 100 155
-1.4831705 -1.652522 10.781557 100 100 155
2.908413 -1.6674078 13.99177 100 100 155
3.2157252 -0.4638435 10.655539 100 100 155
5.1269364 0.5830129 11.667212 100 100 155
-1.7873839 0.6385943 6.1440516 100 100 155
-1.8354169 0.91842496 6.0562906 100 100 155
-2.6040819 -1.7780209 7.5551343 100 100 155
-0.57200944 -2.7362409 11.889754 100 100 155
-0.46564507 -2.4385393 12.072868 100 100 155
-1.7988375 -1.784086 10.706868 100 100 155
1.5520275 -1.965423 13.485651 100 100 155
1.538968 -1.9016877 13.41385 100 100 155
0.2044996 -1.3343148 11.550544 100 100 155
2.3848464 -1.5269868 13.455081 100 100 155
-2.6281412 -0.5761991 6.062455 100 100 155
1.7157966 -0.93410385 12.235683 100 100 155
3.358619 -0.7541185 10.982936 100 100 155
0.26752216 -0.43645394 9.870406 100 100 155
0.14037107 -0.3735796 9.703296 100 100 155
0.9500978 -0.32967085 10.736741 100 100 155
0.9976055 -0.16777179 10.642375 100 100 155
4.3857574 -0.1954889 11.69948 100 100 155
1.9085697 -0.132545 11.401583 100 100 155
2.866742 -0.11561119 10.32982 100 100 155
3.0209787 0.3517216 10.3764715 100 100 155
-1.3061732 0.42252147 8.578512 100 100 155
-1.3014162 0.5146208 8.551835 100 100 155
-2.005166 0.4337721 6.038483 100 100 155
3.8520947 0.92355466 10.937364 100 100 155
-2.1855989 0.65285766 5.890549 100 100 155
2.5616162 1.4791316 11.592306 100 100 155
-2.569555 -1.7738284 7.5623775 100 100 155
-0.5559204 -2.8149424 12.065197 100 100 155
-0.54911935 -2.7748847 12.114753 100 100 155
-0.63264763 -2.4324868 11.755527 100 100 155
-0.33637136 -2.0143669 11.998703 100 100 155
-1.5337502 -1.7997215 10.979282 100 100 155
1.6241724 -1.9628521 13.504405 100 100 155
1.2326391 -1.8691176 13.009019 100 100 155
1.2062086 -1.8443288 13.059967 100 100 155
-1.4365356 -0.9529026 9.672552 100 100 155
-0.2073673 -0.8626342 9.514767 100 100 155
-1.5697917 -0.73899144 8.832725 100 100 155
3.0652819 -0.3499252 10.502476 100 100 155
-0.43819097 -0.2711326 9.025483 100 100 155
1.6764381 -0.284478 11.375033 100 100 155
3.3295689 -0.021837933 10.73264 100 100 155
3.0143447 0.34267598 10.378934 100 100 155
-1.8329638 0.2401289 6.2312865 100 100 155
-1.6928923 0.48779172 8.237709 100 100 155
-1.7933418 0.420185 6.2405715 100 100 155
1.2103072 0.71765274 10.636853 100 100 155
2.8762949 0.7684988 10.325388 100 100 155
-1.2849358 0.83807236 8.475414 100 100 155
1.6106167 1.2618097 10.93126 100 100 155
0.70915747 1.268286 10.079846 100 100 155
-1.8456877 0.91885245 6.021745 100 100 155
-0.15670204 1.5165279 8.944791 100 100 155
-1.9981437 1.2855535 5.7811403 100 100 155
-0.45510107 -2.658416 12.080635 100 100 155
-0.64873993 -2.5385864 11.728062 100 100 155
-1.7980335 -1.7758392 10.702684 100 100 155
-2.3460135 -0.8785043 6.371249 100 100 155
1.6195022 -1.8512671 13.425889 100 100 155
1.6176227 -1.7055055 13.2501955 100 100 155
-2.6231174 -0.5475034 5.953207 100 100 155
0.7872659 -0.7713512 10.718818 100 100 155
-1.8284255 -0.05033277 6.424808 100 100 155
3.0495596 0.2669396 10.463499 100 100 155
-0.035304345 0.25974798 9.400175 100 100 155
-1.9783481 0.21036014 6.136289 100 100 155
-1.9711832 0.4171662 6.1322722 100 100 155
0.75896895 1.3918449 10.279394 100 100 155
-1.848963 0.9129983 6.0121574 100 100 155
-1.5170176 1.6984193 7.982591 100 100 155
-2.0088544 1.2928482 5.794747 100 100 155
-0.52791744 -2.8414738 12.090195 100 100 155
-0.42936483 -2.5020041 11.978145 100 100 155
-0.6815858 -2.4243217 11.629367 100 100 155
-0.72198987 -2.2064319 11.840453 100 100 155
-2.4591243 -1.7360547 10.371397 100 100 155
1.5991827 -1.8513004 13.407671 100 100 155
1.2810539 -0.47808483 11.082552 100 100 155
1.2833717 -0.3314903 11.062959 100 100 155
-1.9003148 0.13609405 6.2450137 100 100 155
1.1415858 0.7257352 10.643963 100 100 155
-0.74078417 0.79526293 8.865996 100 100 155
2.2273731 1.5693617 11.47102 100 100 155
-1.5201534 1.7021931 8.028207 100 100 155
-2.1380477 1.288158 5.74546 100 100 155
-0.52110624 -2.4417965 11.9029455 100 100 155
-2.4390774 -1.6747946 10.212933 100 100 155
-1.8041354 -1.7424196 10.694352 100 100 155
3.9390433 -0.5132471 11.27691 100 100 155
1.28727 -0.35673264 11.063107 100 100 155
-1.8660578 0.21281533 6.2614107 100 100 155
-1.060263 0.56875056 8.698803 100 100 155
-0.60170025 -2.0859962 11.749402 100 100 155
-1.3362015 -0.43428975 8.955315 100 100 155
-1.9547604 0.38704592 6.2198606 100 100 155
0.32718688 -1.9290506 11.965743 100 100 155
